<?xml version="1.0" encoding="utf-8"?>
<!-- Generator: Adobe Illustrator 17.1.0, SVG Export Plug-In . SVG Version: 6.00 Build 0)  -->
<!DOCTYPE svg PUBLIC "-//W3C//DTD SVG 1.1//EN" "http://www.w3.org/Graphics/SVG/1.1/DTD/svg11.dtd">
<svg version="1.1" id="Layer_1" xmlns="http://www.w3.org/2000/svg" xmlns:xlink="http://www.w3.org/1999/xlink" x="0px" y="0px"
	 viewBox="0 0 612 792" enable-background="new 0 0 612 792" xml:space="preserve">
<g>
	<defs>
		<circle id="SVGID_1_" cx="274" cy="281.5" r="185.87"/>
	</defs>
	<clipPath id="SVGID_2_">
		<use xlink:href="#SVGID_1_"  overflow="visible"/>
	</clipPath>
	<g clip-path="url(#SVGID_2_)">
		
			<image overflow="visible" width="500" height="375" xlink:href="../../../../../Desktop/large.jpg"  transform="matrix(1 0 0 1 24 94)">
		</image>
	</g>
</g>
<path opacity="0.34" d="M459.87,281.11c0,103.215-83.181,186.259-185.87,186.259S88.002,384.325,88.002,281.11
	S171.312,95.63,274,95.63S459.87,177.895,459.87,281.11z"/>
<g opacity="0.5">
	<path fill="#FFFFFF" d="M394.201,339.543c-0.173,0.23-0.374,0.499-0.578,0.771c0.008,0.038-0.349,0.048-0.317,0.058
		c2.313,0.683,1.979,2.321,2.042,3.478c0.007,0.128-0.434,0.184-0.405,0.305c0.025,0.105,0.388-0.069,0.435,0.031
		c0.482,1.033-0.634,1.592-2.298,1.571c-9.557-0.12-19.115-0.239-28.672-0.32c-9.082-0.077-18.164-0.097-27.246-0.159
		c-5.546-0.038-11.092-0.13-16.638-0.162c-11.65-0.067-23.299-0.104-34.949-0.168c-9.882-0.054-19.765-0.146-29.647-0.184
		c-6.664-0.025-13.325,0.039-19.989,0.017c-4.501-0.015-9.004-0.132-13.506-0.166c-10.034-0.075-20.068-0.144-30.101-0.183
		c-8.422-0.033-16.843-0.019-25.264-0.029c-0.482-0.001-0.967-0.012-1.448-0.038c-1.779-0.094-2.088-0.29-2.103-1.445
		c-0.012-0.891,0.083-1.781,0.087-2.672c0.003-0.628,0.38-0.964,1.391-1.006c4.548-0.189,9.117-0.287,13.631-0.638
		c2.818-0.219,5.555,0.087,8.328,0.122c2.379,0.03,4.757-0.175,7.136-0.268c0.398-0.016,0.826-0.05,1.198,0.023
		c2.925,0.578,5.86,0.456,8.805,0.233c0.633-0.048,1.283-0.034,1.925-0.02c9.246,0.202,18.492,0.471,27.738,0.595
		c6.657,0.089,13.313-0.002,19.969-0.037c2.081-0.011,4.254-0.393,6.217-0.092c3.994,0.613,7.977,0.487,11.95,0.486
		c7.534-0.003,15.059-0.211,22.592-0.271c5.381-0.043,10.769,0.042,16.152,0.025c6.656-0.021,13.311-0.09,19.966-0.136
		c7.064-0.049,14.129-0.095,21.193-0.143c6.5-0.045,12.999-0.092,19.499-0.137c6.418-0.044,12.838-0.064,19.253-0.148
		C391.879,338.816,393.248,338.422,394.201,339.543z"/>
	<path fill="#FFFFFF" d="M266.254,298.499c0,0.075-0.007,0.15-0.007,0.225c-0.007,0.007-0.02,0.007-0.027,0.014
		C266.241,298.662,266.254,298.581,266.254,298.499z"/>
	<path fill="#FFFFFF" d="M298.538,278.639c1.546-0.499,3.016-1.073,4.536-1.446c6.354-1.557,12.068-4.381,17.118-8.53
		c0.673-0.553,1.163-1.325,1.773-1.962c1.215-1.268,2.395-2.581,3.703-3.748c1.252-1.117,2.257-2.329,2.292-4.063
		c0.038-1.924,0.026-3.853-0.087-5.773c-0.094-1.608,0.45-2.167,2.025-1.843c1.989,0.409,3.448,1.544,4.507,3.37
		c0.073-1.695-0.916-3.549-2.531-4.704c-3.121-2.233-6.433-4.233-9.358-6.695c-2.865-2.411-5.513-5.135-7.943-7.989
		c-1.908-2.241-3.396-4.854-4.952-7.375c-0.573-0.929-0.972-2.042-1.13-3.119c-0.079-0.539,0.43-1.382,0.923-1.707
		c0.31-0.204,1.249,0.135,1.622,0.511c1.239,1.251,2.354,2.625,3.507,3.959c2.263,2.62,5.459,3.899,8.284,5.695
		c4.173,2.654,8.458,5.133,12.967,7.851c0.062-2.479,0.252-4.677,0.141-6.861c-0.175-3.428,0.422-6.909-0.693-10.291
		c-0.17-0.515,0.111-1.267,0.373-1.819c0.598-1.258,1.793-1.505,2.657-0.42c0.829,1.043,1.524,2.275,1.958,3.534
		c1.224,3.553,2.535,7.107,3.332,10.766c0.713,3.271,0.794,6.68,1.14,10.03c0.345,3.347,0.61,6.703,1.024,10.041
		c0.503,4.045-0.419,7.739-3.004,10.809c-1.25,1.484-3.008,2.719-4.778,3.548c-3.058,1.431-5.443,3.523-6.999,6.401
		c-1.781,3.295-4.679,4.727-8.045,5.469c-3.875,0.854-7.549,2.187-11.039,4.053c-0.423,0.226-0.886,0.439-1.212,0.773
		c-3.184,3.266-7.155,5.057-11.466,6.262c-1.23,0.343-2.548,0.661-3.576,1.359c-1.074,0.73-1.847,1.903-3.135,3.298
		c-1.678,0.717-4.019,1.075-6.437,1.019c-2.079-0.048-2.303-0.308-2.627-2.24c-0.553-3.302-1.2-6.589-1.871-10.222
		c1.089-2.027,3.662-1.266,5.604-2.157c2.58-3.187,4.24-5.491,4.998-9.576c0.387-2.083,0.958-1.951,1.057-5.441
		c0.012-0.404,0.083-1.987,0.128-2.384c0.1-0.883,0-2.767,0.213-3.065c0.528-0.739,1.287,0.806,1.528,1.566
		C296.449,269.904,299.06,273.954,298.538,278.639z"/>
	<path fill="#FFFFFF" d="M210.379,332.776c-0.241,0.824-1.73,0.286-3.401,0.415c-2.881,0.225-5.704-0.238-8.598-0.334
		c-1.723-0.055-1.814-0.286-1.906-2.248c-0.306-6.395-0.605-12.79-0.917-19.192c-0.013-0.375-0.137-0.749-0.208-1.124
		c-0.169-0.061-0.332-0.123-0.501-0.184c-1.171,1.778-2.354,3.542-3.505,5.326c-1.593,2.472-4.91,3.024-7.173,1.151
		c-1.346-1.124-3.037-3.364-4.611-4.699c-0.228-0.191-0.371-0.075-0.345,0.511c0.085,2.104,0.078,3.746,0.228,5.374
		c0.267,2.86,0.631,5.714,0.937,8.575c0.156,1.43,0.293,2.86,0.397,4.297c0.078,1.137-0.423,2.268-1.463,2.377
		c-4.422-0.034-8.025,0.552-12.851,0c-1.359-0.272-1.249-1.887-1.379-3.065c-0.098-0.953-0.019-2.568-0.039-3.535
		c-0.137-6.504-0.13-11.489-0.286-17.993c-0.124-5.053-0.293-10.114-0.423-15.174c-0.006-0.163-0.006-0.32-0.006-0.463
		c0-0.851,0.052-1.696,0.078-2.547c-0.007-0.007-0.007-0.007,0-0.007c0.02-0.041,0.039-0.082,0.065-0.116
		c0.754-0.415,1.509-0.627,2.27-0.708c0.007,0,0.013,0,0.013,0c1.294-0.15,2.588,0.055,3.837,0.15
		c1.002,0.082,1.977,1.09,2.881,1.791c2.894,2.241,5.736,4.556,8.624,6.804c1.945,1.512,3.935,2.963,5.951,4.475
		c3.323-3.828,6.569-7.444,9.677-11.19c1.21-1.464,2.582-2.166,4.364-2.098c1.073,0.048,2.14,0.129,3.206,0.225
		c1.275,0.123,1.847,0.892,1.964,2.227c0.319,3.753,0.715,7.498,1.067,11.251c0.429,4.631,0.852,9.256,1.255,13.887
		c0.117,1.274,0.117,2.561,0.215,3.841c0.169,2.309,0.481,3.467,0.676,5.775c0.013,0.163-0.019,1.471,0,1.628
		C210.711,329.916,210.626,331.959,210.379,332.776z"/>
	<path fill="#FFFFFF" d="M315.416,333.607c-0.761-5.825-1.529-11.703-2.344-17.937c-1.292,1.745-2.541,3.248-3.582,4.893
		c-1.016,1.606-2.21,2.784-4.089,3.147c-1.343,0.259-2.566,0.249-3.728-0.666c-1.222-0.962-2.535-1.801-4.12-2.912
		c0.041,0.885,0.034,1.465,0.101,2.034c0.32,2.698,0.737,5.386,0.969,8.092c0.196,2.287-0.395,2.881-2.574,2.986
		c-2.556,0.122-5.112,0.231-7.669,0.335c-2.102,0.086-2.647-0.353-2.819-2.529c-0.291-3.674-0.464-7.358-0.766-11.031
		c-0.151-1.832-0.538-3.641-0.712-5.472c-0.287-3.028-0.505-6.063-0.715-9.099c-0.05-0.717-0.01-1.453,0.094-2.165
		c0.138-0.948,0.629-1.678,1.63-1.745c2.386-0.161,4.778-0.369,7.163-0.332c0.755,0.012,1.553,0.659,2.236,1.155
		c3.174,2.303,6.314,4.655,9.727,7.182c0.95-1.745,1.902-3.35,2.721-5.025c2.062-4.219,4.025-8.49,6.11-12.697
		c0.769-1.552,1.77-2.98,2.677-4.485c2.779-0.133,5.462-0.261,8.269-0.395c0.951,2.533,0.999,5.019,1.168,7.465
		c0.442,6.391,0.826,12.786,1.23,19.179c0.278,4.4,0.56,8.8,0.823,13.201c0.09,1.5,0.201,3.006,0.154,4.505
		c-0.024,0.738-0.388,1.464-0.55,2.027C322.955,334.122,319.366,334.401,315.416,333.607z"/>
	<path fill="#FFFFFF" d="M231.48,332.217"/>
	<path fill="#FFFFFF" d="M231.439,332.163c-0.599-0.783-0.422-2.356-0.415-2.438c0-0.007,0,0.627-0.007,0.552c0,0,0,0,0-0.007
		c0-0.054-0.007-0.123-0.014-0.198c-0.007-0.218-0.02-0.456-0.02-0.456c-0.007-0.116-0.02-0.218-0.034-0.32
		c0-0.02,0-0.048-0.007-0.068c-0.014-0.286-0.027-0.572-0.048-0.844v-0.02c0-0.286,0.014-0.484,0-0.661
		c-0.02-0.252-0.041-0.497-0.055-0.736c-0.204-2.84-0.252-4.652-0.538-7.669c-0.375-4.066-0.872-8.118-1.328-12.17
		c-0.014-0.157-0.102-0.313-0.109-0.47c-0.245-4.72-0.531-9.446-0.681-14.173c-0.068-1.887,0.17-2.104,1.968-2.622
		c1.362-0.388,2.758-0.62,4.011-0.899c7.226,7.526,14.118,14.697,21.344,22.216c-0.313-2.268-0.688-4.025-0.783-5.796
		c-0.129-2.717,0.415-3.528,2.908-3.828c2.145-0.252,4.359-0.109,6.531,0.007c0.409,0.027,0.851,0.708,1.158,1.178
		c0.198,0.3,0.204,0.763,0.245,1.158c0.306,3.099,0.627,6.204,0.879,9.31c0.443,5.421,0.851,10.849,1.26,16.277
		c0.041,0.558,0.129,1.124,0.089,1.675c-0.089,1.035-0.191,1.737-1.226,1.764c-3.072,0.095-5.925,0.368-8.772-0.089
		c-1.28-0.211-2.247-1.137-2.99-2.057c-3.759-4.692-7.485-9.405-11.258-14.077c-0.667-0.824-1.526-1.471-2.295-2.2
		c-0.136,0.082-0.272,0.163-0.402,0.245c0.143,0.994,0.354,1.989,0.436,2.997c0.347,3.909,0.817,7.784,1.852,11.578
		c0.279,1.035,0.742,2.036,0.572,2.758c-0.014,0.055-0.027,0.102-0.048,0.15c-0.02,0.041-0.048,0.075-0.075,0.109
		c-1.09,1.294-9.371,0.422-9.371,0.422v-0.007c-1.219,0.041-1.907-0.102-2.295-0.259c-0.17-0.061-0.279-0.129-0.354-0.191"/>
	<path fill="#FFFFFF" d="M380.841,321.532c0.969,0.074,1.748,0.15,2.529,0.19c3.211,0.166,6.426,0.286,9.635,0.493
		c2.17,0.14,2.667-0.025,2.709,2.15c0.037,1.912-0.032,3.828-0.12,5.74c-0.062,1.347-0.606,2.296-2.171,2.349
		c-0.871,0.029-1.74,0.361-2.604,0.342c-6.18-0.136-12.359-0.302-18.535-0.529c-0.923-0.034-1.833-0.435-2.686-0.651
		c-0.991-2.426-0.495-4.776-0.61-7.073c-0.314-6.248-0.572-12.499-0.955-18.742c-0.325-5.285-0.863-10.557-1.171-15.843
		c-0.17-2.914,0.342-3.239,3.352-3.22c2.536,0.016,5.074-0.074,7.61-0.166c1.555-0.056,1.32,0.457,1.589,2.125
		c0.355,2.201,0.508,5.072,0.511,7.293c0.007,5.78,0.585,10.564,0.558,16.345C380.468,315.112,380.708,318.572,380.841,321.532z"/>
	<path fill="#FFFFFF" d="M268.48,286.725c2.565-0.107,4.931-0.336,7.287-0.263c1.898,0.06,2.355,0.692,2.51,2.678
		c0.362,4.629,0.639,9.266,1.061,13.89c0.348,3.815,0.926,7.608,1.27,11.424c0.382,4.23,0.608,8.475,0.918,12.712
		c0.081,1.115,0.236,2.223,0.332,3.337c0.112,1.315-0.313,2.119-1.527,2.258c-2.201,0.251-4.425,0.418-6.636,0.385
		c-1.723-0.026-2.191-0.572-2.349-2.538c-0.468-5.819-0.868-11.645-1.25-17.472c-0.356-5.424-0.627-10.854-0.99-16.278
		c-0.165-2.464-0.485-4.917-0.68-7.38C268.358,288.625,268.455,287.757,268.48,286.725z"/>
	<path fill="#FFFFFF" d="M227.604,330.406c0.211,1.669-0.225,2.309-0.531,2.547c0,0.007-0.007,0.007-0.014,0.007
		c-0.102,0.068-0.218,0.109-0.354,0.136c-3.589,0.068-8.139,0-8.139,0c-3.065,0.47-2.779-2.036-2.779-2.036
		c-0.014-0.068-0.027-0.143-0.034-0.211c-0.279-3.031-0.409-6.082-0.749-9.106c-0.586-5.156-1.355-10.291-1.934-15.446
		c-0.484-4.304-0.872-8.629-1.158-12.947c-0.116-1.791,0.443-2.888,1.641-3.405c0.184-0.095,0.429-0.17,0.708-0.232
		c1.28-0.3,3.255-0.334,3.255-0.334v0.007c1.703-0.157,3.773-0.082,4.011-0.068c0.014,0,0.02,0,0.02,0
		c0.586,0.007,0.947,0.252,1.151,0.586c0.014,0,0.014,0,0.007,0.007c0.048,0.409,0.095,0.817,0.143,1.219
		c0.055-0.02,0.109-0.041,0.163-0.054c0,0,0,0.014,0,0.041v0.252c-0.007,0.361-0.061,0.62-0.061,0.62
		c0.082,0.722,0.163,1.437,0.252,2.152c0.007,0.116,0.02,0.232,0.034,0.347c0.007,0.034,0.007,0.075,0.014,0.116
		c0.967,8.357,1.921,16.577,2.867,24.75c0.075,0.633,0.143,1.233,0.211,1.805c0.79,6.456,1.328,9.256,1.328,9.256
		C227.639,330.413,227.618,330.413,227.604,330.406z"/>
	<path fill="#FFFFFF" d="M226.379,332.96c-0.143,0.116-0.259,0.136-0.259,0.136h-0.095
		C226.161,333.069,226.276,333.028,226.379,332.96z"/>
	<path fill="#FFFFFF" d="M222.467,186.922c0.464,0.459,0.847,0.839,1.39,1.377c-0.576,0.66-1.099,1.236-1.596,1.833
		c-1.378,1.657-2.764,3.308-4.106,4.994c-0.549,0.69-0.92,1.525-1.491,2.191c-3.192,3.717-4.802,8.175-5.689,12.854
		c-0.503,2.652-0.753,5.506-0.324,8.14c0.51,3.136-0.521,5.6-1.833,8.198c-1.721,3.409-3.295,6.892-4.949,10.378
		c-2.042,0.58-2.348,0.4-2.721-1.528c-0.795-4.098-1.529-8.183-1.094-12.408c0.453-4.399,1.11-8.691,3.163-12.711
		c1.816-3.555,3.34-7.246,5.557-10.606C212.261,194.349,216.275,189.685,222.467,186.922z"/>
	<path fill="#FFFFFF" d="M333.046,233.908c-0.049,1.68-0.89,2.405-2.086,1.938c-2.374-0.928-4.71-1.971-6.993-3.106
		c-0.545-0.271-0.995-1.036-1.188-1.666c-1.26-4.127-2.489-8.265-3.626-12.428c-0.927-3.393-1.625-6.849-2.594-10.228
		c-0.57-1.987-1.41-3.905-2.236-5.807c-1.021-2.352-2.12-4.671-3.249-6.973c-0.739-1.506-1.6-2.952-2.388-4.435
		c-0.187-0.352-0.308-0.741-0.441-1.119c-0.248-0.703-0.506-1.584,0.379-1.847c0.528-0.157,1.439,0.166,1.855,0.589
		c1.516,1.541,3.146,3.06,4.276,4.872c2.744,4.397,5.504,8.822,7.76,13.477c3.578,7.382,6.551,15.04,9.123,22.842
		C332.113,231.451,332.665,232.858,333.046,233.908z"/>
	<path fill="#FFFFFF" d="M333.8,221.369c2.095,0.329,1.711-1.823,2.668-2.628c0.947,0.685,1.937,1.402,3.005,2.175
		c0.696-7.409-5.41-26.718-13.595-33.082c-0.735,0.34-0.771,1.016-0.585,1.76c0.329,1.317,1.411,2.439,1.749,3.754
		c2.391,4.044,3.023,8.498,4.143,12.656C332.554,211.089,333.046,216.135,333.8,221.369z"/>
	<path fill="#FFFFFF" d="M220.765,217.841c-2.115-0.147-1.261-2.159-2.014-3.158c-1.076,0.457-2.201,0.934-3.414,1.449
		c0.976-7.378,11.24-24.835,20.639-29.21c0.641,0.495,0.524,1.162,0.177,1.846c-0.615,1.211-1.92,2.063-2.543,3.269
		c-3.233,3.408-4.845,7.609-6.865,11.411C224.274,208.099,222.668,212.908,220.765,217.841z"/>
	<path fill="#FFFFFF" d="M296.281,355.421c1.172-0.785,2.393-0.869,3.627-0.793c0.703,0.044,1.171,0.427,1.334,1.194
		c0.446,2.09,0.959,4.166,1.414,6.254c0.149,0.685,0.042,1.365-0.757,1.562c-0.766,0.189-1.41,0.011-1.644-0.911
		c-0.237-0.934-0.546-1.849-0.863-2.907c-1.673,0.894-3.354,0.776-5.063,0.173c-3.157-1.113-4.037-4.605-1.804-7.081
		c1.773-1.967,4.046-2.133,6.43-1.893c0.483,0.049,0.942,0.407,1.396,0.653c0.607,0.328,0.825,0.885,0.551,1.487
		c-0.292,0.64-0.922,0.766-1.486,0.42c-1.182-0.725-2.369-0.555-3.576-0.17c-1.211,0.386-2.073,1.516-2,2.575
		c0.074,1.075,1.091,1.952,2.468,2.058c0.948,0.073,1.933,0.165,2.617-0.785C298.41,356.02,296.349,357.384,296.281,355.421z"/>
	<path fill="#FFFFFF" d="M222.926,355.178c-0.404-0.227-0.665-0.311-0.839-0.482c-0.715-0.703-1.499-0.749-2.294-0.218
		c-0.626,0.418-0.741,1.66-0.306,2.522c0.841,1.668,2.456,2.288,4.269,1.638c1.586-0.569,2.241-0.478,2.506,0.349
		c0.245,0.764-0.344,1.477-1.687,2.043c-3.77,1.588-8.317-0.992-8.842-5.017c-0.425-3.258,3.43-6.186,6.768-5.134
		c0.37,0.117,0.743,0.247,1.083,0.43c1.506,0.807,1.604,1.603,0.376,2.804C223.643,354.423,223.341,354.749,222.926,355.178z"/>
	<path fill="#FFFFFF" d="M270.033,358.233c-1.96-0.119-3.698-0.225-5.585-0.34c0.092,0.52,0.358,1.111,0.236,1.607
		c-0.114,0.467-0.56,0.999-0.999,1.206c-0.58,0.274-1.2-0.015-1.349-0.718c-0.486-2.282-0.978-4.566-1.326-6.87
		c-0.054-0.355,0.564-1.005,1.002-1.171c0.273-0.103,1.003,0.356,1.161,0.721c0.378,0.877,0.539,1.847,0.819,2.898
		c1.781,0.18,3.5,0.354,5.442,0.551c-0.227-1.006-0.478-1.792-0.563-2.596c-0.079-0.753,0.161-1.482,1.035-1.639
		c0.945-0.171,1.218,0.557,1.424,1.273c0.519,1.8,1.027,3.603,1.534,5.407c0.088,0.312,0.12,0.643,0.228,0.947
		c0.247,0.69-0.003,1.172-0.65,1.374c-0.663,0.207-1.32,0.142-1.64-0.622C270.53,359.611,270.3,358.944,270.033,358.233z"/>
	<path fill="#FFFFFF" d="M286.782,357.423c-0.224-1.339-0.242-2.241-0.542-3.036c-0.348-0.925-0.233-1.618,0.47-2.272
		c0.907-0.178,1.542,0.062,1.707,1.067c0.337,2.045,0.694,4.087,1.001,6.136c0.098,0.653,0.059,1.33-0.671,1.678
		c-0.716,0.342-1.185-0.046-1.716-0.501c-1.38-1.181-2.82-2.292-4.533-3.669c0.292,1.085,0.567,1.822,0.679,2.584
		c0.201,1.363,0.029,1.496-1.783,1.554c-0.957-2.287-1.331-4.771-1.559-7.265c-0.022-0.241-0.21-0.89,0.014-1.146
		c0.191-0.218,0.656-0.423,0.922-0.241C282.778,354.017,284.587,355.556,286.782,357.423z"/>
	<path fill="#FFFFFF" d="M319.752,352.267c-0.257,1.466-0.936,1.549-2.023,1.224c-1.656-0.496-2.069-0.324-2.67,0.74
		c-0.504,0.893-0.813,1.836-0.009,2.709c0.869,0.944,1.945,1.547,3.273,1.287c0.554-0.108,1.038-0.548,1.591-0.694
		c0.434-0.115,1.205-0.18,1.335,0.033c0.259,0.425,0.259,1.063,0.206,1.597c-0.025,0.253-0.378,0.567-0.654,0.685
		c-2.034,0.869-4.011,1.249-6.116-0.039c-1.894-1.158-2.742-2.655-2.525-4.841c0.28-2.814,2.925-4.582,5.593-3.66
		C318.45,351.548,319.093,351.946,319.752,352.267z"/>
	<path fill="#FFFFFF" d="M231.708,357.519c1.311,0.165,2.593,0.308,3.869,0.493c1.453,0.21,1.697,0.717,1.132,2.313
		c-2.221,0.721-4.472,0.229-6.714,0.028c-0.869-0.078-1.324-0.56-1.438-1.524c-0.183-1.539-0.533-3.06-0.856-4.58
		c-0.505-2.38-0.201-2.756,2.215-2.618c0.191,0.011,0.38,0.057,0.756,0.116C231.44,353.471,230.977,355.494,231.708,357.519z"/>
	<path fill="#FFFFFF" d="M254.907,354.4c0.322,1.533,0.545,2.801,0.859,4.046c0.492,1.952,0.262,2.244-2.036,2.072
		c-0.386-1.945-0.785-3.956-1.196-6.03c-1.034-0.088-1.989-0.17-2.925-0.25c-0.083-1.605,0.242-2.173,1.426-2.294
		c1.553-0.16,3.116-0.258,4.677-0.296c0.565-0.014,1.232,0.082,1.676,0.385c0.414,0.284,0.857,0.947,0.798,1.375
		c-0.054,0.388-0.722,0.83-1.204,0.982C256.458,354.555,255.836,354.413,254.907,354.4z"/>
	<path fill="#FFFFFF" d="M278.543,359.088c-0.038,0.471-0.08,0.795-0.086,1.119c-0.012,0.674-0.269,1.126-0.998,1.194
		c-0.717,0.067-1.355-0.089-1.498-0.891c-0.417-2.348-1.28-4.644-0.978-7.076c0.05-0.407,0.511-1.008,0.856-1.064
		c0.35-0.057,1.048,0.373,1.151,0.721C277.592,355.117,278.064,357.181,278.543,359.088z"/>
	<path fill="#FFFFFF" d="M335.111,360.215c-0.75-0.059-1.492-1.052-1.371-1.834c0.117-0.755,1.207-1.61,1.983-1.556
		c0.92,0.064,1.66,0.944,1.563,1.859C337.203,359.474,336.046,360.288,335.111,360.215z"/>
	<path fill="#FFFFFF" d="M365.404,327.222c-3.142-8.615-6.203-17.264-9.46-25.832c-1.524-4.009-3.471-7.843-5.133-11.799
		c-0.589-1.403-1.528-1.946-2.899-1.898c-2.796,0.097-5.592,0.201-8.387,0.331c-1.487,0.069-2.518,0.823-2.873,2.356
		c-0.468,2.02-0.961,4.039-1.299,6.084c-1.109,6.715-2.237,13.428-3.189,20.167c-0.583,4.125-0.875,8.295-1.257,12.449
		c-0.108,1.178-0.071,2.37-0.101,3.569c3.486,1.679,6.798,0.534,10.237,0.093c0.67-2.785,1.32-5.491,2.023-8.411
		c1.757-0.114,3.223-0.26,4.691-0.29c1.468-0.029,2.937,0.059,4.523,0.099c0.501,1.254,0.982,2.51,1.502,3.748
		c0.612,1.458,0.904,3.433,1.988,4.202c1.081,0.768,2.97,0.335,4.506,0.404c2.211,0.099,4.278-0.403,6.442-1.705
		C366.265,329.56,365.831,328.393,365.404,327.222z M344.391,315.894c0.06-3.103,1.18-5.928,1.913-8.92
		c0.967,2.739,1.934,5.478,3.011,8.527C347.505,315.645,346.076,315.759,344.391,315.894z"/>
	<path fill="#FFFFFF" d="M330.019,351.886c-0.946-0.541-4.156-0.386-5.199,0.306c-0.264,0.175-0.504,0.408-0.706,0.655
		c-1.15,1.407-1.6,3.012-0.82,4.69c0.882,1.896,2.352,3.082,4.476,2.924c2.837,0.084,4.585-1.267,4.832-3.575
		C332.843,354.636,331.965,352.999,330.019,351.886z M330.057,357.185c-0.419,0.853-2.058,1.259-3.172,0.787
		c-1.147-0.486-1.595-1.938-1.031-3.537c0.207-0.466,0.565-0.732,1.018-0.823c0.411-0.082,1.092,0.006,1.522,0.28
		C329.983,354.838,330.6,356.081,330.057,357.185z"/>
	<path fill="#FFFFFF" d="M242.796,351.402c-2.272-0.088-4.017,1.66-4.062,4.068c-0.054,2.923,1.79,5.01,4.492,5.084
		c2.616,0.072,4.628-1.691,4.694-4.113C247.993,353.812,245.655,351.513,242.796,351.402z M245.379,356.908
		c-0.182,0.695-1.31,1.398-2.021,1.272c-1.644-0.29-1.835-1.615-2.02-3.042c1.831-1.094,2.568-1.101,3.591-0.201
		C245.577,355.509,245.562,356.206,245.379,356.908z"/>
	<path fill="#FFFFFF" d="M226.392,332.953c0.306-0.238,0.742-0.879,0.531-2.547c0.014,0.007,0.034,0.007,0.054,0.007
		C226.978,330.413,227.325,332.381,226.392,332.953z"/>
	<path fill="#FFFFFF" d="M264.935,297.41c0,0.081-0.014,0.161-0.034,0.235c-0.388,1.344-3.657,1.203-3.657,1.203
		c-2.35,0.202-4.713,0.249-7.076,0.316c-0.443,0.013-1.001-0.175-1.314-0.464c-1.328-1.243-2.738-2.446-3.834-3.877
		c-1.764-2.298-3.964-3.938-6.647-4.906c-4.175-1.499-8.091-3.434-11.523-6.236c-1.927-1.572-4.182-2.298-6.586-2.695
		c-1.267-0.215-2.534-0.41-3.807-0.544c-6.518-0.652-10.468-4.677-13.369-9.992c-1.492-2.742-1.934-5.833-2.717-8.81
		c-0.926-3.555-1.492-7.163-1.457-10.785c0.027-3.058,0.518-6.149,1.165-9.146c0.994-4.59,3.494-8.595,5.585-12.748
		c0.647-1.27,1.103-2.634,1.812-3.864c1.423-2.466,2.963-4.865,4.447-7.291c0.449-0.732,1.096-1.411,1.927-0.921
		c0.456,0.276,0.79,1.196,0.729,1.788c-0.238,2.594-0.484,5.208-1.022,7.755c-1.553,7.399-2.356,14.844-2.023,22.827
		c2.499-1.566,4.985-2.748,7.015-4.462c5.176-4.368,10.175-8.937,15.181-13.494c1.873-1.707,3.569-3.615,5.36-5.416
		c0.661-0.665,1.457-1.122,2.356-0.531c0.94,0.612,1.049,1.505,0.572,2.513c-1.546,3.299-2.929,6.686-4.638,9.905
		c-2.084,3.911-5.299,6.942-8.643,9.804c-3.446,2.95-7.076,5.698-10.468,8.709c-2.125,1.895-3.998,4.079-5.905,6.209
		c-0.933,1.035-0.865,1.956,0.007,3.83c0.872-1.667,1.512-3.407,3.419-4.274c0.238,0.336,0.593,0.625,0.64,0.954
		c0.259,1.814,1.328,3.165,2.37,4.603c3.998,5.517,9.644,8.454,16.114,9.966c2.465,0.578,5.094,0.524,7.601,0.753
		c0.306-1.29,0.49-2.654,0.79-3.965h0.007c-0.007-0.007,0-0.013,0-0.027c0.055-0.491,1.076-8.353,4.223-8.843
		c0,1.64,0.095,3.77,0.341,4.435c1.008,2.728,1.335,3.528,2.438,6.223c1.389,3.4,4.451,6.641,8.428,7.582
		c2.098,0.497,2.135,3.296,2.196,4.815C265.078,291.952,265.03,293.822,264.935,297.41z"/>
	<path fill="#FFFFFF" d="M248.629,275.111c0,0.014-0.007,0.02,0,0.027h-0.007C248.622,275.139,248.622,275.132,248.629,275.111z"/>
	<path fill="#FFFFFF" d="M237.214,292.14c0,0-3.289-6.753-8.441-1.75L237.214,292.14z"/>
	<path fill="#FFFFFF" d="M236.141,290.542c0,0,2.64,2.802,4.829,5.508C240.97,296.05,235.935,296.716,236.141,290.542z"/>
	<path fill="#FFFFFF" d="M228.171,292.14c0,0-0.394-2.309,2.581-3.176l-1.312,4.939L228.171,292.14z"/>
	<path fill="#FFFFFF" d="M223.014,291.075c-0.054,0.014-0.109,0.034-0.163,0.054c-0.048-0.402-0.095-0.81-0.143-1.219
		C222.932,290.251,223.007,290.687,223.014,291.075z"/>
	<path fill="#FFFFFF" d="M223.205,294.14c-0.089-0.715-0.17-1.43-0.252-2.152c0,0,0.054-0.259,0.061-0.62
		C223.028,291.824,223.062,292.798,223.205,294.14z"/>
	<path fill="#FFFFFF" d="M164.471,290.122c0,0-1.092,1.753-0.143,5.442c0,0,1.743,5.576,0.381-5.442"/>
	<path fill="#FFFFFF" d="M164.069,294.317c0,0,0.133,4.822,0.528,8.227C164.598,302.544,166.778,299.144,164.069,294.317z"/>
</g>
<circle opacity="0.5" fill="none" stroke="#FFFFFF" stroke-width="3.8866" stroke-miterlimit="10" cx="274.73" cy="281.5" r="169.375"/>
</svg>
