<svg xmlns="http://www.w3.org/2000/svg" viewBox="0 0 2350 500" enable-background="new 0 0 2350 500"><path d="M0 0h2350v500h-2350z"/><circle fill="#fff" cx="229.059" cy="518.097" r="5.313"/><circle fill="#fff" cx="145.865" cy="507.398" r="4.573"/><path stroke="#F9F9F9" stroke-width="2.371" stroke-miterlimit="10" fill="none" d="M95.822 462.502h14.732v12.511h-14.732z"/><path fill="#F9F9F9" d="M66.293 272.99l8.507 11.578c-2.973 2.066-6.937 1.16-6.937 1.16-8.405-.951-9.306 8.083-9.306 8.083-1.299 7.045-7.377 5.641-7.377 5.641-12.033-2.791-12.875 8.212-12.875 8.212-1.588 6.61-7.562 4.769-7.562 4.769-10.705-2.66-11.472 7.872-11.472 7.872-.219 2.907-3.167 3.904-3.167 3.904l-8.804-12.15s3.138-1.481 3.993-4.999c0 0 2.025-7.329 9.659-5.832 0 0 8.201 2.735 10.644-7.392 0 0 1.259-7.504 10.348-5.557 0 0 7.513.849 9.184-7.657 0 0 .909-7.188 9.983-5.892-.001 0 4.48-.098 5.182-1.74z"/><path fill="#010011" stroke="#fff" stroke-width="2.371" stroke-miterlimit="10" d="M72.724 277.701l8.507 11.577c-2.973 2.066-6.937 1.16-6.937 1.16-8.405-.951-9.306 8.083-9.306 8.083-1.299 7.045-7.377 5.641-7.377 5.641-12.033-2.791-12.875 8.212-12.875 8.212-1.588 6.61-7.562 4.769-7.562 4.769-10.705-2.66-11.472 7.872-11.472 7.872-.219 2.907-3.167 3.904-3.167 3.904l-8.804-12.149s3.138-1.481 3.993-4.999c0 0 2.025-7.329 9.659-5.832 0 0 8.201 2.735 10.644-7.392 0 0 1.259-7.504 10.348-5.557 0 0 7.513.849 9.184-7.657 0 0 .909-7.188 9.983-5.892-.001 0 4.481-.098 5.182-1.74z"/><circle fill="#fff" cx="-149.449" cy="162.332" r="5.313"/><circle fill="#fff" cx="80.419" cy="198.902" r="5.313"/><circle fill="#fff" cx="131.898" cy="295.714" r="5.313"/><circle fill="#fff" cx="47.481" cy="350.39" r="5.313"/><circle fill="#fff" cx="176.665" cy="400.829" r="5.313"/><circle fill="#fff" cx="28.255" cy="462.042" r="5.313"/><path stroke="#F9F9F9" stroke-width="3.281" stroke-miterlimit="10" fill="none" d="M169.353 327.404l20.244 6.707-4.447-20.483zM86.812 419.92l20.244 6.706-4.447-20.482zM105.604 233.968l20.243 6.707-4.447-20.483z"/><path stroke="#F9F9F9" stroke-width="2.371" stroke-miterlimit="10" fill="none" d="M29.884 409.353l-13.985-4.633 3.935-11.877 13.985 4.633z"/><circle fill="#fff" cx="250.684" cy="313.628" r="5.313"/><path stroke="#F9F9F9" stroke-width="2.371" stroke-miterlimit="10" fill="none" d="M310.314 268.416l-5.382 13.714-11.646-4.57 5.382-13.714zM179.861 199.642l-5.382 13.714-11.646-4.57 5.382-13.714z"/><path fill="#F9F9F9" d="M370.936 263.329c-6.895 3.464-13.791 6.928-20.686 10.393-3.06 1.537-.371 6.116 2.679 4.584 6.895-3.464 13.791-6.928 20.686-10.393 3.06-1.537.371-6.117-2.679-4.584zM248.373 186.099c-6.895 3.464-13.791 6.928-20.686 10.393-3.06 1.537-.371 6.116 2.679 4.584 6.895-3.464 13.791-6.928 20.686-10.393 3.06-1.537.371-6.116-2.679-4.584zM117.417 369.378l-22.215-6.512c-3.293-.965-4.689 4.158-1.411 5.119l22.215 6.512c3.292.966 4.689-4.158 1.411-5.119zM173.178 473.141l11.557-20.058c1.712-2.972-2.876-5.644-4.584-2.679l-11.557 20.058c-1.712 2.971 2.876 5.644 4.584 2.679z"/><path stroke="#F9F9F9" stroke-width="3.281" stroke-miterlimit="10" fill="none" d="M24.114 149.601h-21.326l10.663 18.045z"/><path fill="#F9F9F9" d="M39.745 229.18c-7.66-.934-15.32-1.868-22.98-2.801-3.393-.414-3.353 4.9 0 5.309 7.66.934 15.32 1.868 22.98 2.801 3.393.413 3.353-4.901 0-5.309zM117.093 154.92c-7.66-.934-15.32-1.868-22.98-2.801-3.393-.414-3.353 4.9 0 5.309 7.66.934 15.32 1.868 22.98 2.801 3.394.414 3.354-4.9 0-5.309zM181.352 257.284l-16.248-16.49c-2.406-2.441-6.158 1.314-3.754 3.754l16.248 16.49c2.406 2.441 6.158-1.314 3.754-3.754zM343.382 170.61l8.507 11.577c-2.973 2.066-6.937 1.16-6.937 1.16-8.405-.951-9.306 8.083-9.306 8.083-1.299 7.045-7.377 5.641-7.377 5.641-12.033-2.791-12.875 8.212-12.875 8.212-1.588 6.61-7.562 4.769-7.562 4.769-10.705-2.66-11.472 7.872-11.472 7.872-.219 2.907-3.167 3.904-3.167 3.904l-8.804-12.149s3.138-1.481 3.993-4.999c0 0 2.025-7.329 9.659-5.832 0 0 8.201 2.735 10.644-7.392 0 0 1.259-7.504 10.348-5.557 0 0 7.513.849 9.184-7.657 0 0 .909-7.188 9.983-5.892-.002 0 4.48-.098 5.182-1.74z"/><path fill="#010011" stroke="#fff" stroke-width="2.371" stroke-miterlimit="10" d="M349.813 175.321l8.507 11.577c-2.973 2.066-6.937 1.16-6.937 1.16-8.405-.951-9.306 8.083-9.306 8.083-1.299 7.045-7.377 5.641-7.377 5.641-12.033-2.791-12.875 8.212-12.875 8.212-1.588 6.61-7.562 4.769-7.562 4.769-10.705-2.66-11.472 7.872-11.472 7.872-.219 2.907-3.167 3.904-3.167 3.904l-8.804-12.149s3.138-1.481 3.993-4.999c0 0 2.025-7.329 9.659-5.832 0 0 8.201 2.735 10.644-7.392 0 0 1.259-7.504 10.348-5.557 0 0 7.513.849 9.184-7.657 0 0 .909-7.188 9.983-5.892-.001 0 4.48-.098 5.182-1.74z"/><path fill="#F9F9F9" d="M697.518 169.409l8.507 11.577c-2.973 2.066-6.937 1.16-6.937 1.16-8.405-.951-9.306 8.083-9.306 8.083-1.299 7.045-7.377 5.641-7.377 5.641-12.033-2.791-12.875 8.212-12.875 8.212-1.588 6.61-7.562 4.769-7.562 4.769-10.705-2.66-11.472 7.872-11.472 7.872-.219 2.907-3.167 3.904-3.167 3.904l-8.804-12.149s3.138-1.481 3.993-4.999c0 0 2.025-7.329 9.659-5.832 0 0 8.201 2.735 10.644-7.392 0 0 1.259-7.504 10.348-5.557 0 0 7.513.849 9.184-7.657 0 0 .909-7.188 9.983-5.892-.001 0 4.48-.097 5.182-1.74z"/><path fill="#010011" stroke="#fff" stroke-width="2.371" stroke-miterlimit="10" d="M703.949 174.12l8.507 11.577c-2.973 2.066-6.937 1.16-6.937 1.16-8.405-.951-9.306 8.083-9.306 8.083-1.299 7.045-7.377 5.641-7.377 5.641-12.033-2.791-12.875 8.212-12.875 8.212-1.588 6.61-7.562 4.769-7.562 4.769-10.705-2.66-11.472 7.872-11.472 7.872-.219 2.907-3.167 3.904-3.167 3.904l-8.804-12.149s3.138-1.481 3.993-4.999c0 0 2.025-7.329 9.659-5.832 0 0 8.201 2.735 10.644-7.392 0 0 1.259-7.504 10.348-5.557 0 0 7.513.849 9.184-7.657 0 0 .909-7.188 9.983-5.892-.001 0 4.481-.098 5.182-1.74z"/><circle fill="#fff" cx="302.713" cy="439.85" r="5.313"/><circle fill="#fff" cx="373.402" cy="518.557" r="5.313"/><circle fill="#fff" cx="486.827" cy="462.042" r="5.313"/><path stroke="#F9F9F9" stroke-width="3.281" stroke-miterlimit="10" fill="none" d="M512.011 497.109l20.244 6.706-4.447-20.483zM643.129 535.106l20.244 6.707-4.447-20.483zM222.584 244.209l20.244 6.707-4.447-20.483z"/><path stroke="#F9F9F9" stroke-width="2.371" stroke-miterlimit="10" fill="none" d="M289.542 344.754l20.244 6.706-4.447-20.483zM267.674 478.744l20.244 6.707-4.447-20.483zM386.62 459.976l-13.985-4.633 3.935-11.877 13.985 4.633z"/><path fill="#F9F9F9" d="M446.152 492.32c-7.66-.934-15.32-1.868-22.98-2.801-3.393-.414-3.353 4.9 0 5.309 7.66.934 15.32 1.868 22.98 2.801 3.394.414 3.354-4.9 0-5.309z"/><circle fill="#fff" cx="227.555" cy="457.954" r="5.313"/><circle fill="#fff" cx="351.529" cy="319.168" r="5.313"/><circle fill="#fff" cx="192.337" cy="167.646" r="5.313"/><circle fill="#fff" cx="267.44" cy="98.148" r="5.313"/><circle fill="#fff" cx="145.177" cy="103.462" r="5.313"/><circle fill="#fff" cx="16.765" cy="73.272" r="5.313"/><circle fill="#fff" cx="94.114" cy="30.622" r="5.313"/><path stroke="#F9F9F9" stroke-width="2.371" stroke-miterlimit="10" fill="none" d="M286.468 396.441l-12.771 7.342-6.235-10.846 12.771-7.342z"/><path fill="#F9F9F9" d="M347.115 369.565l-17.398 15.272c-2.578 2.263 1.192 6.002 3.754 3.754l17.398-15.272c2.578-2.263-1.192-6.003-3.754-3.754zM587.76 520.425l-16.248-16.49c-2.406-2.441-6.158 1.314-3.754 3.754l16.248 16.49c2.405 2.441 6.157-1.315 3.754-3.754zM242.707 365.002l-16.248-16.49c-2.406-2.441-6.158 1.314-3.754 3.754l16.248 16.49c2.406 2.442 6.158-1.314 3.754-3.754z"/><circle fill="#fff" cx="1371.659" cy="358.644" r="5.313"/><circle fill="#fff" cx="1045.913" cy="309.619" r="5.313"/><path stroke="#F9F9F9" stroke-width="2.371" stroke-miterlimit="10" fill="none" d="M1312.115 443.978l-11.638 9.032-7.67-9.884 11.638-9.032z"/><circle fill="#fff" cx="1123.694" cy="335.73" r="5.313"/><path stroke="#F9F9F9" stroke-width="3.281" stroke-miterlimit="10" fill="none" d="M1193.029 288.795l-20.105 7.112 16.071 13.456zM1222.099 74.538l-20.105 7.113 16.07 13.456z"/><path stroke="#F9F9F9" stroke-width="2.371" stroke-miterlimit="10" fill="none" d="M1097.699 377.727l13.889-4.913 4.172 11.795-13.889 4.913z"/><path fill="#F9F9F9" d="M1177.573 357.186c7.181-2.825 14.362-5.65 21.543-8.474 3.148-1.238 1.778-6.374-1.411-5.119-7.181 2.825-14.362 5.65-21.543 8.474-3.148 1.239-1.778 6.374 1.411 5.119zM1108.889 280.348l-20.933 9.885c-3.094 1.461-.398 6.037 2.679 4.584l20.933-9.885c3.095-1.461.399-6.037-2.679-4.584zM-168.516 473.506l17.19 15.505c2.535 2.286 6.301-1.456 3.754-3.754l-17.19-15.505c-2.535-2.286-6.301 1.457-3.754 3.754z"/><circle fill="#fff" cx="-161.9" cy="420.12" r="5.313"/><circle fill="#fff" cx="-152.73" cy="288.837" r="5.313"/><path stroke="#F9F9F9" stroke-width="2.371" stroke-miterlimit="10" fill="none" d="M-158.774 342.146l13.985 4.633-3.935 11.877-13.985-4.633z"/><path fill="#F9F9F9" d="M656.049 375.743l8.507 11.577c-2.973 2.066-6.937 1.16-6.937 1.16-8.405-.951-9.306 8.083-9.306 8.083-1.299 7.045-7.377 5.641-7.377 5.641-12.033-2.791-12.875 8.212-12.875 8.212-1.588 6.61-7.562 4.769-7.562 4.769-10.705-2.66-11.472 7.872-11.472 7.872-.219 2.907-3.167 3.904-3.167 3.904l-8.804-12.149s3.138-1.481 3.993-4.999c0 0 2.025-7.329 9.659-5.832 0 0 8.201 2.735 10.644-7.392 0 0 1.259-7.504 10.348-5.557 0 0 7.513.849 9.184-7.657 0 0 .909-7.188 9.983-5.892-.001-.001 4.481-.098 5.182-1.74z"/><path fill="#010011" stroke="#fff" stroke-width="2.371" stroke-miterlimit="10" d="M662.48 380.454l8.507 11.577c-2.973 2.066-6.937 1.16-6.937 1.16-8.405-.951-9.306 8.083-9.306 8.083-1.299 7.045-7.377 5.641-7.377 5.641-12.033-2.791-12.875 8.212-12.875 8.212-1.588 6.61-7.562 4.769-7.562 4.769-10.705-2.66-11.472 7.872-11.472 7.872-.219 2.907-3.167 3.904-3.167 3.904l-8.804-12.149s3.138-1.481 3.993-4.999c0 0 2.025-7.329 9.659-5.832 0 0 8.201 2.735 10.644-7.392 0 0 1.259-7.504 10.348-5.557 0 0 7.513.849 9.184-7.657 0 0 .909-7.188 9.983-5.892-.001-.001 4.481-.098 5.182-1.74z"/><circle fill="#fff" cx="549.893" cy="434.658" r="5.313"/><circle fill="#fff" cx="507.113" cy="317.604" r="5.313"/><circle fill="#fff" cx="428.713" cy="265.621" r="5.313"/><circle fill="#fff" cx="522.133" cy="214.723" r="5.313"/><circle fill="#fff" cx="556.751" cy="358.169" r="5.313"/><circle fill="#fff" cx="670.176" cy="301.654" r="5.313"/><circle fill="#fff" cx="721.655" cy="398.467" r="5.313"/><circle fill="#fff" cx="695.36" cy="497.44" r="5.313"/><path stroke="#F9F9F9" stroke-width="3.281" stroke-miterlimit="10" fill="none" d="M759.11 430.157l20.244 6.706-4.447-20.482zM695.36 336.721l20.244 6.706-4.447-20.482z"/><path stroke="#F9F9F9" stroke-width="2.371" stroke-miterlimit="10" fill="none" d="M471.085 399.572l20.244 6.707-4.447-20.483zM642.244 491.217l-13.985-4.633 3.935-11.877 13.985 4.633zM503.162 269.615l-13.985-4.633 3.935-11.877 13.985 4.633zM590.887 214.507l-13.985-4.633 3.935-11.877 13.985 4.633z"/><circle fill="#fff" cx="840.441" cy="416.381" r="5.313"/><circle fill="#fff" cx="962.033" cy="324.933" r="5.313"/><path stroke="#F9F9F9" stroke-width="2.371" stroke-miterlimit="10" fill="none" d="M900.062 371.171l-5.382 13.714-11.646-4.57 5.382-13.714zM1025.933 330.016l-5.382 13.714-11.646-4.57 5.382-13.714zM1113.572 495.743l-5.382 13.714-11.646-4.57 5.382-13.714zM769.61 302.397l-5.382 13.714-11.646-4.57 5.382-13.714z"/><path fill="#F9F9F9" d="M960.693 366.081c-6.895 3.464-13.791 6.928-20.686 10.393-3.06 1.537-.371 6.116 2.679 4.584 6.895-3.464 13.791-6.928 20.686-10.393 3.06-1.537.371-6.116-2.679-4.584zM838.13 288.852c-6.895 3.464-13.791 6.928-20.686 10.393-3.06 1.537-.371 6.116 2.679 4.584 6.895-3.464 13.791-6.928 20.686-10.393 3.06-1.537.371-6.117-2.679-4.584zM1000.014 269.337l-7.108 22.031c-1.054 3.267 4.073 4.655 5.119 1.411l7.108-22.032c1.054-3.266-4.073-4.654-5.119-1.41zM718.281 454.909l-22.215-6.512c-3.293-.965-4.689 4.158-1.411 5.119l22.215 6.512c3.293.966 4.689-4.158 1.411-5.119z"/><path stroke="#F9F9F9" stroke-width="3.281" stroke-miterlimit="10" fill="none" d="M613.87 252.353h-21.326l10.663 18.045zM464.551 205.829h-21.325l10.662 18.045z"/><path fill="#F9F9F9" d="M542.411 270.295l11.557-20.058c1.712-2.972-2.876-5.644-4.584-2.679l-11.557 20.058c-1.712 2.972 2.876 5.644 4.584 2.679zM403.488 204.927c-3.831-6.698-7.663-13.396-11.494-20.095-1.699-2.97-6.287-.297-4.584 2.679 3.831 6.698 7.663 13.396 11.494 20.095 1.699 2.971 6.286.297 4.584-2.679zM446.754 336.911l-22.884 3.496c-3.375.516-1.936 5.631 1.411 5.119l22.884-3.496c3.376-.515 1.937-5.63-1.411-5.119zM629.501 331.932c-7.66-.934-15.32-1.868-22.98-2.801-3.393-.414-3.353 4.9 0 5.309 7.66.934 15.32 1.868 22.98 2.801 3.394.414 3.354-4.9 0-5.309zM706.85 257.673c-7.66-.934-15.32-1.868-22.98-2.801-3.393-.414-3.353 4.9 0 5.309 7.66.934 15.32 1.868 22.98 2.801 3.393.413 3.353-4.9 0-5.309z"/><circle fill="#fff" cx="747.849" cy="531.571" r="5.313"/><path stroke="#F9F9F9" stroke-width="2.371" stroke-miterlimit="10" fill="none" d="M761.536 494.155l-13.985-4.633 3.935-11.877 13.985 4.633z"/><path stroke="#F9F9F9" stroke-width="3.281" stroke-miterlimit="10" fill="none" d="M829.447 524.935h-21.326l10.663 18.045z"/><path fill="#F9F9F9" d="M1303.8 497.641c-7.66-.934-15.32-1.868-22.98-2.801-3.393-.414-3.353 4.9 0 5.309 7.66.934 15.32 1.868 22.98 2.801 3.394.414 3.354-4.9 0-5.309zM771.109 360.037l-16.248-16.49c-2.406-2.441-6.158 1.314-3.754 3.754l16.248 16.49c2.405 2.441 6.157-1.315 3.754-3.754zM934.352 258.172l11.513 8.595c-2.242 2.843-6.297 3.132-6.297 3.132-8.317 1.541-6.545 10.445-6.545 10.445.811 7.118-5.412 7.547-5.412 7.547-12.324.839-9.922 11.608-9.922 11.608.408 6.786-5.843 6.766-5.843 6.766-11.016.577-8.679 10.874-8.679 10.874.638 2.844-1.891 4.658-1.891 4.658l-11.963-9.055s2.57-2.331 2.362-5.946c0 0-.2-7.601 7.539-8.394 0 0 8.642.226 8.026-10.174 0 0-.983-7.545 8.278-8.333 0 0 7.434-1.379 6.552-10.002 0 0-1.226-7.141 7.832-8.547-.001.001 4.258-1.399 4.45-3.174z"/><path fill="#010011" stroke="#fff" stroke-width="2.371" stroke-miterlimit="10" d="M941.877 260.803l11.513 8.595c-2.242 2.843-6.297 3.132-6.297 3.132-8.317 1.541-6.545 10.445-6.545 10.445.811 7.118-5.412 7.547-5.412 7.547-12.324.839-9.922 11.608-9.922 11.608.408 6.786-5.843 6.766-5.843 6.766-11.016.577-8.679 10.874-8.679 10.874.638 2.844-1.891 4.658-1.891 4.658l-11.963-9.055s2.57-2.331 2.362-5.946c0 0-.2-7.601 7.539-8.394 0 0 8.642.226 8.026-10.174 0 0-.983-7.545 8.278-8.333 0 0 7.434-1.379 6.552-10.002 0 0-1.226-7.141 7.832-8.547 0 .001 4.258-1.399 4.45-3.174z"/><path fill="#F9F9F9" d="M1039.461 428.764l8.507 11.578c-2.973 2.066-6.937 1.16-6.937 1.16-8.405-.951-9.306 8.083-9.306 8.083-1.299 7.045-7.377 5.641-7.377 5.641-12.033-2.791-12.875 8.212-12.875 8.212-1.588 6.61-7.562 4.769-7.562 4.769-10.705-2.66-11.472 7.872-11.472 7.872-.219 2.907-3.167 3.904-3.167 3.904l-8.804-12.149s3.138-1.481 3.993-4.999c0 0 2.025-7.329 9.659-5.832 0 0 8.201 2.735 10.644-7.392 0 0 1.259-7.504 10.348-5.557 0 0 7.513.849 9.184-7.657 0 0 .909-7.188 9.983-5.892-.001-.002 4.481-.099 5.182-1.741z"/><path fill="#010011" stroke="#fff" stroke-width="2.371" stroke-miterlimit="10" d="M1045.892 433.475l8.507 11.577c-2.973 2.066-6.937 1.16-6.937 1.16-8.405-.951-9.306 8.083-9.306 8.083-1.299 7.045-7.377 5.641-7.377 5.641-12.033-2.791-12.875 8.212-12.875 8.212-1.588 6.61-7.562 4.769-7.562 4.769-10.705-2.66-11.472 7.871-11.472 7.871-.219 2.907-3.167 3.904-3.167 3.904l-8.804-12.149s3.138-1.481 3.993-4.999c0 0 2.025-7.329 9.659-5.832 0 0 8.201 2.735 10.644-7.392 0 0 1.259-7.504 10.348-5.557 0 0 7.513.849 9.184-7.657 0 0 .909-7.188 9.983-5.892-.001 0 4.481-.097 5.182-1.739z"/><path stroke="#F9F9F9" stroke-width="3.281" stroke-miterlimit="10" fill="none" d="M812.341 346.962l20.244 6.707-4.447-20.483z"/><path stroke="#F9F9F9" stroke-width="2.371" stroke-miterlimit="10" fill="none" d="M879.298 447.506l20.244 6.707-4.447-20.483zM1004.096 396.687l20.244 6.707-4.447-20.483z"/><circle fill="#fff" cx="941.285" cy="421.921" r="5.313"/><circle fill="#fff" cx="1069.099" cy="388.561" r="5.313"/><circle fill="#fff" cx="1118.379" cy="453.997" r="5.313"/><circle fill="#fff" cx="1263.828" cy="459.311" r="5.313"/><path stroke="#F9F9F9" stroke-width="2.371" stroke-miterlimit="10" fill="none" d="M1186.034 441.292l13.889-4.913 4.172 11.795-13.889 4.913z"/><path fill="#F9F9F9" d="M1249.024 403.93l-20.933 9.885c-3.094 1.461-.398 6.037 2.679 4.584l20.933-9.885c3.094-1.461.398-6.037-2.679-4.584zM1140.148 392.919l-7.108 22.032c-1.054 3.267 4.073 4.655 5.119 1.411l7.108-22.032c1.055-3.268-4.072-4.656-5.119-1.411z"/><path stroke="#F9F9F9" stroke-width="2.371" stroke-miterlimit="10" fill="none" d="M1148.763 519.215l20.244 6.707-4.447-20.483zM750.026 219.147l-5.382 13.714-11.646-4.57 5.382-13.714zM792.097 244.209l20.244 6.707-4.447-20.483z"/><circle fill="#fff" cx="1226.358" cy="507.398" r="5.313"/><circle fill="#fff" cx="975.074" cy="524.935" r="5.313"/><circle fill="#fff" cx="782.093" cy="270.398" r="5.313"/><circle fill="#fff" cx="866.7" cy="261.376" r="5.313"/><circle fill="#fff" cx="1077.788" cy="226.766" r="5.313"/><path stroke="#F9F9F9" stroke-width="2.371" stroke-miterlimit="10" fill="none" d="M910.759 194.724l-13.985-4.633 3.935-11.877 13.985 4.633zM1177.217 227.51l-5.382 13.714-11.646-4.57 5.382-13.714zM1151.044 127.227l-5.382 13.714-11.646-4.57 5.382-13.714z"/><path stroke="#F9F9F9" stroke-width="3.281" stroke-miterlimit="10" fill="none" d="M1021.483 177.465h-21.326l10.663 18.045z"/><path fill="#F9F9F9" d="M950.023 195.407l11.557-20.058c1.712-2.972-2.876-5.644-4.584-2.679l-11.557 20.058c-1.712 2.971 2.876 5.643 4.584 2.679zM1114.463 182.784c-7.66-.934-15.32-1.868-22.98-2.801-3.393-.414-3.353 4.9 0 5.309 7.66.934 15.32 1.868 22.98 2.801 3.393.414 3.353-4.9 0-5.309z"/><circle fill="#fff" cx="1176.472" cy="180.75" r="5.313"/><path stroke="#F9F9F9" stroke-width="3.281" stroke-miterlimit="10" fill="none" d="M1344.422 478.744l20.244 6.707-4.447-20.483z"/><path stroke="#F9F9F9" stroke-width="2.371" stroke-miterlimit="10" fill="none" d="M1418.662 444.42l-5.382 13.714-11.646-4.57 5.382-13.714z"/><path fill="#F9F9F9" d="M1355.912 399.696c-7.66-.934-15.32-1.868-22.98-2.801-3.393-.414-3.353 4.9 0 5.309 7.66.934 15.32 1.868 22.98 2.801 3.393.413 3.353-4.9 0-5.309zM1420.171 502.06l-16.248-16.49c-2.406-2.441-6.158 1.314-3.754 3.754l16.248 16.49c2.405 2.441 6.157-1.314 3.754-3.754z"/><path stroke="#F9F9F9" stroke-width="2.371" stroke-miterlimit="10" fill="none" d="M876.244 499.177l-12.771 7.342-6.235-10.846 12.771-7.342z"/><path fill="#F9F9F9" d="M936.872 472.317l-17.398 15.272c-2.578 2.263 1.192 6.002 3.754 3.754l17.398-15.272c2.577-2.262-1.193-6.002-3.754-3.754zM1054.572 494.314l-23.13.943c-3.411.139-3.425 5.448 0 5.309l23.13-.943c3.411-.139 3.424-5.449 0-5.309zM832.464 467.755l-16.248-16.49c-2.406-2.441-6.158 1.314-3.754 3.754l16.248 16.49c2.405 2.441 6.157-1.314 3.754-3.754z"/><circle fill="#fff" cx="1238.34" cy="179.46" r="5.313"/><circle fill="#fff" cx="1266.424" cy="102.373" r="5.313"/><path stroke="#F9F9F9" stroke-width="3.281" stroke-miterlimit="10" fill="none" d="M1275.795 211.15l20.244 6.707-4.447-20.483z"/><circle fill="#fff" cx="1357.127" cy="197.374" r="5.313"/><path fill="#F9F9F9" d="M1234.967 235.903l-22.215-6.512c-3.293-.965-4.689 4.158-1.411 5.119l22.215 6.512c3.292.965 4.689-4.159 1.411-5.119zM1020.733 232.776l-22.215-6.512c-3.293-.965-4.689 4.158-1.411 5.119l22.215 6.512c3.293.966 4.689-4.158 1.411-5.119zM911.355 231.13l-22.215-6.512c-3.293-.965-4.689 4.158-1.411 5.119l22.215 6.512c3.293.965 4.689-4.158 1.411-5.119zM814.032 192.757l-22.215-6.512c-3.293-.965-4.689 4.158-1.411 5.119l22.215 6.512c3.293.966 4.689-4.158 1.411-5.119z"/><circle fill="#fff" cx="1264.535" cy="312.564" r="5.313"/><path stroke="#F9F9F9" stroke-width="2.371" stroke-miterlimit="10" fill="none" d="M1278.2 275.151l-13.985-4.633 3.935-11.877 13.985 4.633zM1225.543 149.172l-13.985-4.633 3.935-11.877 13.985 4.633zM1281.345 379.668l-13.985-4.633 3.935-11.877 13.985 4.633z"/><path stroke="#F9F9F9" stroke-width="3.281" stroke-miterlimit="10" fill="none" d="M1346.132 305.928h-21.325l10.662 18.045zM1415.725 329.871h-21.326l10.663 18.045z"/><path stroke="#F9F9F9" stroke-width="2.371" stroke-miterlimit="10" fill="none" d="M1395.984 228.499l20.244 6.707-4.447-20.483zM1397.147 154.44l20.243 6.707-4.447-20.483zM1392.937 280.148l-12.771 7.342-6.235-10.846 12.771-7.342z"/><path fill="#F9F9F9" d="M1349.149 248.748l-16.248-16.49c-2.406-2.441-6.158 1.314-3.754 3.754l16.248 16.49c2.406 2.441 6.158-1.314 3.754-3.754zM94.376 67.829l8.507 11.577c-2.973 2.066-6.937 1.16-6.937 1.16-8.405-.951-9.306 8.083-9.306 8.083-1.299 7.045-7.377 5.641-7.377 5.641-12.033-2.791-12.875 8.212-12.875 8.212-1.588 6.61-7.562 4.769-7.562 4.769-10.705-2.66-11.472 7.872-11.472 7.872-.219 2.907-3.167 3.904-3.167 3.904l-8.804-12.149s3.138-1.481 3.993-4.999c0 0 2.025-7.329 9.659-5.832 0 0 8.201 2.735 10.644-7.392 0 0 1.259-7.504 10.348-5.557 0 0 7.513.849 9.184-7.657 0 0 .909-7.188 9.983-5.892-.001-.001 4.481-.098 5.182-1.74z"/><path fill="#010011" stroke="#fff" stroke-width="2.371" stroke-miterlimit="10" d="M100.807 72.54l8.507 11.577c-2.973 2.066-6.937 1.16-6.937 1.16-8.405-.951-9.306 8.083-9.306 8.083-1.299 7.045-7.377 5.641-7.377 5.641-12.033-2.791-12.875 8.212-12.875 8.212-1.588 6.61-7.562 4.769-7.562 4.769-10.705-2.66-11.472 7.872-11.472 7.872-.219 2.907-3.167 3.904-3.167 3.904l-8.804-12.149s3.138-1.481 3.993-4.999c0 0 2.025-7.329 9.659-5.832 0 0 8.201 2.735 10.644-7.392 0 0 1.259-7.504 10.348-5.557 0 0 7.513.849 9.184-7.657 0 0 .909-7.188 9.983-5.892-.001-.001 4.481-.098 5.182-1.74z"/><circle fill="#fff" cx="108.503" cy="-6.26" r="5.313"/><path stroke="#F9F9F9" stroke-width="3.281" stroke-miterlimit="10" fill="none" d="M133.687 28.806l20.244 6.707-4.447-20.483z"/><path stroke="#F9F9F9" stroke-width="2.371" stroke-miterlimit="10" fill="none" d="M338.399 63.257l-5.382 13.714-11.646-4.57 5.382-13.714zM213.98 97.8l-5.382 13.714-11.646-4.57 5.382-13.714zM207.945-5.517l-5.382 13.714-11.646-4.57 5.382-13.714z"/><path fill="#F9F9F9" d="M399.019 58.167c-6.895 3.464-13.791 6.928-20.686 10.393-3.06 1.537-.371 6.116 2.679 4.584 6.895-3.464 13.791-6.928 20.686-10.393 3.061-1.537.372-6.116-2.679-4.584zM314.235 131.35l-23.044-2.21c-3.408-.327-3.376 4.985 0 5.309l23.044 2.21c3.408.326 3.376-4.986 0-5.309zM276.456-19.062c-6.895 3.464-13.791 6.928-20.686 10.393-3.06 1.537-.371 6.116 2.679 4.584 6.895-3.464 13.791-6.928 20.686-10.393 3.06-1.538.372-6.117-2.679-4.584zM44.727 35.98l-18.07-14.47c-2.644-2.117-6.426 1.614-3.754 3.754l18.07 14.47c2.644 2.117 6.427-1.614 3.754-3.754z"/><circle fill="#fff" cx="444.925" cy="166.855" r="5.313"/><circle fill="#fff" cx="378.119" cy="114.336" r="5.313"/><circle fill="#fff" cx="607.987" cy="150.905" r="5.313"/><path stroke="#F9F9F9" stroke-width="2.371" stroke-miterlimit="10" fill="none" d="M440.975 118.872l-13.985-4.633 3.935-11.877 13.985 4.633zM721.574 119.187l-5.382 13.714-11.646-4.57 5.382-13.714z"/><path stroke="#F9F9F9" stroke-width="3.281" stroke-miterlimit="10" fill="none" d="M551.682 101.604h-21.326l10.663 18.045z"/><path fill="#F9F9F9" d="M480.222 119.547l11.557-20.058c1.712-2.972-2.876-5.644-4.584-2.679l-11.557 20.058c-1.712 2.971 2.876 5.643 4.584 2.679zM644.662 106.924c-7.66-.934-15.32-1.868-22.98-2.801-3.393-.414-3.353 4.9 0 5.309 7.66.934 15.32 1.868 22.98 2.801 3.393.413 3.353-4.9 0-5.309zM537.727 164.949c-7.66-.934-15.32-1.868-22.98-2.801-3.393-.414-3.353 4.9 0 5.309 7.66.934 15.32 1.868 22.98 2.801 3.393.414 3.353-4.9 0-5.309zM209.435 52.122l-16.248-16.49c-2.406-2.441-6.158 1.314-3.754 3.754l16.248 16.49c2.406 2.442 6.158-1.314 3.754-3.754zM371.465-34.551l8.507 11.577c-2.973 2.066-6.937 1.16-6.937 1.16-8.405-.951-9.306 8.083-9.306 8.083-1.299 7.045-7.377 5.641-7.377 5.641-12.033-2.791-12.875 8.212-12.875 8.212-1.588 6.61-7.562 4.769-7.562 4.769-10.705-2.66-11.472 7.872-11.472 7.872-.219 2.907-3.167 3.904-3.167 3.904l-8.804-12.149s3.138-1.481 3.993-4.999c0 0 2.025-7.329 9.659-5.832 0 0 8.201 2.735 10.644-7.392 0 0 1.259-7.504 10.348-5.557 0 0 7.513.849 9.184-7.657 0 0 .909-7.188 9.983-5.892-.001-.001 4.481-.098 5.182-1.74z"/><path fill="#010011" stroke="#fff" stroke-width="2.371" stroke-miterlimit="10" d="M377.896-29.84l8.507 11.577c-2.973 2.066-6.937 1.16-6.937 1.16-8.405-.951-9.306 8.083-9.306 8.083-1.299 7.045-7.377 5.641-7.377 5.641-12.033-2.791-12.875 8.212-12.875 8.212-1.588 6.61-7.562 4.769-7.562 4.769-10.705-2.66-11.472 7.872-11.472 7.872-.219 2.907-3.167 3.904-3.167 3.904l-8.804-12.149s3.138-1.481 3.993-4.999c0 0 2.025-7.329 9.659-5.832 0 0 8.201 2.735 10.644-7.392 0 0 1.259-7.504 10.348-5.557 0 0 7.513.849 9.184-7.657 0 0 .909-7.188 9.983-5.892-.001-.001 4.481-.098 5.182-1.74z"/><path fill="#F9F9F9" d="M725.601-35.752l8.507 11.577c-2.973 2.066-6.937 1.16-6.937 1.16-8.405-.951-9.306 8.083-9.306 8.083-1.299 7.045-7.377 5.641-7.377 5.641-12.033-2.791-12.875 8.212-12.875 8.212-1.588 6.61-7.562 4.769-7.562 4.769-10.705-2.66-11.472 7.872-11.472 7.872-.219 2.907-3.167 3.904-3.167 3.904l-8.804-12.149s3.138-1.481 3.993-4.999c0 0 2.025-7.329 9.659-5.832 0 0 8.201 2.735 10.644-7.392 0 0 1.259-7.504 10.348-5.557 0 0 7.513.849 9.184-7.657 0 0 .909-7.188 9.983-5.892-.001-.001 4.481-.098 5.182-1.74z"/><path fill="#010011" stroke="#fff" stroke-width="2.371" stroke-miterlimit="10" d="M732.032-31.041l8.507 11.577c-2.973 2.066-6.937 1.16-6.937 1.16-8.405-.951-9.306 8.083-9.306 8.083-1.299 7.045-7.377 5.641-7.377 5.641-12.033-2.791-12.875 8.212-12.875 8.212-1.588 6.61-7.562 4.769-7.562 4.769-10.705-2.66-11.472 7.872-11.472 7.872-.219 2.907-3.167 3.904-3.167 3.904l-8.804-12.149s3.138-1.481 3.993-4.999c0 0 2.025-7.329 9.659-5.832 0 0 8.201 2.735 10.644-7.392 0 0 1.259-7.504 10.348-5.557 0 0 7.513.849 9.184-7.657 0 0 .909-7.188 9.983-5.892-.001-.001 4.481-.098 5.182-1.74z"/><path stroke="#F9F9F9" stroke-width="3.281" stroke-miterlimit="10" fill="none" d="M250.667 39.048l20.244 6.706-4.447-20.482z"/><circle fill="#fff" cx="456.797" cy="60.459" r="5.313"/><circle fill="#fff" cx="550.216" cy="9.562" r="5.313"/><path stroke="#F9F9F9" stroke-width="2.371" stroke-miterlimit="10" fill="none" d="M531.243 64.461l-13.985-4.633 3.935-11.877 13.985 4.633zM618.967 9.352l-13.985-4.633 3.935-11.877 13.985 4.633z"/><path fill="#F9F9F9" d="M1028.097 64.175l-7.108 22.032c-1.054 3.267 4.073 4.655 5.119 1.411l7.108-22.032c1.054-3.267-4.072-4.655-5.119-1.411z"/><path stroke="#F9F9F9" stroke-width="3.281" stroke-miterlimit="10" fill="none" d="M641.954 47.192h-21.326l10.663 18.045zM492.635.667h-21.326l10.663 18.045z"/><path fill="#F9F9F9" d="M570.494 65.134l11.557-20.058c1.712-2.972-2.876-5.644-4.584-2.679l-11.557 20.058c-1.712 2.971 2.876 5.643 4.584 2.679zM431.571-.235c-3.831-6.698-7.663-13.396-11.494-20.095-1.699-2.97-6.287-.297-4.584 2.679 3.831 6.698 7.663 13.396 11.494 20.095 1.699 2.971 6.286.298 4.584-2.679zM734.933 52.511c-7.66-.934-15.32-1.868-22.98-2.801-3.393-.414-3.353 4.9 0 5.309 7.66.934 15.32 1.868 22.98 2.801 3.394.413 3.354-4.9 0-5.309zM962.436 53.01l11.513 8.595c-2.242 2.843-6.297 3.132-6.297 3.132-8.317 1.541-6.545 10.445-6.545 10.445.811 7.118-5.412 7.547-5.412 7.547-12.324.839-9.922 11.608-9.922 11.608.408 6.786-5.843 6.766-5.843 6.766-11.016.577-8.679 10.874-8.679 10.874.638 2.844-1.891 4.658-1.891 4.658l-11.963-9.055s2.57-2.331 2.362-5.946c0 0-.2-7.601 7.539-8.394 0 0 8.642.226 8.026-10.174 0 0-.983-7.545 8.278-8.333 0 0 7.434-1.379 6.552-10.002 0 0-1.226-7.141 7.832-8.547-.001.001 4.258-1.399 4.45-3.174z"/><path fill="#010011" stroke="#fff" stroke-width="2.371" stroke-miterlimit="10" d="M969.961 55.642l11.513 8.595c-2.242 2.843-6.297 3.132-6.297 3.132-8.317 1.541-6.545 10.445-6.545 10.445.811 7.118-5.412 7.547-5.412 7.547-12.324.839-9.922 11.608-9.922 11.608.408 6.786-5.843 6.766-5.843 6.766-11.016.577-8.679 10.874-8.679 10.874.638 2.844-1.891 4.658-1.891 4.658l-11.963-9.055s2.57-2.331 2.362-5.946c0 0-.2-7.601 7.539-8.394 0 0 8.642.226 8.026-10.174 0 0-.983-7.545 8.278-8.333 0 0 7.434-1.379 6.552-10.002 0 0-1.226-7.141 7.832-8.547-.001 0 4.258-1.399 4.45-3.174z"/><path fill="#F9F9F9" d="M1351.011 113.101l7.662 12.153c-3.112 1.849-7.002.663-7.002.663-8.316-1.546-9.857 7.401-9.857 7.401-1.797 6.935-7.759 5.102-7.759 5.102-11.804-3.64-13.427 7.275-13.427 7.275-2.054 6.48-7.882 4.219-7.882 4.219-10.489-3.415-12.003 7.036-12.003 7.036-.425 2.884-3.437 3.669-3.437 3.669l-7.917-12.744s3.235-1.254 4.339-4.702c0 0 2.541-7.167 10.049-5.13 0 0 7.985 3.312 11.142-6.616 0 0 1.79-7.395 10.717-4.807 0 0 7.433 1.381 9.705-6.985 0 0 1.418-7.105 10.377-5.167-.001-.001 4.477.221 5.293-1.367z"/><path fill="#010011" stroke="#fff" stroke-width="2.371" stroke-miterlimit="10" d="M1357.091 118.257l7.662 12.153c-3.112 1.849-7.002.663-7.002.663-8.316-1.546-9.857 7.401-9.857 7.401-1.797 6.935-7.76 5.102-7.76 5.102-11.804-3.64-13.427 7.275-13.427 7.275-2.054 6.48-7.882 4.219-7.882 4.219-10.489-3.415-12.003 7.036-12.003 7.036-.425 2.884-3.437 3.669-3.437 3.669l-7.917-12.744s3.235-1.254 4.339-4.702c0 0 2.541-7.167 10.049-5.13 0 0 7.985 3.312 11.142-6.616 0 0 1.79-7.395 10.717-4.807 0 0 7.433 1.381 9.705-6.985 0 0 1.418-7.105 10.377-5.167 0-.001 4.478.221 5.294-1.367z"/><path stroke="#F9F9F9" stroke-width="2.371" stroke-miterlimit="10" fill="none" d="M778.11 13.988l-5.382 13.714-11.646-4.57 5.382-13.714zM1151.044-.319l-5.382 13.714-11.646-4.57 5.382-13.714zM831.288 34.157l20.243 6.706-4.447-20.482zM971.351 18.41l20.244 6.707-4.447-20.483zM766.658 135.329l20.244 6.707-4.447-20.483z"/><circle fill="#fff" cx="810.177" cy="65.237" r="5.313"/><circle fill="#fff" cx="833.97" cy="123.757" r="5.313"/><circle fill="#fff" cx="894.783" cy="56.214" r="5.313"/><circle fill="#fff" cx="1105.872" cy="21.604" r="5.313"/><circle fill="#fff" cx="1072.474" cy="131.794" r="5.313"/><path stroke="#F9F9F9" stroke-width="2.371" stroke-miterlimit="10" fill="none" d="M1015.807 140.033l-13.985-4.633 3.935-11.877 13.985 4.633zM1205.301 22.351l-5.382 13.714-11.646-4.57 5.382-13.714z"/><path stroke="#F9F9F9" stroke-width="3.281" stroke-miterlimit="10" fill="none" d="M1099.959 61.829h-21.326l10.663 18.045zM1303.879 5.988l20.244 6.707-4.447-20.483z"/><circle fill="#fff" cx="1385.21" cy="-7.788" r="5.313"/><circle fill="#fff" cx="1351.814" cy="79.874" r="5.313"/><path fill="#F9F9F9" d="M1263.05 30.741l-22.215-6.512c-3.293-.965-4.689 4.158-1.411 5.119l22.215 6.512c3.293.965 4.689-4.158 1.411-5.119zM1163.431 82.64c-1.062-7.643-2.124-15.286-3.185-22.93-.469-3.379-5.584-1.935-5.119 1.411 1.062 7.643 2.124 15.286 3.185 22.93.47 3.379 5.584 1.935 5.119-1.411zM1048.816 27.615l-22.215-6.512c-3.293-.965-4.689 4.158-1.411 5.119l22.215 6.512c3.293.965 4.689-4.158 1.411-5.119zM939.439 25.968l-22.215-6.512c-3.293-.965-4.689 4.158-1.411 5.119l22.215 6.512c3.292.966 4.689-4.158 1.411-5.119zM896.153 132.642c-3.617-6.816-7.235-13.632-10.852-20.449-1.605-3.025-6.188-.342-4.584 2.679 3.617 6.816 7.235 13.632 10.852 20.449 1.605 3.025 6.188.343 4.584-2.679zM842.115-12.404l-22.215-6.512c-3.293-.965-4.689 4.158-1.411 5.119l22.215 6.512c3.293.965 4.689-4.158 1.411-5.119z"/><path stroke="#F9F9F9" stroke-width="2.371" stroke-miterlimit="10" fill="none" d="M1306.279 69.997l-13.985-4.633 3.935-11.877 13.985 4.633zM1421.015 74.979l-12.771 7.342-6.235-10.846 12.771-7.342z"/><path fill="#F9F9F9" d="M1377.233 43.586l-16.248-16.49c-2.406-2.441-6.158 1.314-3.754 3.754l16.248 16.49c2.405 2.442 6.157-1.314 3.754-3.754z"/><circle fill="#fff" cx="412.069" cy="401.352" r="5.313"/><path fill="#F9F9F9" d="M1495.93 511.182l-5.463-11.944c3.045-1.297 6.425.251 6.425.251 7.347 2.413 9.832-5.506 9.832-5.506 2.472-6.065 7.651-3.679 7.651-3.679 10.253 4.734 13.051-4.958 13.051-4.958 2.65-5.621 7.655-2.863 7.655-2.863 9.088 4.37 11.732-4.914 11.732-4.914.736-2.561 3.561-2.906 3.561-2.906l5.623 12.511s-3.084.742-4.503 3.732c0 0-3.174 6.184-9.729 3.425 0 0-6.832-3.972-10.901 4.639 0 0-2.522 6.483-10.295 3.051 0 0-6.567-2.156-9.643 5.148 0 0-2.15 6.265-10.031 3.419-.002.001-4.032-.745-4.965.594z"/><path fill="#010011" stroke="#fff" stroke-width="2.371" stroke-miterlimit="10" d="M1491.049 505.77l-5.463-11.944c3.045-1.297 6.425.251 6.425.251 7.347 2.413 9.832-5.506 9.832-5.506 2.472-6.065 7.651-3.679 7.651-3.679 10.253 4.734 13.051-4.958 13.051-4.958 2.65-5.621 7.655-2.863 7.655-2.863 9.088 4.37 11.732-4.914 11.732-4.914.736-2.561 3.561-2.906 3.561-2.906l5.623 12.511s-3.084.742-4.503 3.732c0 0-3.174 6.184-9.729 3.425 0 0-6.832-3.972-10.901 4.639 0 0-2.522 6.483-10.295 3.051 0 0-6.567-2.156-9.643 5.148 0 0-2.15 6.265-10.031 3.419-.002.001-4.032-.745-4.965.594z"/><circle fill="#fff" cx="1831.8" cy="492.444" r="5.313"/><circle fill="#fff" cx="1748.605" cy="481.745" r="4.573"/><path stroke="#F9F9F9" stroke-width="2.371" stroke-miterlimit="10" fill="none" d="M1670.174 451.443h14.732v12.511h-14.732zM1490.773 429.864h14.732v12.511h-14.732z"/><path fill="#F9F9F9" d="M1669.033 247.337l8.507 11.577c-2.973 2.066-6.937 1.16-6.937 1.16-8.405-.951-9.306 8.083-9.306 8.083-1.299 7.045-7.377 5.641-7.377 5.641-12.033-2.791-12.875 8.212-12.875 8.212-1.588 6.61-7.562 4.769-7.562 4.769-10.705-2.66-11.472 7.872-11.472 7.872-.219 2.907-3.167 3.904-3.167 3.904l-8.804-12.149s3.138-1.481 3.993-4.999c0 0 2.025-7.329 9.659-5.832 0 0 8.201 2.735 10.644-7.392 0 0 1.259-7.504 10.348-5.557 0 0 7.513.849 9.184-7.657 0 0 .909-7.188 9.983-5.892-.001 0 4.481-.098 5.182-1.74z"/><path fill="#010011" stroke="#fff" stroke-width="2.371" stroke-miterlimit="10" d="M1675.464 252.048l8.507 11.577c-2.973 2.066-6.937 1.16-6.937 1.16-8.405-.951-9.306 8.083-9.306 8.083-1.299 7.045-7.377 5.641-7.377 5.641-12.033-2.791-12.875 8.212-12.875 8.212-1.588 6.61-7.562 4.769-7.562 4.769-10.705-2.66-11.472 7.872-11.472 7.872-.219 2.907-3.167 3.904-3.167 3.904l-8.804-12.149s3.138-1.481 3.993-4.999c0 0 2.025-7.329 9.659-5.832 0 0 8.201 2.735 10.644-7.392 0 0 1.26-7.504 10.348-5.557 0 0 7.513.849 9.184-7.657 0 0 .909-7.188 9.983-5.892-.001 0 4.481-.098 5.182-1.74z"/><circle fill="#fff" cx="1562.877" cy="306.253" r="5.313"/><circle fill="#fff" cx="1520.098" cy="189.198" r="5.313"/><circle fill="#fff" cx="1453.292" cy="136.679" r="5.313"/><circle fill="#fff" cx="1569.735" cy="229.764" r="5.313"/><circle fill="#fff" cx="1683.16" cy="173.249" r="5.313"/><circle fill="#fff" cx="1550.135" cy="390.732" r="5.313"/><circle fill="#fff" cx="1734.639" cy="270.061" r="5.313"/><circle fill="#fff" cx="1644.555" cy="417.836" r="5.313"/><circle fill="#fff" cx="1779.406" cy="375.176" r="5.313"/><path stroke="#F9F9F9" stroke-width="3.281" stroke-miterlimit="10" fill="none" d="M1772.094 301.751l20.244 6.707-4.447-20.483zM1569.735 436.398l20.244 6.707-4.447-20.483zM1689.553 394.267l20.244 6.706-4.447-20.482zM1708.344 208.315l20.244 6.707-4.447-20.483z"/><path stroke="#F9F9F9" stroke-width="2.371" stroke-miterlimit="10" fill="none" d="M1498.139 258.94l20.244 6.707-4.447-20.483zM1632.563 383.684l-13.985-4.633 3.935-11.877 13.985 4.633zM1516.106 141.203l-13.985-4.633 3.935-11.877 13.985 4.633zM1440.499 34.949l-13.985-4.633 3.935-11.877 13.985 4.633z"/><circle fill="#fff" cx="1853.425" cy="287.975" r="5.313"/><path stroke="#F9F9F9" stroke-width="2.371" stroke-miterlimit="10" fill="none" d="M1913.034 242.772l-5.382 13.714-11.646-4.57 5.382-13.714zM1782.581 173.997l-5.382 13.714-11.646-4.57 5.382-13.714z"/><path fill="#F9F9F9" d="M1973.677 237.676c-6.895 3.464-13.791 6.928-20.686 10.393-3.06 1.537-.371 6.116 2.679 4.584 6.895-3.464 13.791-6.928 20.686-10.393 3.06-1.537.371-6.116-2.679-4.584zM1851.114 160.446c-6.895 3.464-13.791 6.928-20.686 10.393-3.06 1.537-.371 6.116 2.679 4.584 6.895-3.464 13.791-6.928 20.686-10.393 3.06-1.537.371-6.116-2.679-4.584zM1720.157 343.725l-22.215-6.512c-3.293-.965-4.689 4.158-1.411 5.119l22.215 6.512c3.293.966 4.689-4.158 1.411-5.119zM1775.919 447.488l11.557-20.058c1.712-2.972-2.876-5.644-4.584-2.679l-11.557 20.058c-1.712 2.971 2.876 5.644 4.584 2.679zM1616.019 493.114l11.557-20.058c1.712-2.972-2.876-5.644-4.584-2.679l-11.557 20.058c-1.712 2.971 2.876 5.643 4.584 2.679z"/><path stroke="#F9F9F9" stroke-width="3.281" stroke-miterlimit="10" fill="none" d="M1626.854 123.948h-21.325l10.663 18.045z"/><path fill="#F9F9F9" d="M1555.395 141.89l11.557-20.058c1.712-2.972-2.876-5.644-4.584-2.679l-11.557 20.058c-1.712 2.971 2.876 5.643 4.584 2.679zM1519.745 21.776l11.557-20.058c1.712-2.972-2.876-5.644-4.584-2.679l-11.557 20.058c-1.712 2.971 2.876 5.644 4.584 2.679zM1516.165 351.736c-3.831-6.698-7.663-13.396-11.494-20.095-1.699-2.97-6.286-.297-4.584 2.679 3.832 6.698 7.663 13.396 11.494 20.095 1.699 2.971 6.287.298 4.584-2.679zM1468.698 200.473l-22.884 3.496c-3.375.516-1.937 5.631 1.411 5.119l22.884-3.496c3.376-.516 1.937-5.631-1.411-5.119zM1642.485 203.527c-7.66-.934-15.32-1.868-22.98-2.801-3.393-.414-3.353 4.9 0 5.309 7.66.934 15.32 1.868 22.98 2.801 3.394.413 3.354-4.9 0-5.309zM1719.834 129.267c-7.66-.934-15.32-1.868-22.98-2.801-3.393-.414-3.353 4.9 0 5.309 7.66.934 15.32 1.868 22.98 2.801 3.393.414 3.354-4.9 0-5.309zM1784.093 231.631l-16.248-16.49c-2.406-2.441-6.158 1.314-3.754 3.754l16.248 16.49c2.405 2.441 6.157-1.314 3.754-3.754zM1946.122 144.958l8.507 11.577c-2.973 2.066-6.937 1.16-6.937 1.16-8.405-.951-9.306 8.083-9.306 8.083-1.299 7.045-7.377 5.641-7.377 5.641-12.033-2.791-12.875 8.212-12.875 8.212-1.588 6.61-7.562 4.769-7.562 4.769-10.705-2.66-11.472 7.872-11.472 7.872-.219 2.907-3.167 3.904-3.167 3.904l-8.804-12.149s3.138-1.481 3.993-4.999c0 0 2.025-7.329 9.659-5.832 0 0 8.201 2.735 10.644-7.392 0 0 1.259-7.504 10.348-5.557 0 0 7.513.849 9.184-7.657 0 0 .909-7.188 9.983-5.892-.001-.001 4.481-.098 5.182-1.74z"/><path fill="#010011" stroke="#fff" stroke-width="2.371" stroke-miterlimit="10" d="M1952.553 149.668l8.507 11.577c-2.973 2.066-6.937 1.16-6.937 1.16-8.405-.951-9.306 8.083-9.306 8.083-1.299 7.045-7.377 5.641-7.377 5.641-12.033-2.791-12.875 8.212-12.875 8.212-1.588 6.61-7.562 4.769-7.562 4.769-10.705-2.66-11.472 7.872-11.472 7.872-.219 2.907-3.167 3.904-3.167 3.904l-8.804-12.149s3.138-1.481 3.993-4.999c0 0 2.025-7.329 9.659-5.832 0 0 8.201 2.735 10.644-7.392 0 0 1.26-7.504 10.348-5.557 0 0 7.513.849 9.184-7.657 0 0 .909-7.188 9.983-5.892-.001 0 4.481-.098 5.182-1.74z"/><path fill="#F9F9F9" d="M2300.258 143.757l8.507 11.577c-2.973 2.066-6.937 1.16-6.937 1.16-8.405-.951-9.306 8.083-9.306 8.083-1.299 7.045-7.377 5.641-7.377 5.641-12.033-2.791-12.875 8.212-12.875 8.212-1.588 6.61-7.562 4.769-7.562 4.769-10.705-2.66-11.472 7.872-11.472 7.872-.219 2.907-3.167 3.904-3.167 3.904l-8.804-12.149s3.138-1.481 3.993-4.999c0 0 2.024-7.329 9.658-5.832 0 0 8.201 2.735 10.644-7.392 0 0 1.26-7.504 10.348-5.557 0 0 7.513.849 9.184-7.657 0 0 .909-7.188 9.983-5.892 0-.001 4.482-.098 5.183-1.74z"/><path fill="#010011" stroke="#fff" stroke-width="2.371" stroke-miterlimit="10" d="M2306.689 148.467l8.507 11.577c-2.973 2.066-6.937 1.16-6.937 1.16-8.405-.951-9.306 8.083-9.306 8.083-1.299 7.045-7.377 5.641-7.377 5.641-12.033-2.791-12.875 8.212-12.875 8.212-1.588 6.61-7.562 4.769-7.562 4.769-10.705-2.66-11.472 7.872-11.472 7.872-.219 2.907-3.167 3.904-3.167 3.904l-8.804-12.149s3.138-1.481 3.993-4.999c0 0 2.024-7.329 9.658-5.832 0 0 8.201 2.735 10.644-7.392 0 0 1.26-7.504 10.348-5.557 0 0 7.513.849 9.184-7.657 0 0 .909-7.188 9.983-5.892 0 0 4.482-.098 5.183-1.74z"/><circle fill="#fff" cx="1903.474" cy="436.389" r="5.313"/><circle fill="#fff" cx="1976.142" cy="492.904" r="5.313"/><circle fill="#fff" cx="2089.568" cy="436.389" r="5.313"/><path stroke="#F9F9F9" stroke-width="3.281" stroke-miterlimit="10" fill="none" d="M2114.752 471.456l20.244 6.706-4.447-20.482zM2245.87 509.453l20.244 6.707-4.447-20.483zM1825.325 218.556l20.243 6.707-4.446-20.483z"/><path stroke="#F9F9F9" stroke-width="2.371" stroke-miterlimit="10" fill="none" d="M1892.282 319.101l20.244 6.706-4.447-20.482zM1989.299 434.306l-13.985-4.633 3.935-11.877 13.985 4.633z"/><path fill="#F9F9F9" d="M2048.893 466.667c-7.66-.934-15.32-1.868-22.979-2.801-3.393-.414-3.353 4.9 0 5.309 7.66.934 15.32 1.868 22.979 2.801 3.393.414 3.354-4.9 0-5.309z"/><circle fill="#fff" cx="1830.296" cy="432.301" r="5.313"/><circle fill="#fff" cx="1954.27" cy="293.515" r="5.313"/><circle fill="#fff" cx="1795.077" cy="141.993" r="5.313"/><circle fill="#fff" cx="1870.18" cy="72.496" r="5.313"/><circle fill="#fff" cx="1747.917" cy="77.809" r="5.313"/><path stroke="#F9F9F9" stroke-width="2.371" stroke-miterlimit="10" fill="none" d="M1889.253 370.735l-12.771 7.342-6.235-10.846 12.771-7.342z"/><path fill="#F9F9F9" d="M1949.856 343.912l-17.398 15.272c-2.578 2.263 1.192 6.002 3.754 3.754l17.398-15.272c2.577-2.263-1.193-6.003-3.754-3.754zM2190.5 494.772l-16.248-16.49c-2.406-2.441-6.158 1.314-3.754 3.754l16.248 16.49c2.406 2.441 6.158-1.315 3.754-3.754zM1845.448 339.349l-16.248-16.49c-2.406-2.441-6.158 1.314-3.754 3.754l16.248 16.49c2.405 2.442 6.157-1.314 3.754-3.754zM1434.225 447.853l17.19 15.505c2.535 2.286 6.301-1.456 3.754-3.754l-17.19-15.505c-2.535-2.286-6.302 1.457-3.754 3.754z"/><circle fill="#fff" cx="1440.841" cy="394.467" r="5.313"/><circle fill="#fff" cx="1450.011" cy="263.184" r="5.313"/><path stroke="#F9F9F9" stroke-width="2.371" stroke-miterlimit="10" fill="none" d="M1444.029 316.511l13.985 4.633-3.935 11.877-13.985-4.633z"/><path fill="#F9F9F9" d="M2258.79 350.09l8.507 11.577c-2.973 2.066-6.937 1.16-6.937 1.16-8.405-.951-9.306 8.083-9.306 8.083-1.299 7.045-7.377 5.641-7.377 5.641-12.033-2.791-12.875 8.212-12.875 8.212-1.588 6.61-7.562 4.769-7.562 4.769-10.705-2.66-11.472 7.872-11.472 7.872-.219 2.907-3.167 3.904-3.167 3.904l-8.804-12.149s3.138-1.481 3.993-4.999c0 0 2.024-7.329 9.658-5.832 0 0 8.201 2.735 10.644-7.392 0 0 1.26-7.504 10.348-5.557 0 0 7.513.849 9.184-7.657 0 0 .909-7.188 9.983-5.892 0-.001 4.482-.098 5.183-1.74z"/><path fill="#010011" stroke="#fff" stroke-width="2.371" stroke-miterlimit="10" d="M2265.221 354.801l8.507 11.577c-2.973 2.066-6.937 1.16-6.937 1.16-8.405-.951-9.306 8.083-9.306 8.083-1.299 7.045-7.377 5.641-7.377 5.641-12.033-2.791-12.875 8.212-12.875 8.212-1.588 6.61-7.562 4.769-7.562 4.769-10.705-2.66-11.472 7.872-11.472 7.872-.219 2.907-3.167 3.904-3.167 3.904l-8.804-12.149s3.138-1.481 3.993-4.999c0 0 2.025-7.329 9.659-5.832 0 0 8.201 2.735 10.644-7.392 0 0 1.26-7.504 10.348-5.557 0 0 7.513.849 9.184-7.657 0 0 .909-7.188 9.983-5.892-.001-.001 4.481-.098 5.182-1.74z"/><circle fill="#fff" cx="2152.634" cy="409.005" r="5.313"/><circle fill="#fff" cx="2109.854" cy="291.951" r="5.313"/><circle fill="#fff" cx="2031.454" cy="239.968" r="5.313"/><circle fill="#fff" cx="2124.874" cy="189.07" r="5.313"/><circle fill="#fff" cx="2159.491" cy="332.516" r="5.313"/><circle fill="#fff" cx="2272.917" cy="276.001" r="5.313"/><circle fill="#fff" cx="2324.395" cy="372.814" r="5.313"/><circle fill="#fff" cx="2298.101" cy="471.787" r="5.313"/><path stroke="#F9F9F9" stroke-width="3.281" stroke-miterlimit="10" fill="none" d="M2361.85 404.504l20.244 6.706-4.447-20.482zM2298.101 311.068l20.244 6.706-4.447-20.482z"/><path stroke="#F9F9F9" stroke-width="2.371" stroke-miterlimit="10" fill="none" d="M2073.826 373.919l20.244 6.707-4.447-20.483zM2244.922 465.547l-13.985-4.633 3.935-11.877 13.985 4.633zM2105.841 243.945l-13.985-4.633 3.935-11.877 13.985 4.633zM2193.566 188.837l-13.985-4.633 3.935-11.877 13.985 4.633zM2372.33 276.751l-5.382 13.714-11.646-4.57 5.382-13.714z"/><path fill="#F9F9F9" d="M2321.021 429.256l-22.215-6.512c-3.293-.965-4.689 4.158-1.411 5.119l22.215 6.512c3.293.966 4.69-4.158 1.411-5.119z"/><path stroke="#F9F9F9" stroke-width="3.281" stroke-miterlimit="10" fill="none" d="M2216.611 226.7h-21.326l10.663 18.045zM2067.292 180.176h-21.326l10.663 18.045z"/><path fill="#F9F9F9" d="M2145.152 244.643l11.557-20.058c1.712-2.972-2.876-5.644-4.584-2.679-3.853 6.686-7.705 13.372-11.557 20.058-1.713 2.971 2.875 5.643 4.584 2.679zM2006.228 179.274c-3.831-6.698-7.663-13.396-11.494-20.095-1.699-2.97-6.286-.297-4.584 2.679 3.832 6.698 7.663 13.396 11.494 20.095 1.699 2.971 6.287.297 4.584-2.679zM2049.495 311.258l-22.884 3.496c-3.375.516-1.936 5.631 1.411 5.119l22.884-3.496c3.376-.515 1.937-5.63-1.411-5.119zM2232.242 306.279c-7.66-.934-15.32-1.868-22.979-2.801-3.393-.414-3.354 4.9 0 5.309 7.66.934 15.32 1.868 22.979 2.801 3.393.414 3.353-4.9 0-5.309zM2309.591 232.02c-7.66-.934-15.32-1.868-22.98-2.801-3.393-.414-3.353 4.9 0 5.309 7.66.934 15.32 1.868 22.98 2.801 3.393.413 3.353-4.9 0-5.309z"/><circle fill="#fff" cx="2350.59" cy="505.918" r="5.313"/><path stroke="#F9F9F9" stroke-width="2.371" stroke-miterlimit="10" fill="none" d="M2364.215 468.486l-13.985-4.633 3.935-11.877 13.985 4.633z"/><path fill="#F9F9F9" d="M2373.849 334.384l-16.248-16.49c-2.406-2.441-6.158 1.314-3.754 3.754l16.248 16.49c2.406 2.441 6.158-1.315 3.754-3.754z"/><path stroke="#F9F9F9" stroke-width="2.371" stroke-miterlimit="10" fill="none" d="M2352.745 193.502l-5.382 13.714-11.646-4.57 5.382-13.714z"/><circle fill="#fff" cx="2384.834" cy="244.745" r="5.313"/><path fill="#F9F9F9" d="M1697.117 42.176l8.507 11.577c-2.973 2.066-6.937 1.16-6.937 1.16-8.405-.951-9.306 8.083-9.306 8.083-1.299 7.045-7.377 5.641-7.377 5.641-12.033-2.791-12.875 8.212-12.875 8.212-1.588 6.61-7.562 4.769-7.562 4.769-10.705-2.66-11.472 7.872-11.472 7.872-.219 2.907-3.167 3.904-3.167 3.904l-8.804-12.149s3.138-1.481 3.993-4.999c0 0 2.025-7.329 9.659-5.832 0 0 8.201 2.735 10.644-7.392 0 0 1.26-7.504 10.348-5.557 0 0 7.513.849 9.184-7.657 0 0 .909-7.188 9.983-5.892-.002-.001 4.48-.098 5.182-1.74z"/><path fill="#010011" stroke="#fff" stroke-width="2.371" stroke-miterlimit="10" d="M1703.548 46.887l8.507 11.577c-2.973 2.066-6.937 1.16-6.937 1.16-8.405-.951-9.306 8.083-9.306 8.083-1.299 7.045-7.377 5.641-7.377 5.641-12.033-2.791-12.875 8.212-12.875 8.212-1.588 6.61-7.562 4.769-7.562 4.769-10.705-2.66-11.472 7.872-11.472 7.872-.219 2.907-3.167 3.904-3.167 3.904l-8.804-12.149s3.138-1.481 3.993-4.999c0 0 2.025-7.329 9.659-5.832 0 0 8.201 2.735 10.644-7.392 0 0 1.259-7.504 10.348-5.557 0 0 7.513.849 9.184-7.657 0 0 .909-7.188 9.983-5.892-.001-.001 4.481-.098 5.182-1.74z"/><circle fill="#fff" cx="1597.818" cy="24.602" r="5.313"/><circle fill="#fff" cx="1481.375" cy="67.182" r="5.313"/><path stroke="#F9F9F9" stroke-width="3.281" stroke-miterlimit="10" fill="none" d="M1736.427 3.153l20.244 6.707-4.447-20.483z"/><path stroke="#F9F9F9" stroke-width="2.371" stroke-miterlimit="10" fill="none" d="M1526.222 53.779l20.244 6.706-4.447-20.483zM1941.118 37.613l-5.382 13.714-11.646-4.57 5.382-13.714zM1816.7 72.156l-5.382 13.714-11.646-4.57 5.382-13.714zM1606.31 71.387l-5.382 13.714-11.646-4.57 5.382-13.714z"/><path fill="#F9F9F9" d="M2001.76 32.514c-6.895 3.464-13.791 6.928-20.686 10.393-3.06 1.537-.371 6.116 2.679 4.584 6.895-3.464 13.791-6.928 20.686-10.393 3.06-1.537.371-6.116-2.679-4.584zM1916.976 105.697l-23.044-2.21c-3.408-.327-3.376 4.985 0 5.309l23.044 2.21c3.408.326 3.376-4.985 0-5.309zM1496.781-4.689l-22.884 3.496c-3.376.516-1.937 5.631 1.411 5.119l22.884-3.496c3.376-.516 1.937-5.63-1.411-5.119zM1670.569-1.635c-7.66-.934-15.32-1.868-22.98-2.801-3.393-.414-3.353 4.9 0 5.309 7.66.934 15.32 1.868 22.98 2.801 3.393.413 3.353-4.9 0-5.309z"/><circle fill="#fff" cx="2047.666" cy="141.202" r="5.313"/><circle fill="#fff" cx="1980.86" cy="88.683" r="5.313"/><circle fill="#fff" cx="2210.728" cy="125.253" r="5.313"/><path stroke="#F9F9F9" stroke-width="2.371" stroke-miterlimit="10" fill="none" d="M2043.653 93.203l-13.985-4.633 3.935-11.877 13.985 4.633zM2324.294 93.542l-5.382 13.714-11.646-4.57 5.382-13.714z"/><path stroke="#F9F9F9" stroke-width="3.281" stroke-miterlimit="10" fill="none" d="M2154.423 75.952h-21.326l10.663 18.045z"/><path fill="#F9F9F9" d="M2082.963 93.894c3.853-6.686 7.705-13.372 11.557-20.058 1.712-2.972-2.876-5.644-4.584-2.679l-11.557 20.058c-1.712 2.971 2.876 5.643 4.584 2.679zM2247.402 81.271c-7.66-.934-15.32-1.868-22.98-2.801-3.393-.414-3.353 4.9 0 5.309 7.66.934 15.32 1.868 22.98 2.801 3.394.413 3.354-4.9 0-5.309zM2140.468 139.296c-7.66-.934-15.32-1.868-22.98-2.801-3.393-.414-3.353 4.9 0 5.309 7.66.934 15.32 1.868 22.98 2.801 3.393.414 3.353-4.9 0-5.309zM1812.176 26.469l-16.248-16.49c-2.406-2.441-6.158 1.314-3.754 3.754l16.248 16.49c2.406 2.442 6.158-1.314 3.754-3.754z"/><path stroke="#F9F9F9" stroke-width="3.281" stroke-miterlimit="10" fill="none" d="M1853.408 13.395l20.244 6.707-4.447-20.483z"/><circle fill="#fff" cx="2059.537" cy="34.806" r="5.313"/><circle fill="#fff" cx="1959.583" cy="11.857" r="5.313"/><path stroke="#F9F9F9" stroke-width="2.371" stroke-miterlimit="10" fill="none" d="M2133.921 38.791l-13.985-4.633 3.935-11.877 13.985 4.633zM2320.747 18.636l-13.985-4.633 3.935-11.877 13.985 4.633z"/><path stroke="#F9F9F9" stroke-width="3.281" stroke-miterlimit="10" fill="none" d="M2244.694 21.539h-21.326l10.663 18.045z"/><path fill="#F9F9F9" d="M2173.235 39.481c3.853-6.686 7.705-13.372 11.557-20.058 1.712-2.972-2.876-5.644-4.584-2.679-3.853 6.686-7.705 13.372-11.557 20.058-1.713 2.971 2.876 5.643 4.584 2.679zM2309.591 44.21c-7.66-.934-15.32-1.868-22.98-2.801-3.393-.414-3.353 4.9 0 5.309 7.66.934 15.32 1.868 22.98 2.801 3.393.413 3.353-4.901 0-5.309z"/><path stroke="#F9F9F9" stroke-width="2.371" stroke-miterlimit="10" fill="none" d="M2380.829-11.656l-5.382 13.714-11.646-4.57 5.382-13.714zM2369.398 109.676l20.244 6.707-4.447-20.483z"/><circle fill="#fff" cx="2014.809" cy="375.699" r="5.313"/><path d="M730.102 150.905h861.988v219.102h-861.988z"/></svg>