<?xml version="1.0" encoding="utf-8"?>
<!-- Generator: Adobe Illustrator 17.1.0, SVG Export Plug-In . SVG Version: 6.00 Build 0)  -->
<!DOCTYPE svg PUBLIC "-//W3C//DTD SVG 1.1//EN" "http://www.w3.org/Graphics/SVG/1.1/DTD/svg11.dtd">
<svg version="1.1" id="Layer_1" xmlns="http://www.w3.org/2000/svg" xmlns:xlink="http://www.w3.org/1999/xlink" x="0px" y="0px"
	 viewBox="0 0 2350 500" enable-background="new 0 0 2350 500" xml:space="preserve">
<rect width="2350" height="500"/>
<circle fill="#FFFFFF" cx="229.059" cy="518.097" r="5.313"/>
<circle fill="#FFFFFF" cx="145.865" cy="507.398" r="4.573"/>
<rect x="95.822" y="462.502" fill="none" stroke="#F9F9F9" stroke-width="2.3711" stroke-miterlimit="10" width="14.732" height="12.511"/>
<path fill="#F9F9F9" d="M66.293,272.99l8.507,11.578c-2.973,2.066-6.937,1.16-6.937,1.16c-8.405-0.951-9.306,8.083-9.306,8.083
	c-1.299,7.045-7.377,5.641-7.377,5.641c-12.033-2.791-12.875,8.212-12.875,8.212c-1.588,6.61-7.562,4.769-7.562,4.769
	c-10.705-2.66-11.472,7.872-11.472,7.872c-0.219,2.907-3.167,3.904-3.167,3.904L7.3,312.059c0,0,3.138-1.481,3.993-4.999
	c0,0,2.025-7.329,9.659-5.832c0,0,8.201,2.735,10.644-7.392c0,0,1.259-7.504,10.348-5.557c0,0,7.513,0.849,9.184-7.657
	c0,0,0.909-7.188,9.983-5.892C61.11,274.73,65.591,274.632,66.293,272.99z"/>
<path fill="#010011" stroke="#FFFFFF" stroke-width="2.3711" stroke-miterlimit="10" d="M72.724,277.701l8.507,11.577
	c-2.973,2.066-6.937,1.16-6.937,1.16c-8.405-0.951-9.306,8.083-9.306,8.083c-1.299,7.045-7.377,5.641-7.377,5.641
	c-12.033-2.791-12.875,8.212-12.875,8.212c-1.588,6.61-7.562,4.769-7.562,4.769c-10.705-2.66-11.472,7.872-11.472,7.872
	c-0.219,2.907-3.167,3.904-3.167,3.904l-8.804-12.149c0,0,3.138-1.481,3.993-4.999c0,0,2.025-7.329,9.659-5.832
	c0,0,8.201,2.735,10.644-7.392c0,0,1.259-7.504,10.348-5.557c0,0,7.513,0.849,9.184-7.657c0,0,0.909-7.188,9.983-5.892
	C67.541,279.441,72.023,279.343,72.724,277.701z"/>
<circle fill="#FFFFFF" cx="-149.449" cy="162.332" r="5.313"/>
<circle fill="#FFFFFF" cx="80.419" cy="198.902" r="5.313"/>
<circle fill="#FFFFFF" cx="131.898" cy="295.714" r="5.313"/>
<circle fill="#FFFFFF" cx="47.481" cy="350.39" r="5.313"/>
<circle fill="#FFFFFF" cx="176.665" cy="400.829" r="5.313"/>
<circle fill="#FFFFFF" cx="28.255" cy="462.042" r="5.313"/>
<polygon fill="none" stroke="#F9F9F9" stroke-width="3.2809" stroke-miterlimit="10" points="169.353,327.404 189.597,334.111 
	185.15,313.628 "/>
<polygon fill="none" stroke="#F9F9F9" stroke-width="3.2809" stroke-miterlimit="10" points="86.812,419.92 107.056,426.626 
	102.609,406.144 "/>
<polygon fill="none" stroke="#F9F9F9" stroke-width="3.2809" stroke-miterlimit="10" points="105.604,233.968 125.847,240.675 
	121.4,220.192 "/>
<rect x="17.49" y="394.859" transform="matrix(-0.9493 -0.3145 0.3145 -0.9493 -77.6955 789.6934)" fill="none" stroke="#F9F9F9" stroke-width="2.3711" stroke-miterlimit="10" width="14.732" height="12.511"/>
<circle fill="#FFFFFF" cx="250.684" cy="313.628" r="5.313"/>
<rect x="294.44" y="266.735" transform="matrix(-0.3653 0.9309 -0.9309 -0.3653 666.177 91.7604)" fill="none" stroke="#F9F9F9" stroke-width="2.3711" stroke-miterlimit="10" width="14.732" height="12.511"/>
<rect x="163.985" y="197.961" transform="matrix(-0.3653 0.9309 -0.9309 -0.3653 424.0466 119.3035)" fill="none" stroke="#F9F9F9" stroke-width="2.3711" stroke-miterlimit="10" width="14.732" height="12.511"/>
<g>
	<g>
		<path fill="#F9F9F9" d="M370.936,263.329c-6.895,3.464-13.791,6.928-20.686,10.393c-3.06,1.537-0.371,6.116,2.679,4.584
			c6.895-3.464,13.791-6.928,20.686-10.393C376.675,266.376,373.986,261.796,370.936,263.329L370.936,263.329z"/>
	</g>
</g>
<g>
	<g>
		<path fill="#F9F9F9" d="M248.373,186.099c-6.895,3.464-13.791,6.928-20.686,10.393c-3.06,1.537-0.371,6.116,2.679,4.584
			c6.895-3.464,13.791-6.928,20.686-10.393C254.112,189.146,251.423,184.567,248.373,186.099L248.373,186.099z"/>
	</g>
</g>
<g>
	<g>
		<path fill="#F9F9F9" d="M117.417,369.378c-7.405-2.171-14.81-4.341-22.215-6.512c-3.293-0.965-4.689,4.158-1.411,5.119
			c7.405,2.171,14.81,4.341,22.215,6.512C119.298,375.463,120.695,370.339,117.417,369.378L117.417,369.378z"/>
	</g>
</g>
<g>
	<g>
		<path fill="#F9F9F9" d="M173.178,473.141c3.852-6.686,7.705-13.372,11.557-20.058c1.712-2.972-2.876-5.644-4.584-2.679
			c-3.852,6.686-7.705,13.372-11.557,20.058C166.882,473.433,171.47,476.106,173.178,473.141L173.178,473.141z"/>
	</g>
</g>
<polygon fill="none" stroke="#F9F9F9" stroke-width="3.2809" stroke-miterlimit="10" points="24.114,149.601 2.788,149.601 
	13.451,167.646 "/>
<g>
	<g>
		<path fill="#F9F9F9" d="M39.745,229.18c-7.66-0.934-15.32-1.868-22.98-2.801c-3.393-0.414-3.353,4.9,0,5.309
			c7.66,0.934,15.32,1.868,22.98,2.801C43.138,234.902,43.098,229.588,39.745,229.18L39.745,229.18z"/>
	</g>
</g>
<g>
	<g>
		<path fill="#F9F9F9" d="M117.093,154.92c-7.66-0.934-15.32-1.868-22.98-2.801c-3.393-0.414-3.353,4.9,0,5.309
			c7.66,0.934,15.32,1.868,22.98,2.801C120.487,160.643,120.447,155.329,117.093,154.92L117.093,154.92z"/>
	</g>
</g>
<g>
	<g>
		<path fill="#F9F9F9" d="M181.352,257.284c-5.416-5.497-10.832-10.993-16.248-16.49c-2.406-2.441-6.158,1.314-3.754,3.754
			c5.416,5.497,10.832,10.993,16.248,16.49C180.004,263.479,183.756,259.724,181.352,257.284L181.352,257.284z"/>
	</g>
</g>
<path fill="#F9F9F9" d="M343.382,170.61l8.507,11.577c-2.973,2.066-6.937,1.16-6.937,1.16c-8.405-0.951-9.306,8.083-9.306,8.083
	c-1.299,7.045-7.377,5.641-7.377,5.641c-12.033-2.791-12.875,8.212-12.875,8.212c-1.588,6.61-7.562,4.769-7.562,4.769
	c-10.705-2.66-11.472,7.872-11.472,7.872c-0.219,2.907-3.167,3.904-3.167,3.904l-8.804-12.149c0,0,3.138-1.481,3.993-4.999
	c0,0,2.025-7.329,9.659-5.832c0,0,8.201,2.735,10.644-7.392c0,0,1.259-7.504,10.348-5.557c0,0,7.513,0.849,9.184-7.657
	c0,0,0.909-7.188,9.983-5.892C338.198,172.35,342.68,172.252,343.382,170.61z"/>
<path fill="#010011" stroke="#FFFFFF" stroke-width="2.3711" stroke-miterlimit="10" d="M349.813,175.321l8.507,11.577
	c-2.973,2.066-6.937,1.16-6.937,1.16c-8.405-0.951-9.306,8.083-9.306,8.083c-1.299,7.045-7.377,5.641-7.377,5.641
	c-12.033-2.791-12.875,8.212-12.875,8.212c-1.588,6.61-7.562,4.769-7.562,4.769c-10.705-2.66-11.472,7.872-11.472,7.872
	c-0.219,2.907-3.167,3.904-3.167,3.904l-8.804-12.149c0,0,3.138-1.481,3.993-4.999c0,0,2.025-7.329,9.659-5.832
	c0,0,8.201,2.735,10.644-7.392c0,0,1.259-7.504,10.348-5.557c0,0,7.513,0.849,9.184-7.657c0,0,0.909-7.188,9.983-5.892
	C344.63,177.061,349.111,176.963,349.813,175.321z"/>
<path fill="#F9F9F9" d="M697.518,169.409l8.507,11.577c-2.973,2.066-6.937,1.16-6.937,1.16c-8.405-0.951-9.306,8.083-9.306,8.083
	c-1.299,7.045-7.377,5.641-7.377,5.641c-12.033-2.791-12.875,8.212-12.875,8.212c-1.588,6.61-7.562,4.769-7.562,4.769
	c-10.705-2.66-11.472,7.872-11.472,7.872c-0.219,2.907-3.167,3.904-3.167,3.904l-8.804-12.149c0,0,3.138-1.481,3.993-4.999
	c0,0,2.025-7.329,9.659-5.832c0,0,8.201,2.735,10.644-7.392c0,0,1.259-7.504,10.348-5.557c0,0,7.513,0.849,9.184-7.657
	c0,0,0.909-7.188,9.983-5.892C692.335,171.149,696.816,171.052,697.518,169.409z"/>
<path fill="#010011" stroke="#FFFFFF" stroke-width="2.3711" stroke-miterlimit="10" d="M703.949,174.12l8.507,11.577
	c-2.973,2.066-6.937,1.16-6.937,1.16c-8.405-0.951-9.306,8.083-9.306,8.083c-1.299,7.045-7.377,5.641-7.377,5.641
	c-12.033-2.791-12.875,8.212-12.875,8.212c-1.588,6.61-7.562,4.769-7.562,4.769c-10.705-2.66-11.472,7.872-11.472,7.872
	c-0.219,2.907-3.167,3.904-3.167,3.904l-8.804-12.149c0,0,3.138-1.481,3.993-4.999c0,0,2.025-7.329,9.659-5.832
	c0,0,8.201,2.735,10.644-7.392c0,0,1.259-7.504,10.348-5.557c0,0,7.513,0.849,9.184-7.657c0,0,0.909-7.188,9.983-5.892
	C698.766,175.86,703.248,175.762,703.949,174.12z"/>
<circle fill="#FFFFFF" cx="302.713" cy="439.85" r="5.313"/>
<circle fill="#FFFFFF" cx="373.402" cy="518.557" r="5.313"/>
<circle fill="#FFFFFF" cx="486.827" cy="462.042" r="5.313"/>
<polygon fill="none" stroke="#F9F9F9" stroke-width="3.2809" stroke-miterlimit="10" points="512.011,497.109 532.255,503.815 
	527.808,483.332 "/>
<polygon fill="none" stroke="#F9F9F9" stroke-width="3.2809" stroke-miterlimit="10" points="643.129,535.106 663.373,541.813 
	658.926,521.33 "/>
<polygon fill="none" stroke="#F9F9F9" stroke-width="3.2809" stroke-miterlimit="10" points="222.584,244.209 242.828,250.916 
	238.381,230.433 "/>
<polygon fill="none" stroke="#F9F9F9" stroke-width="2.3711" stroke-miterlimit="10" points="289.542,344.754 309.786,351.46 
	305.339,330.977 "/>
<polygon fill="none" stroke="#F9F9F9" stroke-width="2.3711" stroke-miterlimit="10" points="267.674,478.744 287.918,485.451 
	283.471,464.968 "/>
<rect x="374.239" y="445.488" transform="matrix(-0.9493 -0.3145 0.3145 -0.9493 601.7795 1000.5755)" fill="none" stroke="#F9F9F9" stroke-width="2.3711" stroke-miterlimit="10" width="14.732" height="12.511"/>
<g>
	<g>
		<path fill="#F9F9F9" d="M446.152,492.32c-7.66-0.934-15.32-1.868-22.98-2.801c-3.393-0.414-3.353,4.9,0,5.309
			c7.66,0.934,15.32,1.868,22.98,2.801C449.546,498.043,449.506,492.729,446.152,492.32L446.152,492.32z"/>
	</g>
</g>
<circle fill="#FFFFFF" cx="227.555" cy="457.954" r="5.313"/>
<circle fill="#FFFFFF" cx="351.529" cy="319.168" r="5.313"/>
<circle fill="#FFFFFF" cx="192.337" cy="167.646" r="5.313"/>
<circle fill="#FFFFFF" cx="267.44" cy="98.148" r="5.313"/>
<circle fill="#FFFFFF" cx="145.177" cy="103.462" r="5.313"/>
<circle fill="#FFFFFF" cx="16.765" cy="73.272" r="5.313"/>
<circle fill="#FFFFFF" cx="94.114" cy="30.622" r="5.313"/>
<rect x="269.577" y="388.432" transform="matrix(-0.8669 0.4984 -0.4984 -0.8669 713.7584 598.8159)" fill="none" stroke="#F9F9F9" stroke-width="2.3711" stroke-miterlimit="10" width="14.732" height="12.511"/>
<g>
	<g>
		<path fill="#F9F9F9" d="M347.115,369.565c-5.799,5.091-11.599,10.181-17.398,15.272c-2.578,2.263,1.192,6.002,3.754,3.754
			c5.799-5.091,11.599-10.181,17.398-15.272C353.447,371.056,349.677,367.316,347.115,369.565L347.115,369.565z"/>
	</g>
</g>
<g>
	<g>
		<path fill="#F9F9F9" d="M587.76,520.425c-5.416-5.497-10.832-10.993-16.248-16.49c-2.406-2.441-6.158,1.314-3.754,3.754
			c5.416,5.497,10.832,10.993,16.248,16.49C586.411,526.62,590.163,522.864,587.76,520.425L587.76,520.425z"/>
	</g>
</g>
<g>
	<g>
		<path fill="#F9F9F9" d="M242.707,365.002c-5.416-5.497-10.832-10.993-16.248-16.49c-2.406-2.441-6.158,1.314-3.754,3.754
			c5.416,5.497,10.832,10.993,16.248,16.49C241.359,371.198,245.111,367.442,242.707,365.002L242.707,365.002z"/>
	</g>
</g>
<circle fill="#FFFFFF" cx="1371.659" cy="358.644" r="5.313"/>
<circle fill="#FFFFFF" cx="1045.913" cy="309.619" r="5.313"/>
<rect x="1295.067" y="437.233" transform="matrix(-0.79 0.6131 -0.6131 -0.79 2603.2852 -4.6134)" fill="none" stroke="#F9F9F9" stroke-width="2.3711" stroke-miterlimit="10" width="14.732" height="12.511"/>
<circle fill="#FFFFFF" cx="1123.694" cy="335.73" r="5.313"/>
<polygon fill="none" stroke="#F9F9F9" stroke-width="3.2809" stroke-miterlimit="10" points="1193.029,288.795 1172.924,295.907 
	1188.995,309.363 "/>
<polygon fill="none" stroke="#F9F9F9" stroke-width="3.2809" stroke-miterlimit="10" points="1222.099,74.538 1201.994,81.651 
	1218.064,95.107 "/>
<rect x="1099.309" y="374.894" transform="matrix(0.9428 -0.3335 0.3335 0.9428 -63.7562 390.8968)" fill="none" stroke="#F9F9F9" stroke-width="2.3711" stroke-miterlimit="10" width="14.732" height="12.511"/>
<g>
	<g>
		<path fill="#F9F9F9" d="M1177.573,357.186c7.181-2.825,14.362-5.65,21.543-8.474c3.148-1.238,1.778-6.374-1.411-5.119
			c-7.181,2.825-14.362,5.65-21.543,8.474C1173.014,353.306,1174.384,358.441,1177.573,357.186L1177.573,357.186z"/>
	</g>
</g>
<g>
	<g>
		<path fill="#F9F9F9" d="M1108.889,280.348c-6.978,3.295-13.955,6.59-20.933,9.885c-3.094,1.461-0.398,6.037,2.679,4.584
			c6.978-3.295,13.955-6.59,20.933-9.885C1114.663,283.471,1111.967,278.895,1108.889,280.348L1108.889,280.348z"/>
	</g>
</g>
<g>
	<g>
		<path fill="#F9F9F9" d="M-168.516,473.506c5.73,5.168,11.46,10.337,17.19,15.505c2.535,2.286,6.301-1.456,3.754-3.754
			c-5.73-5.168-11.46-10.337-17.19-15.505C-167.297,467.466-171.063,471.209-168.516,473.506L-168.516,473.506z"/>
	</g>
</g>
<circle fill="#FFFFFF" cx="-161.9" cy="420.12" r="5.313"/>
<circle fill="#FFFFFF" cx="-152.73" cy="288.837" r="5.313"/>
<rect x="-161.105" y="344.134" transform="matrix(0.9493 0.3145 -0.3145 0.9493 102.3931 66.1275)" fill="none" stroke="#F9F9F9" stroke-width="2.3711" stroke-miterlimit="10" width="14.732" height="12.511"/>
<path fill="#F9F9F9" d="M656.049,375.743l8.507,11.577c-2.973,2.066-6.937,1.16-6.937,1.16c-8.405-0.951-9.306,8.083-9.306,8.083
	c-1.299,7.045-7.377,5.641-7.377,5.641c-12.033-2.791-12.875,8.212-12.875,8.212c-1.588,6.61-7.562,4.769-7.562,4.769
	c-10.705-2.66-11.472,7.872-11.472,7.872c-0.219,2.907-3.167,3.904-3.167,3.904l-8.804-12.149c0,0,3.138-1.481,3.993-4.999
	c0,0,2.025-7.329,9.659-5.832c0,0,8.201,2.735,10.644-7.392c0,0,1.259-7.504,10.348-5.557c0,0,7.513,0.849,9.184-7.657
	c0,0,0.909-7.188,9.983-5.892C650.866,377.482,655.348,377.385,656.049,375.743z"/>
<path fill="#010011" stroke="#FFFFFF" stroke-width="2.3711" stroke-miterlimit="10" d="M662.48,380.454l8.507,11.577
	c-2.973,2.066-6.937,1.16-6.937,1.16c-8.405-0.951-9.306,8.083-9.306,8.083c-1.299,7.045-7.377,5.641-7.377,5.641
	c-12.033-2.791-12.875,8.212-12.875,8.212c-1.588,6.61-7.562,4.769-7.562,4.769c-10.705-2.66-11.472,7.872-11.472,7.872
	c-0.219,2.907-3.167,3.904-3.167,3.904l-8.804-12.149c0,0,3.138-1.481,3.993-4.999c0,0,2.025-7.329,9.659-5.832
	c0,0,8.201,2.735,10.644-7.392c0,0,1.259-7.504,10.348-5.557c0,0,7.513,0.849,9.184-7.657c0,0,0.909-7.188,9.983-5.892
	C657.297,382.193,661.779,382.096,662.48,380.454z"/>
<circle fill="#FFFFFF" cx="549.893" cy="434.658" r="5.313"/>
<circle fill="#FFFFFF" cx="507.113" cy="317.604" r="5.313"/>
<circle fill="#FFFFFF" cx="428.713" cy="265.621" r="5.313"/>
<circle fill="#FFFFFF" cx="522.133" cy="214.723" r="5.313"/>
<circle fill="#FFFFFF" cx="556.751" cy="358.169" r="5.313"/>
<circle fill="#FFFFFF" cx="670.176" cy="301.654" r="5.313"/>
<circle fill="#FFFFFF" cx="721.655" cy="398.467" r="5.313"/>
<circle fill="#FFFFFF" cx="695.36" cy="497.44" r="5.313"/>
<polygon fill="none" stroke="#F9F9F9" stroke-width="3.2809" stroke-miterlimit="10" points="759.11,430.157 779.354,436.863 
	774.907,416.381 "/>
<polygon fill="none" stroke="#F9F9F9" stroke-width="3.2809" stroke-miterlimit="10" points="695.36,336.721 715.604,343.427 
	711.157,322.945 "/>
<polygon fill="none" stroke="#F9F9F9" stroke-width="2.3711" stroke-miterlimit="10" points="471.085,399.572 491.329,406.279 
	486.882,385.796 "/>
<rect x="629.871" y="476.732" transform="matrix(-0.9493 -0.3145 0.3145 -0.9493 1090.2482 1141.8727)" fill="none" stroke="#F9F9F9" stroke-width="2.3711" stroke-miterlimit="10" width="14.732" height="12.511"/>
<rect x="490.788" y="255.12" transform="matrix(-0.9493 -0.3145 0.3145 -0.9493 888.8323 666.1535)" fill="none" stroke="#F9F9F9" stroke-width="2.3711" stroke-miterlimit="10" width="14.732" height="12.511"/>
<rect x="578.517" y="200.011" transform="matrix(-0.9493 -0.3145 0.3145 -0.9493 1077.1698 586.321)" fill="none" stroke="#F9F9F9" stroke-width="2.3711" stroke-miterlimit="10" width="14.732" height="12.511"/>
<circle fill="#FFFFFF" cx="840.441" cy="416.381" r="5.313"/>
<circle fill="#FFFFFF" cx="962.033" cy="324.933" r="5.313"/>
<rect x="884.197" y="369.488" transform="matrix(-0.3653 0.9309 -0.9309 -0.3653 1567.0157 -316.9544)" fill="none" stroke="#F9F9F9" stroke-width="2.3711" stroke-miterlimit="10" width="14.732" height="12.511"/>
<rect x="1010.068" y="328.331" transform="matrix(-0.3653 0.9309 -0.9309 -0.3653 1700.5537 -490.3174)" fill="none" stroke="#F9F9F9" stroke-width="2.3711" stroke-miterlimit="10" width="14.732" height="12.511"/>
<rect x="1097.71" y="494.061" transform="matrix(-0.3653 0.9309 -0.9309 -0.3653 1974.4871 -345.635)" fill="none" stroke="#F9F9F9" stroke-width="2.3711" stroke-miterlimit="10" width="14.732" height="12.511"/>
<rect x="753.742" y="300.713" transform="matrix(-0.3653 0.9309 -0.9309 -0.3653 1324.8854 -289.4113)" fill="none" stroke="#F9F9F9" stroke-width="2.3711" stroke-miterlimit="10" width="14.732" height="12.511"/>
<g>
	<g>
		<path fill="#F9F9F9" d="M960.693,366.081c-6.895,3.464-13.791,6.928-20.686,10.393c-3.06,1.537-0.371,6.116,2.679,4.584
			c6.895-3.464,13.791-6.928,20.686-10.393C966.432,369.128,963.743,364.549,960.693,366.081L960.693,366.081z"/>
	</g>
</g>
<g>
	<g>
		<path fill="#F9F9F9" d="M838.13,288.852c-6.895,3.464-13.791,6.928-20.686,10.393c-3.06,1.537-0.371,6.116,2.679,4.584
			c6.895-3.464,13.791-6.928,20.686-10.393C843.869,291.899,841.18,287.319,838.13,288.852L838.13,288.852z"/>
	</g>
</g>
<g>
	<g>
		<path fill="#F9F9F9" d="M1000.014,269.337c-2.369,7.344-4.739,14.688-7.108,22.031c-1.054,3.267,4.073,4.655,5.119,1.411
			c2.369-7.344,4.739-14.688,7.108-22.032C1006.187,267.481,1001.06,266.093,1000.014,269.337L1000.014,269.337z"/>
	</g>
</g>
<g>
	<g>
		<path fill="#F9F9F9" d="M718.281,454.909c-7.405-2.171-14.81-4.341-22.215-6.512c-3.293-0.965-4.689,4.158-1.411,5.119
			c7.405,2.171,14.81,4.341,22.215,6.512C720.163,460.994,721.559,455.87,718.281,454.909L718.281,454.909z"/>
	</g>
</g>
<polygon fill="none" stroke="#F9F9F9" stroke-width="3.2809" stroke-miterlimit="10" points="613.87,252.353 592.544,252.353 
	603.207,270.398 "/>
<polygon fill="none" stroke="#F9F9F9" stroke-width="3.2809" stroke-miterlimit="10" points="464.551,205.829 443.226,205.829 
	453.888,223.874 "/>
<g>
	<g>
		<path fill="#F9F9F9" d="M542.411,270.295c3.852-6.686,7.705-13.372,11.557-20.058c1.712-2.972-2.876-5.644-4.584-2.679
			c-3.852,6.686-7.705,13.372-11.557,20.058C536.115,270.588,540.703,273.26,542.411,270.295L542.411,270.295z"/>
	</g>
</g>
<g>
	<g>
		<path fill="#F9F9F9" d="M403.488,204.927c-3.831-6.698-7.663-13.396-11.494-20.095c-1.699-2.97-6.287-0.297-4.584,2.679
			c3.831,6.698,7.663,13.396,11.494,20.095C400.603,210.577,405.19,207.903,403.488,204.927L403.488,204.927z"/>
	</g>
</g>
<g>
	<g>
		<path fill="#F9F9F9" d="M446.754,336.911c-7.628,1.165-15.256,2.331-22.884,3.496c-3.375,0.516-1.936,5.631,1.411,5.119
			c7.628-1.165,15.256-2.331,22.884-3.496C451.541,341.515,450.102,336.4,446.754,336.911L446.754,336.911z"/>
	</g>
</g>
<g>
	<g>
		<path fill="#F9F9F9" d="M629.501,331.932c-7.66-0.934-15.32-1.868-22.98-2.801c-3.393-0.414-3.353,4.9,0,5.309
			c7.66,0.934,15.32,1.868,22.98,2.801C632.895,337.655,632.855,332.341,629.501,331.932L629.501,331.932z"/>
	</g>
</g>
<g>
	<g>
		<path fill="#F9F9F9" d="M706.85,257.673c-7.66-0.934-15.32-1.868-22.98-2.801c-3.393-0.414-3.353,4.9,0,5.309
			c7.66,0.934,15.32,1.868,22.98,2.801C710.243,263.395,710.203,258.082,706.85,257.673L706.85,257.673z"/>
	</g>
</g>
<circle fill="#FFFFFF" cx="747.849" cy="531.571" r="5.313"/>
<rect x="749.169" y="479.672" transform="matrix(-0.9493 -0.3145 0.3145 -0.9493 1321.8649 1185.1216)" fill="none" stroke="#F9F9F9" stroke-width="2.3711" stroke-miterlimit="10" width="14.732" height="12.511"/>
<polygon fill="none" stroke="#F9F9F9" stroke-width="3.2809" stroke-miterlimit="10" points="829.447,524.935 808.121,524.935 
	818.784,542.98 "/>
<g>
	<g>
		<path fill="#F9F9F9" d="M1303.8,497.641c-7.66-0.934-15.32-1.868-22.98-2.801c-3.393-0.414-3.353,4.9,0,5.309
			c7.66,0.934,15.32,1.868,22.98,2.801C1307.194,503.364,1307.154,498.05,1303.8,497.641L1303.8,497.641z"/>
	</g>
</g>
<g>
	<g>
		<path fill="#F9F9F9" d="M771.109,360.037c-5.416-5.497-10.832-10.993-16.248-16.49c-2.406-2.441-6.158,1.314-3.754,3.754
			c5.416,5.497,10.832,10.993,16.248,16.49C769.76,366.232,773.512,362.476,771.109,360.037L771.109,360.037z"/>
	</g>
</g>
<path fill="#F9F9F9" d="M934.352,258.172l11.513,8.595c-2.242,2.843-6.297,3.132-6.297,3.132
	c-8.317,1.541-6.545,10.445-6.545,10.445c0.811,7.118-5.412,7.547-5.412,7.547c-12.324,0.839-9.922,11.608-9.922,11.608
	c0.408,6.786-5.843,6.766-5.843,6.766c-11.016,0.577-8.679,10.874-8.679,10.874c0.638,2.844-1.891,4.658-1.891,4.658l-11.963-9.055
	c0,0,2.57-2.331,2.362-5.946c0,0-0.2-7.601,7.539-8.394c0,0,8.642,0.226,8.026-10.174c0,0-0.983-7.545,8.278-8.333
	c0,0,7.434-1.379,6.552-10.002c0,0-1.226-7.141,7.832-8.547C929.901,261.347,934.16,259.947,934.352,258.172z"/>
<path fill="#010011" stroke="#FFFFFF" stroke-width="2.3711" stroke-miterlimit="10" d="M941.877,260.803l11.513,8.595
	c-2.242,2.843-6.297,3.132-6.297,3.132c-8.317,1.541-6.545,10.445-6.545,10.445c0.811,7.118-5.412,7.547-5.412,7.547
	c-12.324,0.839-9.922,11.608-9.922,11.608c0.408,6.786-5.843,6.766-5.843,6.766c-11.016,0.577-8.679,10.874-8.679,10.874
	c0.638,2.844-1.891,4.658-1.891,4.658l-11.963-9.055c0,0,2.57-2.331,2.362-5.946c0,0-0.2-7.601,7.539-8.394
	c0,0,8.642,0.226,8.026-10.174c0,0-0.983-7.545,8.278-8.333c0,0,7.434-1.379,6.552-10.002c0,0-1.226-7.141,7.832-8.547
	C937.427,263.978,941.685,262.578,941.877,260.803z"/>
<path fill="#F9F9F9" d="M1039.461,428.764l8.507,11.578c-2.973,2.066-6.937,1.16-6.937,1.16c-8.405-0.951-9.306,8.083-9.306,8.083
	c-1.299,7.045-7.377,5.641-7.377,5.641c-12.033-2.791-12.875,8.212-12.875,8.212c-1.588,6.61-7.562,4.769-7.562,4.769
	c-10.705-2.66-11.472,7.872-11.472,7.872c-0.219,2.907-3.167,3.904-3.167,3.904l-8.804-12.149c0,0,3.138-1.481,3.993-4.999
	c0,0,2.025-7.329,9.659-5.832c0,0,8.201,2.735,10.644-7.392c0,0,1.259-7.504,10.348-5.557c0,0,7.513,0.849,9.184-7.657
	c0,0,0.909-7.188,9.983-5.892C1034.278,430.503,1038.76,430.406,1039.461,428.764z"/>
<path fill="#010011" stroke="#FFFFFF" stroke-width="2.3711" stroke-miterlimit="10" d="M1045.892,433.475l8.507,11.577
	c-2.973,2.066-6.937,1.16-6.937,1.16c-8.405-0.951-9.306,8.083-9.306,8.083c-1.299,7.045-7.377,5.641-7.377,5.641
	c-12.033-2.791-12.875,8.212-12.875,8.212c-1.588,6.61-7.562,4.769-7.562,4.769c-10.705-2.66-11.472,7.871-11.472,7.871
	c-0.219,2.907-3.167,3.904-3.167,3.904l-8.804-12.149c0,0,3.138-1.481,3.993-4.999c0,0,2.025-7.329,9.659-5.832
	c0,0,8.201,2.735,10.644-7.392c0,0,1.259-7.504,10.348-5.557c0,0,7.513,0.849,9.184-7.657c0,0,0.909-7.188,9.983-5.892
	C1040.709,435.214,1045.191,435.117,1045.892,433.475z"/>
<polygon fill="none" stroke="#F9F9F9" stroke-width="3.2809" stroke-miterlimit="10" points="812.341,346.962 832.585,353.669 
	828.138,333.186 "/>
<polygon fill="none" stroke="#F9F9F9" stroke-width="2.3711" stroke-miterlimit="10" points="879.298,447.506 899.542,454.213 
	895.095,433.73 "/>
<polygon fill="none" stroke="#F9F9F9" stroke-width="2.3711" stroke-miterlimit="10" points="1004.096,396.687 1024.34,403.394 
	1019.893,382.911 "/>
<circle fill="#FFFFFF" cx="941.285" cy="421.921" r="5.313"/>
<circle fill="#FFFFFF" cx="1069.099" cy="388.561" r="5.313"/>
<circle fill="#FFFFFF" cx="1118.379" cy="453.997" r="5.313"/>
<circle fill="#FFFFFF" cx="1263.828" cy="459.311" r="5.313"/>
<rect x="1187.639" y="438.456" transform="matrix(0.9428 -0.3335 0.3335 0.9428 -79.8972 423.9937)" fill="none" stroke="#F9F9F9" stroke-width="2.3711" stroke-miterlimit="10" width="14.732" height="12.511"/>
<g>
	<g>
		<path fill="#F9F9F9" d="M1249.024,403.93c-6.978,3.295-13.955,6.59-20.933,9.885c-3.094,1.461-0.398,6.037,2.679,4.584
			c6.978-3.295,13.955-6.59,20.933-9.885C1254.797,407.053,1252.101,402.477,1249.024,403.93L1249.024,403.93z"/>
	</g>
</g>
<g>
	<g>
		<path fill="#F9F9F9" d="M1140.148,392.919c-2.369,7.344-4.739,14.688-7.108,22.032c-1.054,3.267,4.073,4.655,5.119,1.411
			c2.369-7.344,4.739-14.688,7.108-22.032C1146.322,391.062,1141.195,389.674,1140.148,392.919L1140.148,392.919z"/>
	</g>
</g>
<polygon fill="none" stroke="#F9F9F9" stroke-width="2.3711" stroke-miterlimit="10" points="1148.763,519.215 1169.007,525.922 
	1164.56,505.439 "/>
<rect x="734.157" y="217.463" transform="matrix(-0.3653 0.9309 -0.9309 -0.3653 1220.6494 -384.8406)" fill="none" stroke="#F9F9F9" stroke-width="2.3711" stroke-miterlimit="10" width="14.732" height="12.511"/>
<polygon fill="none" stroke="#F9F9F9" stroke-width="2.3711" stroke-miterlimit="10" points="792.097,244.209 812.341,250.916 
	807.894,230.433 "/>
<circle fill="#FFFFFF" cx="1226.358" cy="507.398" r="5.313"/>
<circle fill="#FFFFFF" cx="975.074" cy="524.935" r="5.313"/>
<circle fill="#FFFFFF" cx="782.093" cy="270.398" r="5.313"/>
<circle fill="#FFFFFF" cx="866.7" cy="261.376" r="5.313"/>
<circle fill="#FFFFFF" cx="1077.788" cy="226.766" r="5.313"/>
<rect x="898.4" y="180.232" transform="matrix(-0.9493 -0.3145 0.3145 -0.9493 1706.9272 648.3655)" fill="none" stroke="#F9F9F9" stroke-width="2.3711" stroke-miterlimit="10" width="14.732" height="12.511"/>
<rect x="1161.354" y="225.825" transform="matrix(-0.3653 0.9309 -0.9309 -0.3653 1811.6798 -771.1003)" fill="none" stroke="#F9F9F9" stroke-width="2.3711" stroke-miterlimit="10" width="14.732" height="12.511"/>
<rect x="1135.18" y="125.539" transform="matrix(-0.3653 0.9309 -0.9309 -0.3653 1682.5892 -883.6531)" fill="none" stroke="#F9F9F9" stroke-width="2.3711" stroke-miterlimit="10" width="14.732" height="12.511"/>
<polygon fill="none" stroke="#F9F9F9" stroke-width="3.2809" stroke-miterlimit="10" points="1021.483,177.465 1000.157,177.465 
	1010.82,195.51 "/>
<g>
	<g>
		<path fill="#F9F9F9" d="M950.023,195.407c3.852-6.686,7.705-13.372,11.557-20.058c1.712-2.972-2.876-5.644-4.584-2.679
			c-3.852,6.686-7.705,13.372-11.557,20.058C943.727,195.699,948.315,198.371,950.023,195.407L950.023,195.407z"/>
	</g>
</g>
<g>
	<g>
		<path fill="#F9F9F9" d="M1114.463,182.784c-7.66-0.934-15.32-1.868-22.98-2.801c-3.393-0.414-3.353,4.9,0,5.309
			c7.66,0.934,15.32,1.868,22.98,2.801C1117.856,188.507,1117.816,183.193,1114.463,182.784L1114.463,182.784z"/>
	</g>
</g>
<circle fill="#FFFFFF" cx="1176.472" cy="180.75" r="5.313"/>
<polygon fill="none" stroke="#F9F9F9" stroke-width="3.2809" stroke-miterlimit="10" points="1344.422,478.744 1364.666,485.451 
	1360.219,464.968 "/>
<rect x="1402.803" y="442.737" transform="matrix(-0.3653 0.9309 -0.9309 -0.3653 2343.2498 -699.7173)" fill="none" stroke="#F9F9F9" stroke-width="2.3711" stroke-miterlimit="10" width="14.732" height="12.511"/>
<g>
	<g>
		<path fill="#F9F9F9" d="M1355.912,399.696c-7.66-0.934-15.32-1.868-22.98-2.801c-3.393-0.414-3.353,4.9,0,5.309
			c7.66,0.934,15.32,1.868,22.98,2.801C1359.305,405.418,1359.265,400.105,1355.912,399.696L1355.912,399.696z"/>
	</g>
</g>
<g>
	<g>
		<path fill="#F9F9F9" d="M1420.171,502.06c-5.416-5.497-10.832-10.993-16.248-16.49c-2.406-2.441-6.158,1.314-3.754,3.754
			c5.416,5.497,10.832,10.993,16.248,16.49C1418.822,508.255,1422.574,504.5,1420.171,502.06L1420.171,502.06z"/>
	</g>
</g>
<rect x="859.334" y="491.185" transform="matrix(-0.8669 0.4984 -0.4984 -0.8669 1866.0071 496.6935)" fill="none" stroke="#F9F9F9" stroke-width="2.3711" stroke-miterlimit="10" width="14.732" height="12.511"/>
<g>
	<g>
		<path fill="#F9F9F9" d="M936.872,472.317c-5.799,5.091-11.599,10.181-17.398,15.272c-2.578,2.263,1.192,6.002,3.754,3.754
			c5.799-5.091,11.599-10.181,17.398-15.272C943.203,473.809,939.433,470.069,936.872,472.317L936.872,472.317z"/>
	</g>
</g>
<g>
	<g>
		<path fill="#F9F9F9" d="M1054.572,494.314c-7.71,0.314-15.42,0.629-23.13,0.943c-3.411,0.139-3.425,5.448,0,5.309
			c7.71-0.314,15.42-0.629,23.13-0.943C1057.983,499.484,1057.996,494.174,1054.572,494.314L1054.572,494.314z"/>
	</g>
</g>
<g>
	<g>
		<path fill="#F9F9F9" d="M832.464,467.755c-5.416-5.497-10.832-10.993-16.248-16.49c-2.406-2.441-6.158,1.314-3.754,3.754
			c5.416,5.497,10.832,10.993,16.248,16.49C831.115,473.95,834.867,470.195,832.464,467.755L832.464,467.755z"/>
	</g>
</g>
<circle fill="#FFFFFF" cx="1238.34" cy="179.46" r="5.313"/>
<circle fill="#FFFFFF" cx="1266.424" cy="102.373" r="5.313"/>
<polygon fill="none" stroke="#F9F9F9" stroke-width="3.2809" stroke-miterlimit="10" points="1275.795,211.15 1296.039,217.857 
	1291.592,197.374 "/>
<circle fill="#FFFFFF" cx="1357.127" cy="197.374" r="5.313"/>
<g>
	<g>
		<path fill="#F9F9F9" d="M1234.967,235.903c-7.405-2.171-14.81-4.341-22.215-6.512c-3.293-0.965-4.689,4.158-1.411,5.119
			c7.405,2.171,14.81,4.341,22.215,6.512C1236.848,241.987,1238.245,236.863,1234.967,235.903L1234.967,235.903z"/>
	</g>
</g>
<g>
	<g>
		<path fill="#F9F9F9" d="M1020.733,232.776c-7.405-2.171-14.81-4.341-22.215-6.512c-3.293-0.965-4.689,4.158-1.411,5.119
			c7.405,2.171,14.81,4.341,22.215,6.512C1022.615,238.861,1024.011,233.737,1020.733,232.776L1020.733,232.776z"/>
	</g>
</g>
<g>
	<g>
		<path fill="#F9F9F9" d="M911.355,231.13c-7.405-2.171-14.81-4.341-22.215-6.512c-3.293-0.965-4.689,4.158-1.411,5.119
			c7.405,2.171,14.81,4.341,22.215,6.512C913.237,237.214,914.633,232.091,911.355,231.13L911.355,231.13z"/>
	</g>
</g>
<g>
	<g>
		<path fill="#F9F9F9" d="M814.032,192.757c-7.405-2.171-14.81-4.341-22.215-6.512c-3.293-0.965-4.689,4.158-1.411,5.119
			c7.405,2.171,14.81,4.341,22.215,6.512C815.914,198.842,817.31,193.718,814.032,192.757L814.032,192.757z"/>
	</g>
</g>
<circle fill="#FFFFFF" cx="1264.535" cy="312.564" r="5.313"/>
<rect x="1265.854" y="260.666" transform="matrix(-0.9493 -0.3145 0.3145 -0.9493 2397.8955 920.7121)" fill="none" stroke="#F9F9F9" stroke-width="2.3711" stroke-miterlimit="10" width="14.732" height="12.511"/>
<rect x="1213.198" y="134.681" transform="matrix(-0.9493 -0.3145 0.3145 -0.9493 2334.8743 658.5756)" fill="none" stroke="#F9F9F9" stroke-width="2.3711" stroke-miterlimit="10" width="14.732" height="12.511"/>
<rect x="1269" y="365.186" transform="matrix(-0.9493 -0.3145 0.3145 -0.9493 2371.1562 1125.4395)" fill="none" stroke="#F9F9F9" stroke-width="2.3711" stroke-miterlimit="10" width="14.732" height="12.511"/>
<polygon fill="none" stroke="#F9F9F9" stroke-width="3.2809" stroke-miterlimit="10" points="1346.132,305.928 1324.807,305.928 
	1335.469,323.973 "/>
<polygon fill="none" stroke="#F9F9F9" stroke-width="3.2809" stroke-miterlimit="10" points="1415.725,329.871 1394.399,329.871 
	1405.062,347.916 "/>
<polygon fill="none" stroke="#F9F9F9" stroke-width="2.3711" stroke-miterlimit="10" points="1395.984,228.499 1416.228,235.206 
	1411.781,214.723 "/>
<polygon fill="none" stroke="#F9F9F9" stroke-width="2.3711" stroke-miterlimit="10" points="1397.147,154.44 1417.39,161.147 
	1412.943,140.664 "/>
<rect x="1376.02" y="272.178" transform="matrix(-0.8669 0.4984 -0.4984 -0.8669 2721.4622 -169.7096)" fill="none" stroke="#F9F9F9" stroke-width="2.3711" stroke-miterlimit="10" width="14.732" height="12.511"/>
<g>
	<g>
		<path fill="#F9F9F9" d="M1349.149,248.748c-5.416-5.497-10.832-10.993-16.248-16.49c-2.406-2.441-6.158,1.314-3.754,3.754
			c5.416,5.497,10.832,10.993,16.248,16.49C1347.801,254.943,1351.553,251.188,1349.149,248.748L1349.149,248.748z"/>
	</g>
</g>
<path fill="#F9F9F9" d="M94.376,67.829l8.507,11.577c-2.973,2.066-6.937,1.16-6.937,1.16c-8.405-0.951-9.306,8.083-9.306,8.083
	c-1.299,7.045-7.377,5.641-7.377,5.641c-12.033-2.791-12.875,8.212-12.875,8.212c-1.588,6.61-7.562,4.769-7.562,4.769
	c-10.705-2.66-11.472,7.872-11.472,7.872c-0.219,2.907-3.167,3.904-3.167,3.904l-8.804-12.149c0,0,3.138-1.481,3.993-4.999
	c0,0,2.025-7.329,9.659-5.832c0,0,8.201,2.735,10.644-7.392c0,0,1.259-7.504,10.348-5.557c0,0,7.513,0.849,9.184-7.657
	c0,0,0.909-7.188,9.983-5.892C89.193,69.568,93.675,69.471,94.376,67.829z"/>
<path fill="#010011" stroke="#FFFFFF" stroke-width="2.3711" stroke-miterlimit="10" d="M100.807,72.54l8.507,11.577
	c-2.973,2.066-6.937,1.16-6.937,1.16c-8.405-0.951-9.306,8.083-9.306,8.083c-1.299,7.045-7.377,5.641-7.377,5.641
	c-12.033-2.791-12.875,8.212-12.875,8.212c-1.588,6.61-7.562,4.769-7.562,4.769c-10.705-2.66-11.472,7.872-11.472,7.872
	c-0.219,2.907-3.167,3.904-3.167,3.904l-8.804-12.149c0,0,3.138-1.481,3.993-4.999c0,0,2.025-7.329,9.659-5.832
	c0,0,8.201,2.735,10.644-7.392c0,0,1.259-7.504,10.348-5.557c0,0,7.513,0.849,9.184-7.657c0,0,0.909-7.188,9.983-5.892
	C95.624,74.279,100.106,74.182,100.807,72.54z"/>
<circle fill="#FFFFFF" cx="108.503" cy="-6.26" r="5.313"/>
<polygon fill="none" stroke="#F9F9F9" stroke-width="3.2809" stroke-miterlimit="10" points="133.687,28.806 153.931,35.513 
	149.484,15.03 "/>
<rect x="322.523" y="61.573" transform="matrix(-0.3653 0.9309 -0.9309 -0.3653 513.5347 -214.4867)" fill="none" stroke="#F9F9F9" stroke-width="2.3711" stroke-miterlimit="10" width="14.732" height="12.511"/>
<rect x="198.103" y="96.117" transform="matrix(-0.3653 0.9309 -0.9309 -0.3653 375.8226 -51.5026)" fill="none" stroke="#F9F9F9" stroke-width="2.3711" stroke-miterlimit="10" width="14.732" height="12.511"/>
<rect x="192.068" y="-7.201" transform="matrix(-0.3653 0.9309 -0.9309 -0.3653 271.4043 -186.9435)" fill="none" stroke="#F9F9F9" stroke-width="2.3711" stroke-miterlimit="10" width="14.732" height="12.511"/>
<g>
	<g>
		<path fill="#F9F9F9" d="M399.019,58.167c-6.895,3.464-13.791,6.928-20.686,10.393c-3.06,1.537-0.371,6.116,2.679,4.584
			c6.895-3.464,13.791-6.928,20.686-10.393C404.759,61.214,402.07,56.635,399.019,58.167L399.019,58.167z"/>
	</g>
</g>
<g>
	<g>
		<path fill="#F9F9F9" d="M314.235,131.35c-7.681-0.737-15.363-1.473-23.044-2.21c-3.408-0.327-3.376,4.985,0,5.309
			c7.681,0.737,15.363,1.473,23.044,2.21C317.643,136.985,317.611,131.673,314.235,131.35L314.235,131.35z"/>
	</g>
</g>
<g>
	<g>
		<path fill="#F9F9F9" d="M276.456-19.062c-6.895,3.464-13.791,6.928-20.686,10.393c-3.06,1.537-0.371,6.116,2.679,4.584
			c6.895-3.464,13.791-6.928,20.686-10.393C282.195-16.016,279.507-20.595,276.456-19.062L276.456-19.062z"/>
	</g>
</g>
<g>
	<g>
		<path fill="#F9F9F9" d="M44.727,35.98c-6.023-4.823-12.047-9.647-18.07-14.47c-2.644-2.117-6.426,1.614-3.754,3.754
			c6.023,4.823,12.047,9.647,18.07,14.47C43.617,41.851,47.4,38.12,44.727,35.98L44.727,35.98z"/>
	</g>
</g>
<circle fill="#FFFFFF" cx="444.925" cy="166.855" r="5.313"/>
<circle fill="#FFFFFF" cx="378.119" cy="114.336" r="5.313"/>
<circle fill="#FFFFFF" cx="607.987" cy="150.905" r="5.313"/>
<rect x="428.599" y="104.372" transform="matrix(-0.9493 -0.3145 0.3145 -0.9493 815.0195 352.7471)" fill="none" stroke="#F9F9F9" stroke-width="2.3711" stroke-miterlimit="10" width="14.732" height="12.511"/>
<rect x="705.704" y="117.502" transform="matrix(-0.3653 0.9309 -0.9309 -0.3653 1088.7506 -494.8297)" fill="none" stroke="#F9F9F9" stroke-width="2.3711" stroke-miterlimit="10" width="14.732" height="12.511"/>
<polygon fill="none" stroke="#F9F9F9" stroke-width="3.2809" stroke-miterlimit="10" points="551.682,101.604 530.356,101.604 
	541.019,119.649 "/>
<g>
	<g>
		<path fill="#F9F9F9" d="M480.222,119.547c3.852-6.686,7.705-13.372,11.557-20.058c1.712-2.972-2.876-5.644-4.584-2.679
			c-3.852,6.686-7.705,13.372-11.557,20.058C473.926,119.839,478.514,122.511,480.222,119.547L480.222,119.547z"/>
	</g>
</g>
<g>
	<g>
		<path fill="#F9F9F9" d="M644.662,106.924c-7.66-0.934-15.32-1.868-22.98-2.801c-3.393-0.414-3.353,4.9,0,5.309
			c7.66,0.934,15.32,1.868,22.98,2.801C648.055,112.646,648.015,107.333,644.662,106.924L644.662,106.924z"/>
	</g>
</g>
<g>
	<g>
		<path fill="#F9F9F9" d="M537.727,164.949c-7.66-0.934-15.32-1.868-22.98-2.801c-3.393-0.414-3.353,4.9,0,5.309
			c7.66,0.934,15.32,1.868,22.98,2.801C541.12,170.672,541.08,165.358,537.727,164.949L537.727,164.949z"/>
	</g>
</g>
<g>
	<g>
		<path fill="#F9F9F9" d="M209.435,52.122c-5.416-5.497-10.832-10.993-16.248-16.49c-2.406-2.441-6.158,1.314-3.754,3.754
			c5.416,5.497,10.832,10.993,16.248,16.49C208.087,58.318,211.839,54.562,209.435,52.122L209.435,52.122z"/>
	</g>
</g>
<path fill="#F9F9F9" d="M371.465-34.551l8.507,11.577c-2.973,2.066-6.937,1.16-6.937,1.16c-8.405-0.951-9.306,8.083-9.306,8.083
	c-1.299,7.045-7.377,5.641-7.377,5.641c-12.033-2.791-12.875,8.212-12.875,8.212c-1.588,6.61-7.562,4.769-7.562,4.769
	c-10.705-2.66-11.472,7.872-11.472,7.872c-0.219,2.907-3.167,3.904-3.167,3.904l-8.804-12.149c0,0,3.138-1.481,3.993-4.999
	c0,0,2.025-7.329,9.659-5.832c0,0,8.201,2.735,10.644-7.392c0,0,1.259-7.504,10.348-5.557c0,0,7.513,0.849,9.184-7.657
	c0,0,0.909-7.188,9.983-5.892C366.282-32.812,370.764-32.909,371.465-34.551z"/>
<path fill="#010011" stroke="#FFFFFF" stroke-width="2.3711" stroke-miterlimit="10" d="M377.896-29.84l8.507,11.577
	c-2.973,2.066-6.937,1.16-6.937,1.16c-8.405-0.951-9.306,8.083-9.306,8.083c-1.299,7.045-7.377,5.641-7.377,5.641
	c-12.033-2.791-12.875,8.212-12.875,8.212c-1.588,6.61-7.562,4.769-7.562,4.769c-10.705-2.66-11.472,7.872-11.472,7.872
	c-0.219,2.907-3.167,3.904-3.167,3.904l-8.804-12.149c0,0,3.138-1.481,3.993-4.999c0,0,2.025-7.329,9.659-5.832
	c0,0,8.201,2.735,10.644-7.392c0,0,1.259-7.504,10.348-5.557c0,0,7.513,0.849,9.184-7.657c0,0,0.909-7.188,9.983-5.892
	C372.713-28.101,377.195-28.198,377.896-29.84z"/>
<path fill="#F9F9F9" d="M725.601-35.752l8.507,11.577c-2.973,2.066-6.937,1.16-6.937,1.16c-8.405-0.951-9.306,8.083-9.306,8.083
	c-1.299,7.045-7.377,5.641-7.377,5.641c-12.033-2.791-12.875,8.212-12.875,8.212c-1.588,6.61-7.562,4.769-7.562,4.769
	c-10.705-2.66-11.472,7.872-11.472,7.872c-0.219,2.907-3.167,3.904-3.167,3.904l-8.804-12.149c0,0,3.138-1.481,3.993-4.999
	c0,0,2.025-7.329,9.659-5.832c0,0,8.201,2.735,10.644-7.392c0,0,1.259-7.504,10.348-5.557c0,0,7.513,0.849,9.184-7.657
	c0,0,0.909-7.188,9.983-5.892C720.418-34.013,724.9-34.11,725.601-35.752z"/>
<path fill="#010011" stroke="#FFFFFF" stroke-width="2.3711" stroke-miterlimit="10" d="M732.032-31.041l8.507,11.577
	c-2.973,2.066-6.937,1.16-6.937,1.16c-8.405-0.951-9.306,8.083-9.306,8.083c-1.299,7.045-7.377,5.641-7.377,5.641
	c-12.033-2.791-12.875,8.212-12.875,8.212c-1.588,6.61-7.562,4.769-7.562,4.769c-10.705-2.66-11.472,7.872-11.472,7.872
	c-0.219,2.907-3.167,3.904-3.167,3.904l-8.804-12.149c0,0,3.138-1.481,3.993-4.999c0,0,2.025-7.329,9.659-5.832
	c0,0,8.201,2.735,10.644-7.392c0,0,1.259-7.504,10.348-5.557c0,0,7.513,0.849,9.184-7.657c0,0,0.909-7.188,9.983-5.892
	C726.849-29.302,731.331-29.399,732.032-31.041z"/>
<polygon fill="none" stroke="#F9F9F9" stroke-width="3.2809" stroke-miterlimit="10" points="250.667,39.048 270.911,45.754 
	266.464,25.272 "/>
<circle fill="#FFFFFF" cx="456.797" cy="60.459" r="5.313"/>
<circle fill="#FFFFFF" cx="550.216" cy="9.562" r="5.313"/>
<rect x="518.871" y="49.959" transform="matrix(-0.9493 -0.3145 0.3145 -0.9493 1008.095 275.0716)" fill="none" stroke="#F9F9F9" stroke-width="2.3711" stroke-miterlimit="10" width="14.732" height="12.511"/>
<rect x="606.6" y="-5.15" transform="matrix(-0.9493 -0.3145 0.3145 -0.9493 1196.4324 195.2391)" fill="none" stroke="#F9F9F9" stroke-width="2.3711" stroke-miterlimit="10" width="14.732" height="12.511"/>
<g>
	<g>
		<path fill="#F9F9F9" d="M1028.097,64.175c-2.369,7.344-4.739,14.688-7.108,22.032c-1.054,3.267,4.073,4.655,5.119,1.411
			c2.369-7.344,4.739-14.688,7.108-22.032C1034.27,62.319,1029.144,60.931,1028.097,64.175L1028.097,64.175z"/>
	</g>
</g>
<polygon fill="none" stroke="#F9F9F9" stroke-width="3.2809" stroke-miterlimit="10" points="641.954,47.192 620.628,47.192 
	631.291,65.237 "/>
<polygon fill="none" stroke="#F9F9F9" stroke-width="3.2809" stroke-miterlimit="10" points="492.635,0.667 471.309,0.667 
	481.972,18.712 "/>
<g>
	<g>
		<path fill="#F9F9F9" d="M570.494,65.134c3.852-6.686,7.705-13.372,11.557-20.058c1.712-2.972-2.876-5.644-4.584-2.679
			c-3.852,6.686-7.705,13.372-11.557,20.058C564.198,65.426,568.786,68.098,570.494,65.134L570.494,65.134z"/>
	</g>
</g>
<g>
	<g>
		<path fill="#F9F9F9" d="M431.571-0.235c-3.831-6.698-7.663-13.396-11.494-20.095c-1.699-2.97-6.287-0.297-4.584,2.679
			c3.831,6.698,7.663,13.396,11.494,20.095C428.686,5.415,433.273,2.742,431.571-0.235L431.571-0.235z"/>
	</g>
</g>
<g>
	<g>
		<path fill="#F9F9F9" d="M734.933,52.511c-7.66-0.934-15.32-1.868-22.98-2.801c-3.393-0.414-3.353,4.9,0,5.309
			c7.66,0.934,15.32,1.868,22.98,2.801C738.327,58.233,738.287,52.92,734.933,52.511L734.933,52.511z"/>
	</g>
</g>
<path fill="#F9F9F9" d="M962.436,53.01l11.513,8.595c-2.242,2.843-6.297,3.132-6.297,3.132c-8.317,1.541-6.545,10.445-6.545,10.445
	c0.811,7.118-5.412,7.547-5.412,7.547c-12.324,0.839-9.922,11.608-9.922,11.608c0.408,6.786-5.843,6.766-5.843,6.766
	c-11.016,0.577-8.679,10.874-8.679,10.874c0.638,2.844-1.891,4.658-1.891,4.658l-11.963-9.055c0,0,2.57-2.331,2.362-5.946
	c0,0-0.2-7.601,7.539-8.394c0,0,8.642,0.226,8.026-10.174c0,0-0.983-7.545,8.278-8.333c0,0,7.434-1.379,6.552-10.002
	c0,0-1.226-7.141,7.832-8.547C957.985,56.185,962.244,54.785,962.436,53.01z"/>
<path fill="#010011" stroke="#FFFFFF" stroke-width="2.3711" stroke-miterlimit="10" d="M969.961,55.642l11.513,8.595
	c-2.242,2.843-6.297,3.132-6.297,3.132c-8.317,1.541-6.545,10.445-6.545,10.445c0.811,7.118-5.412,7.547-5.412,7.547
	c-12.324,0.839-9.922,11.608-9.922,11.608c0.408,6.786-5.843,6.766-5.843,6.766c-11.016,0.577-8.679,10.874-8.679,10.874
	c0.638,2.844-1.891,4.658-1.891,4.658l-11.963-9.055c0,0,2.57-2.331,2.362-5.946c0,0-0.2-7.601,7.539-8.394
	c0,0,8.642,0.226,8.026-10.174c0,0-0.983-7.545,8.278-8.333c0,0,7.434-1.379,6.552-10.002c0,0-1.226-7.141,7.832-8.547
	C965.51,58.816,969.769,57.417,969.961,55.642z"/>
<path fill="#F9F9F9" d="M1351.011,113.101l7.662,12.153c-3.112,1.849-7.002,0.663-7.002,0.663c-8.316-1.546-9.857,7.401-9.857,7.401
	c-1.797,6.935-7.759,5.102-7.759,5.102c-11.804-3.64-13.427,7.275-13.427,7.275c-2.054,6.48-7.882,4.219-7.882,4.219
	c-10.489-3.415-12.003,7.036-12.003,7.036c-0.425,2.884-3.437,3.669-3.437,3.669l-7.917-12.744c0,0,3.235-1.254,4.339-4.702
	c0,0,2.541-7.167,10.049-5.13c0,0,7.985,3.312,11.142-6.616c0,0,1.79-7.395,10.717-4.807c0,0,7.433,1.381,9.705-6.985
	c0,0,1.418-7.105,10.377-5.167C1345.717,114.467,1350.195,114.689,1351.011,113.101z"/>
<path fill="#010011" stroke="#FFFFFF" stroke-width="2.3711" stroke-miterlimit="10" d="M1357.091,118.257l7.662,12.153
	c-3.112,1.849-7.002,0.663-7.002,0.663c-8.316-1.546-9.857,7.401-9.857,7.401c-1.797,6.935-7.76,5.102-7.76,5.102
	c-11.804-3.64-13.427,7.275-13.427,7.275c-2.054,6.48-7.882,4.219-7.882,4.219c-10.489-3.415-12.003,7.036-12.003,7.036
	c-0.425,2.884-3.437,3.669-3.437,3.669l-7.917-12.744c0,0,3.235-1.254,4.339-4.702c0,0,2.541-7.167,10.049-5.13
	c0,0,7.985,3.312,11.142-6.616c0,0,1.79-7.395,10.717-4.807c0,0,7.433,1.381,9.705-6.985c0,0,1.418-7.105,10.377-5.167
	C1351.797,119.623,1356.275,119.845,1357.091,118.257z"/>
<rect x="762.24" y="12.301" transform="matrix(-0.3653 0.9309 -0.9309 -0.3653 1068.007 -691.0876)" fill="none" stroke="#F9F9F9" stroke-width="2.3711" stroke-miterlimit="10" width="14.732" height="12.511"/>
<rect x="1135.18" y="-2.008" transform="matrix(-0.3653 0.9309 -0.9309 -0.3653 1563.8563 -1057.7914)" fill="none" stroke="#F9F9F9" stroke-width="2.3711" stroke-miterlimit="10" width="14.732" height="12.511"/>
<polygon fill="none" stroke="#F9F9F9" stroke-width="2.3711" stroke-miterlimit="10" points="831.288,34.157 851.531,40.863 
	847.084,20.381 "/>
<polygon fill="none" stroke="#F9F9F9" stroke-width="2.3711" stroke-miterlimit="10" points="971.351,18.41 991.595,25.117 
	987.148,4.634 "/>
<polygon fill="none" stroke="#F9F9F9" stroke-width="2.3711" stroke-miterlimit="10" points="766.658,135.329 786.902,142.036 
	782.455,121.553 "/>
<circle fill="#FFFFFF" cx="810.177" cy="65.237" r="5.313"/>
<circle fill="#FFFFFF" cx="833.97" cy="123.757" r="5.313"/>
<circle fill="#FFFFFF" cx="894.783" cy="56.214" r="5.313"/>
<circle fill="#FFFFFF" cx="1105.872" cy="21.604" r="5.313"/>
<circle fill="#FFFFFF" cx="1072.474" cy="131.794" r="5.313"/>
<rect x="1003.454" y="125.539" transform="matrix(-0.9493 -0.3145 0.3145 -0.9493 1928.9042 574.7934)" fill="none" stroke="#F9F9F9" stroke-width="2.3711" stroke-miterlimit="10" width="14.732" height="12.511"/>
<rect x="1189.437" y="20.663" transform="matrix(-0.3653 0.9309 -0.9309 -0.3653 1659.0374 -1077.3473)" fill="none" stroke="#F9F9F9" stroke-width="2.3711" stroke-miterlimit="10" width="14.732" height="12.511"/>
<polygon fill="none" stroke="#F9F9F9" stroke-width="3.2809" stroke-miterlimit="10" points="1099.959,61.829 1078.633,61.829 
	1089.296,79.874 "/>
<polygon fill="none" stroke="#F9F9F9" stroke-width="3.2809" stroke-miterlimit="10" points="1303.879,5.988 1324.123,12.695 
	1319.676,-7.788 "/>
<circle fill="#FFFFFF" cx="1385.21" cy="-7.788" r="5.313"/>
<circle fill="#FFFFFF" cx="1351.814" cy="79.874" r="5.313"/>
<g>
	<g>
		<path fill="#F9F9F9" d="M1263.05,30.741c-7.405-2.171-14.81-4.341-22.215-6.512c-3.293-0.965-4.689,4.158-1.411,5.119
			c7.405,2.171,14.81,4.341,22.215,6.512C1264.932,36.825,1266.328,31.702,1263.05,30.741L1263.05,30.741z"/>
	</g>
</g>
<g>
	<g>
		<path fill="#F9F9F9" d="M1163.431,82.64c-1.062-7.643-2.124-15.286-3.185-22.93c-0.469-3.379-5.584-1.935-5.119,1.411
			c1.062,7.643,2.124,15.286,3.185,22.93C1158.782,87.43,1163.896,85.986,1163.431,82.64L1163.431,82.64z"/>
	</g>
</g>
<g>
	<g>
		<path fill="#F9F9F9" d="M1048.816,27.615c-7.405-2.171-14.81-4.341-22.215-6.512c-3.293-0.965-4.689,4.158-1.411,5.119
			c7.405,2.171,14.81,4.341,22.215,6.512C1050.698,33.699,1052.094,28.576,1048.816,27.615L1048.816,27.615z"/>
	</g>
</g>
<g>
	<g>
		<path fill="#F9F9F9" d="M939.439,25.968c-7.405-2.171-14.81-4.341-22.215-6.512c-3.293-0.965-4.689,4.158-1.411,5.119
			c7.405,2.171,14.81,4.341,22.215,6.512C941.32,32.053,942.717,26.929,939.439,25.968L939.439,25.968z"/>
	</g>
</g>
<g>
	<g>
		<path fill="#F9F9F9" d="M896.153,132.642c-3.617-6.816-7.235-13.632-10.852-20.449c-1.605-3.025-6.188-0.342-4.584,2.679
			c3.617,6.816,7.235,13.632,10.852,20.449C893.174,138.346,897.757,135.664,896.153,132.642L896.153,132.642z"/>
	</g>
</g>
<g>
	<g>
		<path fill="#F9F9F9" d="M842.115-12.404c-7.405-2.171-14.81-4.341-22.215-6.512c-3.293-0.965-4.689,4.158-1.411,5.119
			c7.405,2.171,14.81,4.341,22.215,6.512C843.997-6.32,845.393-11.443,842.115-12.404L842.115-12.404z"/>
	</g>
</g>
<rect x="1293.938" y="55.504" transform="matrix(-0.9493 -0.3145 0.3145 -0.9493 2517.158 529.6302)" fill="none" stroke="#F9F9F9" stroke-width="2.3711" stroke-miterlimit="10" width="14.732" height="12.511"/>
<rect x="1404.103" y="67.016" transform="matrix(-0.8669 0.4984 -0.4984 -0.8669 2671.6323 -566.7294)" fill="none" stroke="#F9F9F9" stroke-width="2.3711" stroke-miterlimit="10" width="14.732" height="12.511"/>
<g>
	<g>
		<path fill="#F9F9F9" d="M1377.233,43.586c-5.416-5.497-10.832-10.993-16.248-16.49c-2.406-2.441-6.158,1.314-3.754,3.754
			c5.416,5.497,10.832,10.993,16.248,16.49C1375.884,49.782,1379.636,46.026,1377.233,43.586L1377.233,43.586z"/>
	</g>
</g>
<circle fill="#FFFFFF" cx="412.069" cy="401.352" r="5.313"/>
<path fill="#F9F9F9" d="M1495.93,511.182l-5.463-11.944c3.045-1.297,6.425,0.251,6.425,0.251c7.347,2.413,9.832-5.506,9.832-5.506
	c2.472-6.065,7.651-3.679,7.651-3.679c10.253,4.734,13.051-4.958,13.051-4.958c2.65-5.621,7.655-2.863,7.655-2.863
	c9.088,4.37,11.732-4.914,11.732-4.914c0.736-2.561,3.561-2.906,3.561-2.906l5.623,12.511c0,0-3.084,0.742-4.503,3.732
	c0,0-3.174,6.184-9.729,3.425c0,0-6.832-3.972-10.901,4.639c0,0-2.522,6.483-10.295,3.051c0,0-6.567-2.156-9.643,5.148
	c0,0-2.15,6.265-10.031,3.419C1500.893,510.589,1496.863,509.843,1495.93,511.182z"/>
<path fill="#010011" stroke="#FFFFFF" stroke-width="2.3711" stroke-miterlimit="10" d="M1491.049,505.77l-5.463-11.944
	c3.045-1.297,6.425,0.251,6.425,0.251c7.347,2.413,9.832-5.506,9.832-5.506c2.472-6.065,7.651-3.679,7.651-3.679
	c10.253,4.734,13.051-4.958,13.051-4.958c2.65-5.621,7.655-2.863,7.655-2.863c9.088,4.37,11.732-4.914,11.732-4.914
	c0.736-2.561,3.561-2.906,3.561-2.906l5.623,12.511c0,0-3.084,0.742-4.503,3.732c0,0-3.174,6.184-9.729,3.425
	c0,0-6.832-3.972-10.901,4.639c0,0-2.522,6.483-10.295,3.051c0,0-6.567-2.156-9.643,5.148c0,0-2.15,6.265-10.031,3.419
	C1496.012,505.177,1491.982,504.431,1491.049,505.77z"/>
<circle fill="#FFFFFF" cx="1831.8" cy="492.444" r="5.313"/>
<circle fill="#FFFFFF" cx="1748.605" cy="481.745" r="4.573"/>
<rect x="1670.174" y="451.443" fill="none" stroke="#F9F9F9" stroke-width="2.3711" stroke-miterlimit="10" width="14.732" height="12.511"/>
<rect x="1490.773" y="429.864" fill="none" stroke="#F9F9F9" stroke-width="2.3711" stroke-miterlimit="10" width="14.732" height="12.511"/>
<path fill="#F9F9F9" d="M1669.033,247.337l8.507,11.577c-2.973,2.066-6.937,1.16-6.937,1.16c-8.405-0.951-9.306,8.083-9.306,8.083
	c-1.299,7.045-7.377,5.641-7.377,5.641c-12.033-2.791-12.875,8.212-12.875,8.212c-1.588,6.61-7.562,4.769-7.562,4.769
	c-10.705-2.66-11.472,7.872-11.472,7.872c-0.219,2.907-3.167,3.904-3.167,3.904l-8.804-12.149c0,0,3.138-1.481,3.993-4.999
	c0,0,2.025-7.329,9.659-5.832c0,0,8.201,2.735,10.644-7.392c0,0,1.259-7.504,10.348-5.557c0,0,7.513,0.849,9.184-7.657
	c0,0,0.909-7.188,9.983-5.892C1663.85,249.077,1668.332,248.979,1669.033,247.337z"/>
<path fill="#010011" stroke="#FFFFFF" stroke-width="2.3711" stroke-miterlimit="10" d="M1675.464,252.048l8.507,11.577
	c-2.973,2.066-6.937,1.16-6.937,1.16c-8.405-0.951-9.306,8.083-9.306,8.083c-1.299,7.045-7.377,5.641-7.377,5.641
	c-12.033-2.791-12.875,8.212-12.875,8.212c-1.588,6.61-7.562,4.769-7.562,4.769c-10.705-2.66-11.472,7.872-11.472,7.872
	c-0.219,2.907-3.167,3.904-3.167,3.904l-8.804-12.149c0,0,3.138-1.481,3.993-4.999c0,0,2.025-7.329,9.659-5.832
	c0,0,8.201,2.735,10.644-7.392c0,0,1.26-7.504,10.348-5.557c0,0,7.513,0.849,9.184-7.657c0,0,0.909-7.188,9.983-5.892
	C1670.281,253.788,1674.763,253.69,1675.464,252.048z"/>
<circle fill="#FFFFFF" cx="1562.877" cy="306.253" r="5.313"/>
<circle fill="#FFFFFF" cx="1520.098" cy="189.198" r="5.313"/>
<circle fill="#FFFFFF" cx="1453.292" cy="136.679" r="5.313"/>
<circle fill="#FFFFFF" cx="1569.735" cy="229.764" r="5.313"/>
<circle fill="#FFFFFF" cx="1683.16" cy="173.249" r="5.313"/>
<circle fill="#FFFFFF" cx="1550.135" cy="390.732" r="5.313"/>
<circle fill="#FFFFFF" cx="1734.639" cy="270.061" r="5.313"/>
<circle fill="#FFFFFF" cx="1644.555" cy="417.836" r="5.313"/>
<circle fill="#FFFFFF" cx="1779.406" cy="375.176" r="5.313"/>
<polygon fill="none" stroke="#F9F9F9" stroke-width="3.2809" stroke-miterlimit="10" points="1772.094,301.751 1792.338,308.458 
	1787.891,287.975 "/>
<polygon fill="none" stroke="#F9F9F9" stroke-width="3.2809" stroke-miterlimit="10" points="1569.735,436.398 1589.979,443.105 
	1585.532,422.622 "/>
<polygon fill="none" stroke="#F9F9F9" stroke-width="3.2809" stroke-miterlimit="10" points="1689.553,394.267 1709.797,400.973 
	1705.35,380.491 "/>
<polygon fill="none" stroke="#F9F9F9" stroke-width="3.2809" stroke-miterlimit="10" points="1708.344,208.315 1728.588,215.022 
	1724.141,194.539 "/>
<polygon fill="none" stroke="#F9F9F9" stroke-width="2.3711" stroke-miterlimit="10" points="1498.139,258.94 1518.383,265.647 
	1513.936,245.164 "/>
<rect x="1620.23" y="369.206" transform="matrix(-0.9493 -0.3145 0.3145 -0.9493 3054.5325 1243.7332)" fill="none" stroke="#F9F9F9" stroke-width="2.3711" stroke-miterlimit="10" width="14.732" height="12.511"/>
<rect x="1503.772" y="126.715" transform="matrix(-0.9493 -0.3145 0.3145 -0.9493 2903.7849 734.4297)" fill="none" stroke="#F9F9F9" stroke-width="2.3711" stroke-miterlimit="10" width="14.732" height="12.511"/>
<rect x="1428.162" y="20.456" transform="matrix(-0.9493 -0.3145 0.3145 -0.9493 2789.8193 503.5246)" fill="none" stroke="#F9F9F9" stroke-width="2.3711" stroke-miterlimit="10" width="14.732" height="12.511"/>
<circle fill="#FFFFFF" cx="1853.425" cy="287.975" r="5.313"/>
<rect x="1897.181" y="241.082" transform="matrix(-0.3653 0.9309 -0.9309 -0.3653 2830.4971 -1435.2466)" fill="none" stroke="#F9F9F9" stroke-width="2.3711" stroke-miterlimit="10" width="14.732" height="12.511"/>
<rect x="1766.725" y="172.308" transform="matrix(-0.3653 0.9309 -0.9309 -0.3653 2588.3667 -1407.7035)" fill="none" stroke="#F9F9F9" stroke-width="2.3711" stroke-miterlimit="10" width="14.732" height="12.511"/>
<g>
	<g>
		<path fill="#F9F9F9" d="M1973.677,237.676c-6.895,3.464-13.791,6.928-20.686,10.393c-3.06,1.537-0.371,6.116,2.679,4.584
			c6.895-3.464,13.791-6.928,20.686-10.393C1979.416,240.723,1976.727,236.144,1973.677,237.676L1973.677,237.676z"/>
	</g>
</g>
<g>
	<g>
		<path fill="#F9F9F9" d="M1851.114,160.446c-6.895,3.464-13.791,6.928-20.686,10.393c-3.06,1.537-0.371,6.116,2.679,4.584
			c6.895-3.464,13.791-6.928,20.686-10.393C1856.853,163.493,1854.164,158.914,1851.114,160.446L1851.114,160.446z"/>
	</g>
</g>
<g>
	<g>
		<path fill="#F9F9F9" d="M1720.157,343.725c-7.405-2.171-14.81-4.341-22.215-6.512c-3.293-0.965-4.689,4.158-1.411,5.119
			c7.405,2.171,14.81,4.341,22.215,6.512C1722.039,349.81,1723.435,344.686,1720.157,343.725L1720.157,343.725z"/>
	</g>
</g>
<g>
	<g>
		<path fill="#F9F9F9" d="M1775.919,447.488c3.852-6.686,7.705-13.372,11.557-20.058c1.712-2.972-2.876-5.644-4.584-2.679
			c-3.852,6.686-7.705,13.372-11.557,20.058C1769.623,447.78,1774.211,450.453,1775.919,447.488L1775.919,447.488z"/>
	</g>
</g>
<g>
	<g>
		<path fill="#F9F9F9" d="M1616.019,493.114c3.852-6.686,7.705-13.372,11.557-20.058c1.712-2.972-2.876-5.644-4.584-2.679
			c-3.852,6.686-7.705,13.372-11.557,20.058C1609.723,493.406,1614.311,496.078,1616.019,493.114L1616.019,493.114z"/>
	</g>
</g>
<polygon fill="none" stroke="#F9F9F9" stroke-width="3.2809" stroke-miterlimit="10" points="1626.854,123.948 1605.529,123.948 
	1616.192,141.993 "/>
<g>
	<g>
		<path fill="#F9F9F9" d="M1555.395,141.89c3.852-6.686,7.705-13.372,11.557-20.058c1.712-2.972-2.876-5.644-4.584-2.679
			c-3.852,6.686-7.705,13.372-11.557,20.058C1549.099,142.182,1553.687,144.854,1555.395,141.89L1555.395,141.89z"/>
	</g>
</g>
<g>
	<g>
		<path fill="#F9F9F9" d="M1519.745,21.776c3.852-6.686,7.705-13.372,11.557-20.058c1.712-2.972-2.876-5.644-4.584-2.679
			c-3.852,6.686-7.705,13.372-11.557,20.058C1513.449,22.068,1518.037,24.741,1519.745,21.776L1519.745,21.776z"/>
	</g>
</g>
<g>
	<g>
		<path fill="#F9F9F9" d="M1516.165,351.736c-3.831-6.698-7.663-13.396-11.494-20.095c-1.699-2.97-6.286-0.297-4.584,2.679
			c3.832,6.698,7.663,13.396,11.494,20.095C1513.28,357.386,1517.868,354.713,1516.165,351.736L1516.165,351.736z"/>
	</g>
</g>
<g>
	<g>
		<path fill="#F9F9F9" d="M1468.698,200.473c-7.628,1.165-15.256,2.331-22.884,3.496c-3.375,0.516-1.937,5.631,1.411,5.119
			c7.628-1.165,15.256-2.331,22.884-3.496C1473.485,205.076,1472.046,199.961,1468.698,200.473L1468.698,200.473z"/>
	</g>
</g>
<g>
	<g>
		<path fill="#F9F9F9" d="M1642.485,203.527c-7.66-0.934-15.32-1.868-22.98-2.801c-3.393-0.414-3.353,4.9,0,5.309
			c7.66,0.934,15.32,1.868,22.98,2.801C1645.879,209.249,1645.839,203.936,1642.485,203.527L1642.485,203.527z"/>
	</g>
</g>
<g>
	<g>
		<path fill="#F9F9F9" d="M1719.834,129.267c-7.66-0.934-15.32-1.868-22.98-2.801c-3.393-0.414-3.353,4.9,0,5.309
			c7.66,0.934,15.32,1.868,22.98,2.801C1723.227,134.99,1723.188,129.676,1719.834,129.267L1719.834,129.267z"/>
	</g>
</g>
<g>
	<g>
		<path fill="#F9F9F9" d="M1784.093,231.631c-5.416-5.497-10.832-10.993-16.248-16.49c-2.406-2.441-6.158,1.314-3.754,3.754
			c5.416,5.497,10.832,10.993,16.248,16.49C1782.744,237.826,1786.496,234.071,1784.093,231.631L1784.093,231.631z"/>
	</g>
</g>
<path fill="#F9F9F9" d="M1946.122,144.958l8.507,11.577c-2.973,2.066-6.937,1.16-6.937,1.16c-8.405-0.951-9.306,8.083-9.306,8.083
	c-1.299,7.045-7.377,5.641-7.377,5.641c-12.033-2.791-12.875,8.212-12.875,8.212c-1.588,6.61-7.562,4.769-7.562,4.769
	c-10.705-2.66-11.472,7.872-11.472,7.872c-0.219,2.907-3.167,3.904-3.167,3.904l-8.804-12.149c0,0,3.138-1.481,3.993-4.999
	c0,0,2.025-7.329,9.659-5.832c0,0,8.201,2.735,10.644-7.392c0,0,1.259-7.504,10.348-5.557c0,0,7.513,0.849,9.184-7.657
	c0,0,0.909-7.188,9.983-5.892C1940.939,146.697,1945.421,146.6,1946.122,144.958z"/>
<path fill="#010011" stroke="#FFFFFF" stroke-width="2.3711" stroke-miterlimit="10" d="M1952.553,149.668l8.507,11.577
	c-2.973,2.066-6.937,1.16-6.937,1.16c-8.405-0.951-9.306,8.083-9.306,8.083c-1.299,7.045-7.377,5.641-7.377,5.641
	c-12.033-2.791-12.875,8.212-12.875,8.212c-1.588,6.61-7.562,4.769-7.562,4.769c-10.705-2.66-11.472,7.872-11.472,7.872
	c-0.219,2.907-3.167,3.904-3.167,3.904l-8.804-12.149c0,0,3.138-1.481,3.993-4.999c0,0,2.025-7.329,9.659-5.832
	c0,0,8.201,2.735,10.644-7.392c0,0,1.26-7.504,10.348-5.557c0,0,7.513,0.849,9.184-7.657c0,0,0.909-7.188,9.983-5.892
	C1947.37,151.408,1951.852,151.31,1952.553,149.668z"/>
<path fill="#F9F9F9" d="M2300.258,143.757l8.507,11.577c-2.973,2.066-6.937,1.16-6.937,1.16c-8.405-0.951-9.306,8.083-9.306,8.083
	c-1.299,7.045-7.377,5.641-7.377,5.641c-12.033-2.791-12.875,8.212-12.875,8.212c-1.588,6.61-7.562,4.769-7.562,4.769
	c-10.705-2.66-11.472,7.872-11.472,7.872c-0.219,2.907-3.167,3.904-3.167,3.904l-8.804-12.149c0,0,3.138-1.481,3.993-4.999
	c0,0,2.024-7.329,9.658-5.832c0,0,8.201,2.735,10.644-7.392c0,0,1.26-7.504,10.348-5.557c0,0,7.513,0.849,9.184-7.657
	c0,0,0.909-7.188,9.983-5.892C2295.075,145.496,2299.557,145.399,2300.258,143.757z"/>
<path fill="#010011" stroke="#FFFFFF" stroke-width="2.3711" stroke-miterlimit="10" d="M2306.689,148.467l8.507,11.577
	c-2.973,2.066-6.937,1.16-6.937,1.16c-8.405-0.951-9.306,8.083-9.306,8.083c-1.299,7.045-7.377,5.641-7.377,5.641
	c-12.033-2.791-12.875,8.212-12.875,8.212c-1.588,6.61-7.562,4.769-7.562,4.769c-10.705-2.66-11.472,7.872-11.472,7.872
	c-0.219,2.907-3.167,3.904-3.167,3.904l-8.804-12.149c0,0,3.138-1.481,3.993-4.999c0,0,2.024-7.329,9.658-5.832
	c0,0,8.201,2.735,10.644-7.392c0,0,1.26-7.504,10.348-5.557c0,0,7.513,0.849,9.184-7.657c0,0,0.909-7.188,9.983-5.892
	C2301.506,150.207,2305.988,150.109,2306.689,148.467z"/>
<circle fill="#FFFFFF" cx="1903.474" cy="436.389" r="5.313"/>
<circle fill="#FFFFFF" cx="1976.142" cy="492.904" r="5.313"/>
<circle fill="#FFFFFF" cx="2089.568" cy="436.389" r="5.313"/>
<polygon fill="none" stroke="#F9F9F9" stroke-width="3.2809" stroke-miterlimit="10" points="2114.752,471.456 2134.996,478.162 
	2130.549,457.68 "/>
<polygon fill="none" stroke="#F9F9F9" stroke-width="3.2809" stroke-miterlimit="10" points="2245.87,509.453 2266.114,516.16 
	2261.667,495.677 "/>
<polygon fill="none" stroke="#F9F9F9" stroke-width="3.2809" stroke-miterlimit="10" points="1825.325,218.556 1845.568,225.263 
	1841.122,204.78 "/>
<polygon fill="none" stroke="#F9F9F9" stroke-width="2.3711" stroke-miterlimit="10" points="1892.282,319.101 1912.526,325.807 
	1908.079,305.325 "/>
<rect x="1976.98" y="419.835" transform="matrix(-0.9493 -0.3145 0.3145 -0.9493 3734.0076 1454.6154)" fill="none" stroke="#F9F9F9" stroke-width="2.3711" stroke-miterlimit="10" width="14.732" height="12.511"/>
<g>
	<g>
		<path fill="#F9F9F9" d="M2048.893,466.667c-7.66-0.934-15.32-1.868-22.979-2.801c-3.393-0.414-3.353,4.9,0,5.309
			c7.66,0.934,15.32,1.868,22.979,2.801C2052.286,472.39,2052.247,467.076,2048.893,466.667L2048.893,466.667z"/>
	</g>
</g>
<circle fill="#FFFFFF" cx="1830.296" cy="432.301" r="5.313"/>
<circle fill="#FFFFFF" cx="1954.27" cy="293.515" r="5.313"/>
<circle fill="#FFFFFF" cx="1795.077" cy="141.993" r="5.313"/>
<circle fill="#FFFFFF" cx="1870.18" cy="72.496" r="5.313"/>
<circle fill="#FFFFFF" cx="1747.917" cy="77.809" r="5.313"/>
<rect x="1872.318" y="362.779" transform="matrix(-0.8669 0.4984 -0.4984 -0.8669 3693.1743 -247.9349)" fill="none" stroke="#F9F9F9" stroke-width="2.3711" stroke-miterlimit="10" width="14.732" height="12.511"/>
<g>
	<g>
		<path fill="#F9F9F9" d="M1949.856,343.912c-5.799,5.091-11.599,10.181-17.398,15.272c-2.578,2.263,1.192,6.002,3.754,3.754
			c5.799-5.091,11.599-10.181,17.398-15.272C1956.187,345.403,1952.417,341.663,1949.856,343.912L1949.856,343.912z"/>
	</g>
</g>
<g>
	<g>
		<path fill="#F9F9F9" d="M2190.5,494.772c-5.416-5.497-10.832-10.993-16.248-16.49c-2.406-2.441-6.158,1.314-3.754,3.754
			c5.416,5.497,10.832,10.993,16.248,16.49C2189.152,500.967,2192.904,497.211,2190.5,494.772L2190.5,494.772z"/>
	</g>
</g>
<g>
	<g>
		<path fill="#F9F9F9" d="M1845.448,339.349c-5.416-5.497-10.832-10.993-16.248-16.49c-2.406-2.441-6.158,1.314-3.754,3.754
			c5.416,5.497,10.832,10.993,16.248,16.49C1844.099,345.545,1847.851,341.789,1845.448,339.349L1845.448,339.349z"/>
	</g>
</g>
<g>
	<g>
		<path fill="#F9F9F9" d="M1434.225,447.853c5.73,5.168,11.46,10.337,17.19,15.505c2.535,2.286,6.301-1.456,3.754-3.754
			c-5.73-5.168-11.46-10.337-17.19-15.505C1435.444,441.813,1431.677,445.556,1434.225,447.853L1434.225,447.853z"/>
	</g>
</g>
<circle fill="#FFFFFF" cx="1440.841" cy="394.467" r="5.313"/>
<circle fill="#FFFFFF" cx="1450.011" cy="263.184" r="5.313"/>
<rect x="1441.636" y="318.481" transform="matrix(0.9493 0.3145 -0.3145 0.9493 175.6466 -439.218)" fill="none" stroke="#F9F9F9" stroke-width="2.3711" stroke-miterlimit="10" width="14.732" height="12.511"/>
<path fill="#F9F9F9" d="M2258.79,350.09l8.507,11.577c-2.973,2.066-6.937,1.16-6.937,1.16c-8.405-0.951-9.306,8.083-9.306,8.083
	c-1.299,7.045-7.377,5.641-7.377,5.641c-12.033-2.791-12.875,8.212-12.875,8.212c-1.588,6.61-7.562,4.769-7.562,4.769
	c-10.705-2.66-11.472,7.872-11.472,7.872c-0.219,2.907-3.167,3.904-3.167,3.904l-8.804-12.149c0,0,3.138-1.481,3.993-4.999
	c0,0,2.024-7.329,9.658-5.832c0,0,8.201,2.735,10.644-7.392c0,0,1.26-7.504,10.348-5.557c0,0,7.513,0.849,9.184-7.657
	c0,0,0.909-7.188,9.983-5.892C2253.607,351.829,2258.089,351.732,2258.79,350.09z"/>
<path fill="#010011" stroke="#FFFFFF" stroke-width="2.3711" stroke-miterlimit="10" d="M2265.221,354.801l8.507,11.577
	c-2.973,2.066-6.937,1.16-6.937,1.16c-8.405-0.951-9.306,8.083-9.306,8.083c-1.299,7.045-7.377,5.641-7.377,5.641
	c-12.033-2.791-12.875,8.212-12.875,8.212c-1.588,6.61-7.562,4.769-7.562,4.769c-10.705-2.66-11.472,7.872-11.472,7.872
	c-0.219,2.907-3.167,3.904-3.167,3.904l-8.804-12.149c0,0,3.138-1.481,3.993-4.999c0,0,2.025-7.329,9.659-5.832
	c0,0,8.201,2.735,10.644-7.392c0,0,1.26-7.504,10.348-5.557c0,0,7.513,0.849,9.184-7.657c0,0,0.909-7.188,9.983-5.892
	C2260.038,356.54,2264.52,356.443,2265.221,354.801z"/>
<circle fill="#FFFFFF" cx="2152.634" cy="409.005" r="5.313"/>
<circle fill="#FFFFFF" cx="2109.854" cy="291.951" r="5.313"/>
<circle fill="#FFFFFF" cx="2031.454" cy="239.968" r="5.313"/>
<circle fill="#FFFFFF" cx="2124.874" cy="189.07" r="5.313"/>
<circle fill="#FFFFFF" cx="2159.491" cy="332.516" r="5.313"/>
<circle fill="#FFFFFF" cx="2272.917" cy="276.001" r="5.313"/>
<circle fill="#FFFFFF" cx="2324.395" cy="372.814" r="5.313"/>
<circle fill="#FFFFFF" cx="2298.101" cy="471.787" r="5.313"/>
<polygon fill="none" stroke="#F9F9F9" stroke-width="3.2809" stroke-miterlimit="10" points="2361.85,404.504 2382.094,411.21 
	2377.647,390.728 "/>
<polygon fill="none" stroke="#F9F9F9" stroke-width="3.2809" stroke-miterlimit="10" points="2298.101,311.068 2318.345,317.774 
	2313.898,297.292 "/>
<polygon fill="none" stroke="#F9F9F9" stroke-width="2.3711" stroke-miterlimit="10" points="2073.826,373.919 2094.07,380.626 
	2089.623,360.143 "/>
<rect x="2232.612" y="451.079" transform="matrix(-0.9493 -0.3145 0.3145 -0.9493 4222.4761 1595.9125)" fill="none" stroke="#F9F9F9" stroke-width="2.3711" stroke-miterlimit="10" width="14.732" height="12.511"/>
<rect x="2093.529" y="229.468" transform="matrix(-0.9493 -0.3145 0.3145 -0.9493 4021.0605 1120.1934)" fill="none" stroke="#F9F9F9" stroke-width="2.3711" stroke-miterlimit="10" width="14.732" height="12.511"/>
<rect x="2181.257" y="174.358" transform="matrix(-0.9493 -0.3145 0.3145 -0.9493 4209.3975 1040.3607)" fill="none" stroke="#F9F9F9" stroke-width="2.3711" stroke-miterlimit="10" width="14.732" height="12.511"/>
<rect x="2356.482" y="275.06" transform="matrix(-0.3653 0.9309 -0.9309 -0.3653 3489.2058 -1816.4185)" fill="none" stroke="#F9F9F9" stroke-width="2.3711" stroke-miterlimit="10" width="14.732" height="12.511"/>
<g>
	<g>
		<path fill="#F9F9F9" d="M2321.021,429.256c-7.405-2.171-14.81-4.341-22.215-6.512c-3.293-0.965-4.689,4.158-1.411,5.119
			c7.405,2.171,14.81,4.341,22.215,6.512C2322.903,435.341,2324.3,430.217,2321.021,429.256L2321.021,429.256z"/>
	</g>
</g>
<polygon fill="none" stroke="#F9F9F9" stroke-width="3.2809" stroke-miterlimit="10" points="2216.611,226.7 2195.285,226.7 
	2205.948,244.745 "/>
<polygon fill="none" stroke="#F9F9F9" stroke-width="3.2809" stroke-miterlimit="10" points="2067.292,180.176 2045.966,180.176 
	2056.629,198.221 "/>
<g>
	<g>
		<path fill="#F9F9F9" d="M2145.152,244.643c3.852-6.686,7.705-13.372,11.557-20.058c1.712-2.972-2.876-5.644-4.584-2.679
			c-3.853,6.686-7.705,13.372-11.557,20.058C2138.855,244.935,2143.443,247.607,2145.152,244.643L2145.152,244.643z"/>
	</g>
</g>
<g>
	<g>
		<path fill="#F9F9F9" d="M2006.228,179.274c-3.831-6.698-7.663-13.396-11.494-20.095c-1.699-2.97-6.286-0.297-4.584,2.679
			c3.832,6.698,7.663,13.396,11.494,20.095C2003.343,184.924,2007.931,182.25,2006.228,179.274L2006.228,179.274z"/>
	</g>
</g>
<g>
	<g>
		<path fill="#F9F9F9" d="M2049.495,311.258c-7.628,1.165-15.256,2.331-22.884,3.496c-3.375,0.516-1.936,5.631,1.411,5.119
			c7.628-1.165,15.256-2.331,22.884-3.496C2054.282,315.862,2052.843,310.747,2049.495,311.258L2049.495,311.258z"/>
	</g>
</g>
<g>
	<g>
		<path fill="#F9F9F9" d="M2232.242,306.279c-7.66-0.934-15.32-1.868-22.979-2.801c-3.393-0.414-3.354,4.9,0,5.309
			c7.66,0.934,15.32,1.868,22.979,2.801C2235.635,312.002,2235.595,306.688,2232.242,306.279L2232.242,306.279z"/>
	</g>
</g>
<g>
	<g>
		<path fill="#F9F9F9" d="M2309.591,232.02c-7.66-0.934-15.32-1.868-22.98-2.801c-3.393-0.414-3.353,4.9,0,5.309
			c7.66,0.934,15.32,1.868,22.98,2.801C2312.984,237.742,2312.944,232.429,2309.591,232.02L2309.591,232.02z"/>
	</g>
</g>
<circle fill="#FFFFFF" cx="2350.59" cy="505.918" r="5.313"/>
<rect x="2351.909" y="454.019" transform="matrix(-0.9493 -0.3145 0.3145 -0.9493 4454.0928 1639.1614)" fill="none" stroke="#F9F9F9" stroke-width="2.3711" stroke-miterlimit="10" width="14.732" height="12.511"/>
<g>
	<g>
		<path fill="#F9F9F9" d="M2373.849,334.384c-5.416-5.497-10.832-10.993-16.248-16.49c-2.406-2.441-6.158,1.314-3.754,3.754
			c5.416,5.497,10.832,10.993,16.248,16.49C2372.501,340.579,2376.253,336.823,2373.849,334.384L2373.849,334.384z"/>
	</g>
</g>
<rect x="2336.898" y="191.81" transform="matrix(-0.3653 0.9309 -0.9309 -0.3653 3384.9697 -1911.8478)" fill="none" stroke="#F9F9F9" stroke-width="2.3711" stroke-miterlimit="10" width="14.732" height="12.511"/>
<circle fill="#FFFFFF" cx="2384.834" cy="244.745" r="5.313"/>
<path fill="#F9F9F9" d="M1697.117,42.176l8.507,11.577c-2.973,2.066-6.937,1.16-6.937,1.16c-8.405-0.951-9.306,8.083-9.306,8.083
	c-1.299,7.045-7.377,5.641-7.377,5.641c-12.033-2.791-12.875,8.212-12.875,8.212c-1.588,6.61-7.562,4.769-7.562,4.769
	c-10.705-2.66-11.472,7.872-11.472,7.872c-0.219,2.907-3.167,3.904-3.167,3.904l-8.804-12.149c0,0,3.138-1.481,3.993-4.999
	c0,0,2.025-7.329,9.659-5.832c0,0,8.201,2.735,10.644-7.392c0,0,1.26-7.504,10.348-5.557c0,0,7.513,0.849,9.184-7.657
	c0,0,0.909-7.188,9.983-5.892C1691.933,43.915,1696.415,43.818,1697.117,42.176z"/>
<path fill="#010011" stroke="#FFFFFF" stroke-width="2.3711" stroke-miterlimit="10" d="M1703.548,46.887l8.507,11.577
	c-2.973,2.066-6.937,1.16-6.937,1.16c-8.405-0.951-9.306,8.083-9.306,8.083c-1.299,7.045-7.377,5.641-7.377,5.641
	c-12.033-2.791-12.875,8.212-12.875,8.212c-1.588,6.61-7.562,4.769-7.562,4.769c-10.705-2.66-11.472,7.872-11.472,7.872
	c-0.219,2.907-3.167,3.904-3.167,3.904l-8.804-12.149c0,0,3.138-1.481,3.993-4.999c0,0,2.025-7.329,9.659-5.832
	c0,0,8.201,2.735,10.644-7.392c0,0,1.259-7.504,10.348-5.557c0,0,7.513,0.849,9.184-7.657c0,0,0.909-7.188,9.983-5.892
	C1698.365,48.626,1702.847,48.529,1703.548,46.887z"/>
<circle fill="#FFFFFF" cx="1597.818" cy="24.602" r="5.313"/>
<circle fill="#FFFFFF" cx="1481.375" cy="67.182" r="5.313"/>
<polygon fill="none" stroke="#F9F9F9" stroke-width="3.2809" stroke-miterlimit="10" points="1736.427,3.153 1756.671,9.86 
	1752.224,-10.623 "/>
<polygon fill="none" stroke="#F9F9F9" stroke-width="2.3711" stroke-miterlimit="10" points="1526.222,53.779 1546.466,60.485 
	1542.019,40.002 "/>
<rect x="1925.264" y="35.92" transform="matrix(-0.3653 0.9309 -0.9309 -0.3653 2677.8547 -1741.4938)" fill="none" stroke="#F9F9F9" stroke-width="2.3711" stroke-miterlimit="10" width="14.732" height="12.511"/>
<rect x="1800.844" y="70.464" transform="matrix(-0.3653 0.9309 -0.9309 -0.3653 2540.1428 -1578.5096)" fill="none" stroke="#F9F9F9" stroke-width="2.3711" stroke-miterlimit="10" width="14.732" height="12.511"/>
<rect x="1590.452" y="69.696" transform="matrix(-0.3653 0.9309 -0.9309 -0.3653 2252.1824 -1383.7053)" fill="none" stroke="#F9F9F9" stroke-width="2.3711" stroke-miterlimit="10" width="14.732" height="12.511"/>
<g>
	<g>
		<path fill="#F9F9F9" d="M2001.76,32.514c-6.895,3.464-13.791,6.928-20.686,10.393c-3.06,1.537-0.371,6.116,2.679,4.584
			c6.895-3.464,13.791-6.928,20.686-10.393C2007.499,35.561,2004.81,30.982,2001.76,32.514L2001.76,32.514z"/>
	</g>
</g>
<g>
	<g>
		<path fill="#F9F9F9" d="M1916.976,105.697c-7.681-0.737-15.363-1.473-23.044-2.21c-3.408-0.327-3.376,4.985,0,5.309
			c7.681,0.737,15.363,1.473,23.044,2.21C1920.384,111.332,1920.352,106.021,1916.976,105.697L1916.976,105.697z"/>
	</g>
</g>
<g>
	<g>
		<path fill="#F9F9F9" d="M1496.781-4.689c-7.628,1.165-15.256,2.331-22.884,3.496c-3.376,0.516-1.937,5.631,1.411,5.119
			c7.628-1.165,15.256-2.331,22.884-3.496C1501.568-0.086,1500.129-5.2,1496.781-4.689L1496.781-4.689z"/>
	</g>
</g>
<g>
	<g>
		<path fill="#F9F9F9" d="M1670.569-1.635c-7.66-0.934-15.32-1.868-22.98-2.801c-3.393-0.414-3.353,4.9,0,5.309
			c7.66,0.934,15.32,1.868,22.98,2.801C1673.962,4.087,1673.922-1.226,1670.569-1.635L1670.569-1.635z"/>
	</g>
</g>
<circle fill="#FFFFFF" cx="2047.666" cy="141.202" r="5.313"/>
<circle fill="#FFFFFF" cx="1980.86" cy="88.683" r="5.313"/>
<circle fill="#FFFFFF" cx="2210.728" cy="125.253" r="5.313"/>
<rect x="2031.34" y="78.719" transform="matrix(-0.9493 -0.3145 0.3145 -0.9493 3947.2473 806.7869)" fill="none" stroke="#F9F9F9" stroke-width="2.3711" stroke-miterlimit="10" width="14.732" height="12.511"/>
<rect x="2308.445" y="91.849" transform="matrix(-0.3653 0.9309 -0.9309 -0.3653 3253.071 -2021.8368)" fill="none" stroke="#F9F9F9" stroke-width="2.3711" stroke-miterlimit="10" width="14.732" height="12.511"/>
<polygon fill="none" stroke="#F9F9F9" stroke-width="3.2809" stroke-miterlimit="10" points="2154.423,75.952 2133.097,75.952 
	2143.76,93.997 "/>
<g>
	<g>
		<path fill="#F9F9F9" d="M2082.963,93.894c3.853-6.686,7.705-13.372,11.557-20.058c1.712-2.972-2.876-5.644-4.584-2.679
			c-3.852,6.686-7.705,13.372-11.557,20.058C2076.667,94.186,2081.255,96.858,2082.963,93.894L2082.963,93.894z"/>
	</g>
</g>
<g>
	<g>
		<path fill="#F9F9F9" d="M2247.402,81.271c-7.66-0.934-15.32-1.868-22.98-2.801c-3.393-0.414-3.353,4.9,0,5.309
			c7.66,0.934,15.32,1.868,22.98,2.801C2250.796,86.993,2250.756,81.68,2247.402,81.271L2247.402,81.271z"/>
	</g>
</g>
<g>
	<g>
		<path fill="#F9F9F9" d="M2140.468,139.296c-7.66-0.934-15.32-1.868-22.98-2.801c-3.393-0.414-3.353,4.9,0,5.309
			c7.66,0.934,15.32,1.868,22.98,2.801C2143.861,145.019,2143.821,139.705,2140.468,139.296L2140.468,139.296z"/>
	</g>
</g>
<g>
	<g>
		<path fill="#F9F9F9" d="M1812.176,26.469c-5.416-5.497-10.832-10.993-16.248-16.49c-2.406-2.441-6.158,1.314-3.754,3.754
			c5.416,5.497,10.832,10.993,16.248,16.49C1810.828,32.665,1814.58,28.909,1812.176,26.469L1812.176,26.469z"/>
	</g>
</g>
<polygon fill="none" stroke="#F9F9F9" stroke-width="3.2809" stroke-miterlimit="10" points="1853.408,13.395 1873.652,20.102 
	1869.205,-0.381 "/>
<circle fill="#FFFFFF" cx="2059.537" cy="34.806" r="5.313"/>
<circle fill="#FFFFFF" cx="1959.583" cy="11.857" r="5.313"/>
<rect x="2121.612" y="24.306" transform="matrix(-0.9493 -0.3145 0.3145 -0.9493 4140.3228 729.1113)" fill="none" stroke="#F9F9F9" stroke-width="2.3711" stroke-miterlimit="10" width="14.732" height="12.511"/>
<rect x="2308.445" y="4.152" transform="matrix(-0.9493 -0.3145 0.3145 -0.9493 4510.8481 748.5831)" fill="none" stroke="#F9F9F9" stroke-width="2.3711" stroke-miterlimit="10" width="14.732" height="12.511"/>
<polygon fill="none" stroke="#F9F9F9" stroke-width="3.2809" stroke-miterlimit="10" points="2244.694,21.539 2223.368,21.539 
	2234.031,39.584 "/>
<g>
	<g>
		<path fill="#F9F9F9" d="M2173.235,39.481c3.853-6.686,7.705-13.372,11.557-20.058c1.712-2.972-2.876-5.644-4.584-2.679
			c-3.853,6.686-7.705,13.372-11.557,20.058C2166.938,39.773,2171.527,42.445,2173.235,39.481L2173.235,39.481z"/>
	</g>
</g>
<g>
	<g>
		<path fill="#F9F9F9" d="M2309.591,44.21c-7.66-0.934-15.32-1.868-22.98-2.801c-3.393-0.414-3.353,4.9,0,5.309
			c7.66,0.934,15.32,1.868,22.98,2.801C2312.984,49.932,2312.944,44.618,2309.591,44.21L2309.591,44.21z"/>
	</g>
</g>
<rect x="2364.981" y="-13.352" transform="matrix(-0.3653 0.9309 -0.9309 -0.3653 3232.3274 -2218.0947)" fill="none" stroke="#F9F9F9" stroke-width="2.3711" stroke-miterlimit="10" width="14.732" height="12.511"/>
<polygon fill="none" stroke="#F9F9F9" stroke-width="2.3711" stroke-miterlimit="10" points="2369.398,109.676 2389.642,116.383 
	2385.195,95.9 "/>
<circle fill="#FFFFFF" cx="2014.809" cy="375.699" r="5.313"/>
<rect x="730.102" y="150.905" width="861.988" height="219.102"/>
</svg>
